M48
;DRILL file {KiCad 4.0.7} date 08/17/21 22:48:36
;FORMAT={-:-/ absolute / inch / decimal}
FMAT,2
INCH,TZ
T1C0.016
T2C0.026
T3C0.031
T4C0.035
T5C0.039
T6C0.043
T7C0.059
T8C0.126
%
G90
G05
M72
T1
X1.1484Y-3.4992
X1.1736Y-4.0315
X1.2346Y-1.687
X1.2579Y-1.5559
X1.265Y-2.2996
X1.2665Y-2.4496
X1.2969Y-2.222
X1.3039Y-1.4736
X1.4094Y-3.0488
X1.4256Y-3.9248
X1.428Y-1.6528
X1.4366Y-2.3882
X1.4728Y-2.7083
X1.4732Y-2.9252
X1.6441Y-3.1531
X1.7854Y-2.9504
X1.965Y-3.8165
X1.9921Y-4.1134
X1.9933Y-3.9417
X1.9937Y-4.0433
X1.9949Y-4.1969
X2.0339Y-4.2929
X2.0736Y-1.9201
X2.1197Y-1.8701
X2.1736Y-4.2835
X2.211Y-4.4551
X2.2272Y-4.2205
X2.2488Y-2.0984
X2.2937Y-2.0252
X2.2992Y-4.1209
X2.3594Y-1.7307
X2.4417Y-4.7559
X2.5626Y-1.6488
X2.6232Y-1.9945
X2.6457Y-4.7575
X2.6543Y-1.113
X2.789Y-3.5535
X2.789Y-3.7169
X2.7929Y-3.6197
X2.7965Y-3.4035
X2.8087Y-3.335
X2.8378Y-3.0075
X2.8386Y-3.3012
X2.8622Y-3.0472
X2.8622Y-3.1386
X2.8642Y-3.0799
X3.0669Y-1.4102
X3.1142Y-4.0413
X3.1283Y-3.3933
X3.2012Y-3.4524
X3.2012Y-4.0051
X3.2063Y-3.2504
X3.2236Y-3.363
X3.2449Y-3.4165
X3.2642Y-1.0465
X3.2654Y-4.0965
X3.2744Y-3.3256
X3.287Y-3.7264
X3.5539Y-3.2843
X3.5661Y-1.0839
X3.6528Y-4.6138
X3.6929Y-4.6783
X3.772Y-4.5811
X3.8701Y-3.8504
X3.876Y-5.1539
X3.9Y-5.2709
X3.915Y-4.6772
X3.9157Y-4.5713
X3.9224Y-3.8512
X3.9303Y-2.3098
X3.9331Y-5.1449
X3.9594Y-3.8358
X4.0248Y-4.585
X4.0248Y-5.2394
X4.1906Y-3.1535
X4.2185Y-2.3728
X4.2209Y-3.9972
X4.2244Y-2.8354
X4.2264Y-2.7346
X4.2264Y-3.0862
X4.2264Y-3.126
X4.2272Y-2.4996
X4.2272Y-2.7906
X4.228Y-2.9327
X4.2283Y-3.0409
X4.2287Y-2.5898
X4.2287Y-2.8728
X4.2287Y-2.9961
X4.2677Y-3.9984
X4.2976Y-3.2634
X4.3031Y-3.3079
X4.3354Y-4.0488
X4.3492Y-3.8602
X4.3685Y-3.3512
X4.3744Y-3.7512
X4.3835Y-3.3083
X4.4118Y-2.976
X4.4339Y-3.9283
X4.4512Y-4.1102
X4.4634Y-3.3016
X4.4665Y-2.6016
X4.5394Y-2.8
X4.5406Y-2.9004
X4.5437Y-2.5067
X4.5504Y-3.1012
X4.5882Y-3.9354
X4.5886Y-4.1039
X4.6102Y-1.3791
X4.6382Y-3.8724
X4.6425Y-4.1067
X4.8Y-3.4768
X4.8587Y-4.1335
X4.8606Y-3.3327
X4.9039Y-4.087
X4.9193Y-5.2039
X4.9524Y-3.9685
X4.9591Y-2.5256
X4.961Y-4.0236
X4.9697Y-3.4705
X4.9787Y-3.5677
X4.989Y-3.524
X4.9929Y-3.6972
X4.9953Y-3.4248
X5.0272Y-5.3098
X5.1929Y-3.6291
X5.211Y-3.0512
X5.2228Y-3.5594
X5.2429Y-3.8177
X5.2949Y-3.8866
X5.3807Y-3.1358
X5.4472Y-4.9894
X5.5118Y-3.7791
X5.5189Y-3.8894
X5.5472Y-3.8094
X5.5701Y-4.2976
X5.5772Y-4.1933
X5.5921Y-3.8874
X5.6004Y-2.9665
X5.6043Y-4.3445
X5.6224Y-3.9307
X5.6665Y-4.0937
X5.6839Y-2.2071
X5.7071Y-4.0913
X5.7311Y-3.4465
X5.7354Y-3.5618
X5.7965Y-2.2343
X5.8248Y-4.1232
X5.8913Y-2.2673
X6.Y-2.3008
X6.0614Y-4.5394
X6.0961Y-2.3429
X6.1102Y-2.9551
X6.1236Y-4.5551
X6.1457Y-2.9646
X6.1622Y-4.5343
X6.187Y-2.9634
X6.189Y-4.3433
X6.2161Y-5.2724
X6.2217Y-2.9697
X6.2425Y-3.7071
X6.2634Y-2.9693
X6.3252Y-2.9878
X6.326Y-3.1075
X6.3677Y-3.598
X6.3728Y-3.0087
X6.3783Y-3.0984
X6.5327Y-3.5854
X6.5945Y-3.5728
X6.6Y-3.8366
X6.8756Y-4.6634
X6.9224Y-2.8016
X6.9268Y-2.726
X6.9575Y-3.1031
X7.0004Y-5.2709
X7.2028Y-4.3571
X7.2701Y-3.5673
X7.2799Y-3.6366
X7.3504Y-4.5
X7.3512Y-3.5248
X7.3591Y-2.25
X7.3677Y-2.5508
X7.3898Y-2.6244
X7.452Y-2.2154
X7.4835Y-2.5563
X7.485Y-2.4555
X7.5602Y-2.2429
X7.5941Y-3.8839
X7.8222Y-3.8713
X7.9165Y-2.224
X7.9783Y-2.0835
X7.9894Y-2.2287
X8.0504Y-2.0984
X8.2484Y-3.0606
T2
X3.4244Y-4.4094
X3.4244Y-4.4594
X3.4744Y-4.4094
X3.4744Y-4.4594
X3.5244Y-4.4094
X3.5244Y-4.4594
X3.5744Y-4.4094
X3.5744Y-4.4594
X3.6244Y-4.4094
X3.6244Y-4.4594
X3.6744Y-4.4094
X3.6744Y-4.4594
X3.7244Y-4.4094
X3.7244Y-4.4594
X3.7744Y-4.4094
X3.7744Y-4.4594
X3.8244Y-4.4094
X3.8244Y-4.4594
X3.8744Y-4.4094
X3.8744Y-4.4594
X3.9244Y-4.4094
X3.9244Y-4.4594
X3.9744Y-4.4094
X3.9744Y-4.4594
X4.0244Y-4.4094
X4.0244Y-4.4594
X4.0744Y-4.4094
X4.0744Y-4.4594
X4.1244Y-4.4094
X4.1244Y-4.4594
X4.1744Y-4.4094
X4.1744Y-4.4594
X4.2244Y-4.4094
X4.2244Y-4.4594
X4.2744Y-4.4094
X4.2744Y-4.4594
X4.3244Y-4.4094
X4.3244Y-4.4594
X4.3744Y-4.4094
X4.3744Y-4.4594
X4.4244Y-4.4094
X4.4244Y-4.4594
X4.4744Y-4.4094
X4.4744Y-4.4594
X4.5244Y-4.4094
X4.5244Y-4.4594
X4.5744Y-4.4094
X4.5744Y-4.4594
X4.6244Y-4.4094
X4.6244Y-4.4594
T3
X0.8122Y-4.6276
X0.8437Y-4.2177
X0.8437Y-4.5177
X0.9713Y-4.2165
X0.9713Y-4.5165
X0.9992Y-3.2236
X0.9992Y-3.3236
X0.9992Y-3.4236
X0.9992Y-3.5236
X0.9992Y-3.6236
X0.9992Y-3.7236
X0.9992Y-3.8236
X0.9992Y-3.9236
X1.1122Y-4.6276
X1.2071Y-5.4224
X1.2539Y-4.5992
X1.2539Y-4.8992
X1.2563Y-5.0098
X1.2563Y-5.3098
X1.2992Y-3.2236
X1.2992Y-3.3236
X1.2992Y-3.4236
X1.2992Y-3.5236
X1.2992Y-3.6236
X1.2992Y-3.7236
X1.2992Y-3.8236
X1.2992Y-3.9236
X1.3055Y-5.4224
X1.3087Y-2.9768
X1.3087Y-3.0752
X1.3815Y-4.5992
X1.3815Y-4.8992
X1.387Y-5.0063
X1.387Y-5.3063
X1.513Y-4.5606
X1.513Y-4.8606
X1.5469Y-3.2209
X1.5469Y-3.3209
X1.5469Y-3.4209
X1.5469Y-3.5209
X1.5469Y-3.6209
X1.5469Y-3.7209
X1.5469Y-3.8209
X1.5469Y-3.9209
X1.5854Y-2.439
X1.5854Y-2.739
X1.6102Y-1.7752
X1.611Y-1.539
X1.611Y-1.8929
X1.6114Y-1.3728
X1.6138Y-1.6524
X1.6378Y-4.5583
X1.6378Y-4.8583
X1.6567Y-2.0217
X1.6567Y-2.3217
X1.6598Y-5.0571
X1.6598Y-5.1673
X1.713Y-2.4406
X1.713Y-2.7406
X1.7409Y-4.6898
X1.7417Y-4.5598
X1.7425Y-5.1673
X1.8449Y-5.1673
X1.8469Y-3.2209
X1.8469Y-3.3209
X1.8469Y-3.4209
X1.8469Y-3.5209
X1.8469Y-3.6209
X1.8469Y-3.7209
X1.8469Y-3.8209
X1.8469Y-3.9209
X1.8504Y-2.9508
X1.8504Y-3.0492
X1.86Y-2.1231
X1.86Y-2.32
X1.9102Y-1.7752
X1.911Y-1.539
X1.911Y-1.8929
X1.9114Y-1.3728
X1.9138Y-1.6524
X1.9276Y-5.0571
X1.9276Y-5.1673
X2.0276Y-1.2618
X2.0299Y-1.1307
X2.03Y-1.41
X2.0409Y-4.6898
X2.0417Y-4.5598
X2.0878Y-2.7094
X2.0878Y-3.0094
X2.2055Y-2.6728
X2.2055Y-2.9728
X2.2269Y-1.41
X2.3276Y-1.2618
X2.3299Y-1.1307
X2.4327Y-2.4535
X2.4327Y-2.5535
X2.4327Y-2.6535
X2.4327Y-2.7535
X2.4327Y-2.8535
X2.4327Y-2.9535
X2.4327Y-3.0535
X2.4327Y-3.1535
X2.4327Y-3.2535
X2.4327Y-3.3535
X2.4327Y-3.4535
X2.4327Y-3.5535
X2.4327Y-3.6535
X2.4327Y-3.7535
X2.4327Y-3.8535
X2.4327Y-3.9535
X2.4327Y-4.0535
X2.4327Y-4.1535
X2.4327Y-4.2535
X2.4327Y-4.3535
X2.6201Y-1.3772
X2.6224Y-1.5217
X2.6224Y-1.8217
X2.6291Y-4.9291
X2.63Y-5.05
X2.7185Y-1.3772
X2.7224Y-1.5217
X2.7224Y-1.8217
X2.8224Y-1.5217
X2.8224Y-1.8217
X2.9224Y-1.5217
X2.9224Y-1.8217
X2.9291Y-4.9291
X2.93Y-5.05
X3.0224Y-1.5217
X3.0224Y-1.8217
X3.0327Y-2.4535
X3.0327Y-2.5535
X3.0327Y-2.6535
X3.0327Y-2.7535
X3.0327Y-2.8535
X3.0327Y-2.9535
X3.0327Y-3.0535
X3.0327Y-3.1535
X3.0327Y-3.2535
X3.0327Y-3.3535
X3.0327Y-3.4535
X3.0327Y-3.5535
X3.0327Y-3.6535
X3.0327Y-3.7535
X3.0327Y-3.8535
X3.0327Y-3.9535
X3.0327Y-4.0535
X3.0327Y-4.1535
X3.0327Y-4.2535
X3.0327Y-4.3535
X3.1224Y-1.5217
X3.1224Y-1.8217
X3.1591Y-3.828
X3.1591Y-3.9264
X3.1756Y-2.8079
X3.1756Y-3.1079
X3.2224Y-1.5217
X3.2224Y-1.8217
X3.27Y-2.38
X3.27Y-2.48
X3.27Y-2.58
X3.3031Y-2.8079
X3.3031Y-3.1079
X3.3094Y-1.276
X3.3539Y-1.9217
X3.3539Y-2.2217
X3.3689Y-1.4488
X3.3689Y-1.7488
X3.4079Y-1.276
X3.4343Y-2.4551
X3.4343Y-2.5551
X3.4343Y-2.6551
X3.4343Y-2.7551
X3.4343Y-2.8551
X3.4343Y-2.9551
X3.4343Y-3.0551
X3.4343Y-3.1551
X3.4343Y-3.2551
X3.4343Y-3.3551
X3.4343Y-3.4551
X3.4343Y-3.5551
X3.4343Y-3.6551
X3.4343Y-3.7551
X3.5087Y-1.7189
X3.5087Y-1.9157
X3.5531Y-1.2776
X3.5531Y-1.5776
X3.6417Y-1.7744
X3.6531Y-1.2776
X3.6531Y-1.5776
X3.7488Y-1.9063
X3.7531Y-1.2776
X3.7531Y-1.5776
X3.8531Y-1.2776
X3.8531Y-1.5776
X3.9417Y-1.7744
X3.9457Y-1.9063
X3.9531Y-1.2776
X3.9531Y-1.5776
X3.9575Y-4.1504
X4.0256Y-1.7161
X4.0343Y-2.4551
X4.0343Y-2.5551
X4.0343Y-2.6551
X4.0343Y-2.7551
X4.0343Y-2.8551
X4.0343Y-2.9551
X4.0343Y-3.0551
X4.0343Y-3.1551
X4.0343Y-3.2551
X4.0343Y-3.3551
X4.0343Y-3.4551
X4.0343Y-3.5551
X4.0343Y-3.6551
X4.0343Y-3.7551
X4.035Y-2.213
X4.035Y-2.3114
X4.0531Y-1.2776
X4.0531Y-1.5776
X4.0559Y-4.1504
X4.1264Y-1.8839
X4.1531Y-1.2776
X4.1531Y-1.5776
X4.3047Y-4.1933
X4.3185Y-1.8839
X4.3256Y-1.7161
X4.3854Y-1.2913
X4.3854Y-1.3898
X4.5Y-2.45
X4.5Y-2.55
X4.5Y-2.65
X4.5Y-2.75
X4.5Y-2.85
X4.5Y-2.95
X4.5Y-3.05
X4.5Y-3.15
X4.5Y-3.25
X4.5Y-3.35
X4.5Y-3.45
X4.5Y-3.55
X4.5Y-3.65
X4.5Y-3.75
X4.5Y-3.85
X4.5Y-3.95
X4.5016Y-1.8854
X4.5673Y-1.2783
X4.5673Y-1.5783
X4.6047Y-4.1933
X4.6673Y-1.2783
X4.6673Y-1.5783
X4.6984Y-1.8854
X4.7673Y-1.2783
X4.7673Y-1.5783
X4.8673Y-1.2783
X4.8673Y-1.5783
X4.9106Y-4.3492
X4.9177Y-4.4799
X4.9673Y-1.2783
X4.9673Y-1.5783
X4.9976Y-4.7358
X4.9976Y-5.0358
X5.0673Y-1.2783
X5.0673Y-1.5783
X5.0976Y-4.7358
X5.0976Y-5.0358
X5.1Y-2.45
X5.1Y-2.55
X5.1Y-2.65
X5.1Y-2.75
X5.1Y-2.85
X5.1Y-2.95
X5.1Y-3.05
X5.1Y-3.15
X5.1Y-3.25
X5.1Y-3.35
X5.1Y-3.45
X5.1Y-3.55
X5.1Y-3.65
X5.1Y-3.75
X5.1Y-3.85
X5.1Y-3.95
X5.1307Y-4.6122
X5.1673Y-1.2783
X5.1673Y-1.5783
X5.1976Y-4.7358
X5.1976Y-5.0358
X5.2106Y-4.3492
X5.2177Y-4.4799
X5.2287Y-2.4433
X5.2291Y-4.6122
X5.2976Y-4.7358
X5.2976Y-5.0358
X5.3209Y-3.4555
X5.3209Y-3.5539
X5.3228Y-4.0713
X5.3228Y-4.3713
X5.3272Y-2.4433
X5.3976Y-4.7358
X5.3976Y-5.0358
X5.45Y-2.45
X5.45Y-2.55
X5.45Y-2.65
X5.45Y-2.75
X5.45Y-2.85
X5.45Y-2.95
X5.45Y-3.05
X5.45Y-3.15
X5.45Y-3.25
X5.45Y-3.35
X5.45Y-3.45
X5.45Y-3.55
X5.45Y-3.65
X5.45Y-3.75
X5.45Y-3.85
X5.45Y-3.95
X5.45Y-4.05
X5.45Y-4.15
X5.45Y-4.25
X5.45Y-4.35
X5.4878Y-1.726
X5.4878Y-1.8244
X5.4976Y-4.7358
X5.4976Y-5.0358
X5.5976Y-4.7358
X5.5976Y-5.0358
X5.6803Y-1.6484
X5.6803Y-1.9484
X5.7803Y-1.6484
X5.7803Y-1.9484
X5.8803Y-1.6484
X5.8803Y-1.9484
X5.9169Y-4.6563
X5.9169Y-4.7547
X5.9803Y-1.6484
X5.9803Y-1.9484
X6.0421Y-4.7311
X6.0421Y-5.0311
X6.05Y-2.45
X6.05Y-2.55
X6.05Y-2.65
X6.05Y-2.75
X6.05Y-2.85
X6.05Y-2.95
X6.05Y-3.05
X6.05Y-3.15
X6.05Y-3.25
X6.05Y-3.35
X6.05Y-3.45
X6.05Y-3.55
X6.05Y-3.65
X6.05Y-3.75
X6.05Y-3.85
X6.05Y-3.95
X6.05Y-4.05
X6.05Y-4.15
X6.05Y-4.25
X6.05Y-4.35
X6.0803Y-1.6484
X6.0803Y-1.9484
X6.1421Y-4.7311
X6.1421Y-5.0311
X6.1803Y-1.6484
X6.1803Y-1.9484
X6.2421Y-4.7311
X6.2421Y-5.0311
X6.2803Y-1.6484
X6.2803Y-1.9484
X6.3421Y-4.7311
X6.3421Y-5.0311
X6.3803Y-1.6484
X6.3803Y-1.9484
X6.4421Y-4.7311
X6.4421Y-5.0311
X6.45Y-2.45
X6.45Y-2.55
X6.45Y-2.65
X6.45Y-2.75
X6.45Y-2.85
X6.45Y-2.95
X6.45Y-3.05
X6.45Y-3.15
X6.45Y-3.25
X6.45Y-3.35
X6.45Y-3.45
X6.45Y-3.55
X6.45Y-3.65
X6.45Y-3.75
X6.45Y-3.85
X6.45Y-3.95
X6.45Y-4.05
X6.45Y-4.15
X6.45Y-4.25
X6.45Y-4.35
X6.5421Y-4.7311
X6.5421Y-5.0311
X6.6421Y-4.7311
X6.6421Y-5.0311
X6.7921Y-4.7146
X6.7921Y-5.0146
X6.8531Y-1.911
X6.9516Y-1.911
X7.0079Y-5.0925
X7.0079Y-5.3925
X7.05Y-2.45
X7.05Y-2.55
X7.05Y-2.65
X7.05Y-2.75
X7.05Y-2.85
X7.05Y-2.95
X7.05Y-3.05
X7.05Y-3.15
X7.05Y-3.25
X7.05Y-3.35
X7.05Y-3.45
X7.05Y-3.55
X7.05Y-3.65
X7.05Y-3.75
X7.05Y-3.85
X7.05Y-3.95
X7.05Y-4.05
X7.05Y-4.15
X7.05Y-4.25
X7.05Y-4.35
X7.19Y-3.6
X7.19Y-3.6984
X7.22Y-5.12
X7.3902Y-3.7752
X7.3902Y-3.8752
X7.3902Y-3.9752
X7.3902Y-4.0752
X7.3902Y-4.1752
X7.3902Y-4.2752
X7.3902Y-4.3752
X7.4756Y-4.552
X7.52Y-5.12
X7.574Y-4.552
X7.6902Y-3.7752
X7.6902Y-3.8752
X7.6902Y-3.9752
X7.6902Y-4.0752
X7.6902Y-4.1752
X7.6902Y-4.2752
X7.6902Y-4.3752
X7.8465Y-1.3425
X7.8976Y-3.9165
X7.9311Y-1.5157
X7.95Y-4.128
X7.95Y-4.3201
X7.976Y-3.6937
X7.9961Y-3.9165
X8.02Y-2.69
X8.02Y-2.79
X8.02Y-2.89
X8.02Y-2.99
X8.02Y-3.09
X8.02Y-3.19
X8.02Y-3.29
X8.02Y-3.39
X8.0295Y-1.5157
X8.0744Y-3.6937
X8.1319Y-1.1791
X8.1346Y-1.0681
X8.1465Y-1.3425
X8.1642Y-4.1417
X8.1665Y-4.3343
X8.1673Y-1.5768
X8.1673Y-1.8768
X8.2047Y-3.6929
X8.2445Y-1.9756
X8.2816Y-2.43
X8.2961Y-1.5756
X8.2961Y-1.8756
X8.3031Y-3.6929
X8.32Y-2.69
X8.32Y-2.79
X8.32Y-2.89
X8.32Y-2.99
X8.32Y-3.09
X8.32Y-3.19
X8.32Y-3.29
X8.32Y-3.39
X8.3429Y-1.9756
X8.361Y-4.1417
X8.3634Y-4.3343
X8.38Y-2.43
X8.4272Y-1.5728
X8.4272Y-1.8728
X8.4319Y-1.1791
X8.4319Y-3.6937
X8.4346Y-1.0681
X8.4921Y-4.0965
X8.4921Y-4.3965
X8.5303Y-3.6937
X8.6583Y-3.6953
X8.7567Y-3.6953
T4
X4.0248Y-3.9831
X4.1248Y-3.9831
X8.2551Y-1.3366
X8.3551Y-1.3366
T5
X1.1209Y-4.2598
X1.2209Y-4.2598
X1.3209Y-4.2598
X1.4209Y-4.2598
X1.5209Y-4.2598
X1.6209Y-4.2598
X1.7209Y-4.2598
X1.8209Y-4.2598
X2.1272Y-3.2567
X2.1272Y-3.3567
X2.1272Y-3.4567
X2.1272Y-3.5567
X2.1272Y-3.6567
X2.1272Y-3.7567
X2.1272Y-3.8567
X2.1272Y-3.9567
X2.1272Y-4.0567
X2.1272Y-4.1567
X2.19Y-4.67
X2.2835Y-2.1921
X2.29Y-4.67
X2.3835Y-2.1921
X2.39Y-4.67
X2.4228Y-5.285
X2.4835Y-2.1921
X2.49Y-4.67
X2.5228Y-5.285
X2.5835Y-2.1921
X2.59Y-4.67
X2.6228Y-5.285
X2.6835Y-2.1921
X2.69Y-4.67
X2.7228Y-5.285
X2.7835Y-2.1921
X2.79Y-4.67
X2.8835Y-2.1921
X2.89Y-4.67
X2.9283Y-1.3035
X2.9835Y-2.1921
X2.99Y-4.67
X3.0283Y-1.3035
X3.0835Y-2.1921
X3.09Y-4.67
X3.1283Y-1.3035
X3.1835Y-2.1921
X3.5673Y-2.1713
X3.6673Y-2.1713
X3.7673Y-2.1713
X5.3858Y-4.5717
X5.4858Y-4.5717
X5.5858Y-4.5717
X7.2705Y-2.3264
X7.2705Y-2.4264
X7.2709Y-2.6795
X7.2709Y-2.7795
X7.2709Y-2.8795
X7.2709Y-2.9795
X7.2709Y-3.0795
X7.2709Y-3.1795
X7.4327Y-1.8661
X7.5327Y-1.8661
X7.58Y-3.01
X7.58Y-3.11
X7.58Y-3.33
X7.58Y-3.43
X7.58Y-3.53
X7.6327Y-1.8661
X7.6598Y-2.6535
X7.6598Y-2.8504
X7.7598Y-2.6535
X7.7598Y-2.8504
X7.88Y-2.46
X7.98Y-2.46
X8.08Y-2.46
X8.6024Y-2.6476
X8.6024Y-2.7567
X8.6024Y-2.8657
X8.6024Y-2.9748
X8.6024Y-3.0839
X8.6717Y-1.5646
X8.6717Y-1.6646
X8.6717Y-1.7646
X8.6717Y-1.8646
X8.7142Y-2.7022
X8.7142Y-2.8112
X8.7142Y-2.9203
X8.7142Y-3.0293
X8.7717Y-1.5646
X8.7717Y-1.6646
X8.7717Y-1.7646
X8.7717Y-1.8646
T6
X6.9146Y-4.7327
X6.9146Y-4.9886
X7.0917Y-4.7327
X7.0917Y-4.9886
X7.2413Y-4.7303
X7.2413Y-4.9862
X7.4185Y-4.7303
X7.4185Y-4.9862
T8
X8.6142Y-2.3736
X8.6142Y-3.3579
T5
X1.524Y-5.25G85X1.524Y-5.3091
G05
X1.7543Y-5.311G85X1.8331Y-5.311
G05
X2.0634Y-5.25G85X2.0634Y-5.3091
G05
X6.6819Y-1.4874G85X6.6819Y-1.5661
G05
X6.9063Y-1.4087G85X6.8276Y-1.4087
G05
X6.9063Y-1.6449G85X6.8276Y-1.6449
G05
T7
X0.935Y-4.9665G85X0.935Y-4.9272
G05
X1.1122Y-4.9469G85X1.1516Y-4.9469
G05
T0
M30
