G04 #@! TF.FileFunction,Soldermask,Bot*
%FSLAX46Y46*%
G04 Gerber Fmt 4.6, Leading zero omitted, Abs format (unit mm)*
G04 Created by KiCad (PCBNEW 4.0.7) date 07/31/21 23:47:34*
%MOMM*%
%LPD*%
G01*
G04 APERTURE LIST*
%ADD10C,0.100000*%
%ADD11O,2.400000X3.900000*%
%ADD12R,2.000000X2.000000*%
%ADD13C,2.000000*%
%ADD14O,4.400000X2.400000*%
%ADD15O,2.000000X2.000000*%
%ADD16R,2.100000X2.100000*%
%ADD17O,2.100000X2.100000*%
%ADD18C,4.400000*%
%ADD19R,2.200000X2.200000*%
%ADD20C,2.200000*%
%ADD21C,2.400000*%
%ADD22O,2.200000X2.200000*%
%ADD23C,1.400000*%
%ADD24C,1.900000*%
%ADD25R,3.900000X3.900000*%
%ADD26R,1.400000X1.400000*%
%ADD27O,1.400000X1.400000*%
%ADD28C,3.600000*%
%ADD29O,2.400000X2.400000*%
%ADD30O,2.900000X3.900000*%
%ADD31O,3.900000X2.900000*%
%ADD32C,1.920000*%
%ADD33R,1.920000X1.920000*%
G04 APERTURE END LIST*
D10*
D11*
X38710000Y-134100000D03*
X52410000Y-134100000D03*
D12*
X46860000Y-131250000D03*
D13*
X44260000Y-131250000D03*
X48960000Y-131250000D03*
X42160000Y-131250000D03*
X48960000Y-128450000D03*
X42160000Y-128450000D03*
D14*
X45560000Y-134900000D03*
D13*
X130320000Y-117150000D03*
X132820000Y-117150000D03*
D12*
X179070000Y-110490000D03*
D15*
X163830000Y-62230000D03*
X179070000Y-107950000D03*
X163830000Y-64770000D03*
X179070000Y-105410000D03*
X163830000Y-67310000D03*
X179070000Y-102870000D03*
X163830000Y-69850000D03*
X179070000Y-100330000D03*
X163830000Y-72390000D03*
X179070000Y-97790000D03*
X163830000Y-74930000D03*
X179070000Y-95250000D03*
X163830000Y-77470000D03*
X179070000Y-92710000D03*
X163830000Y-80010000D03*
X179070000Y-90170000D03*
X163830000Y-82550000D03*
X179070000Y-87630000D03*
X163830000Y-85090000D03*
X179070000Y-85090000D03*
X163830000Y-87630000D03*
X179070000Y-82550000D03*
X163830000Y-90170000D03*
X179070000Y-80010000D03*
X163830000Y-92710000D03*
X179070000Y-77470000D03*
X163830000Y-95250000D03*
X179070000Y-74930000D03*
X163830000Y-97790000D03*
X179070000Y-72390000D03*
X163830000Y-100330000D03*
X179070000Y-69850000D03*
X163830000Y-102870000D03*
X179070000Y-67310000D03*
X163830000Y-105410000D03*
X179070000Y-64770000D03*
X163830000Y-107950000D03*
X179070000Y-62230000D03*
X163830000Y-110490000D03*
D16*
X194010000Y-81610000D03*
D17*
X191470000Y-81610000D03*
D12*
X218500000Y-67250000D03*
D13*
X218500000Y-70020000D03*
X218500000Y-72790000D03*
X218500000Y-75560000D03*
X218500000Y-78330000D03*
X221340000Y-68635000D03*
X221340000Y-71405000D03*
X221340000Y-74175000D03*
X221340000Y-76945000D03*
D18*
X218800000Y-85290000D03*
X218800000Y-60290000D03*
D12*
X126940000Y-127910000D03*
D15*
X142180000Y-120290000D03*
X129480000Y-127910000D03*
X139640000Y-120290000D03*
X132020000Y-127910000D03*
X137100000Y-120290000D03*
X134560000Y-127910000D03*
X134560000Y-120290000D03*
X137100000Y-127910000D03*
X132020000Y-120290000D03*
X139640000Y-127910000D03*
X129480000Y-120290000D03*
X142180000Y-127910000D03*
X126940000Y-120290000D03*
D12*
X205660000Y-58940000D03*
D13*
X208160000Y-58940000D03*
D12*
X197400000Y-88540000D03*
D13*
X199900000Y-88540000D03*
D12*
X209210000Y-88470000D03*
D13*
X211710000Y-88470000D03*
D12*
X203300000Y-88510000D03*
D13*
X205800000Y-88510000D03*
X207430000Y-110090000D03*
X212430000Y-110090000D03*
X207370000Y-105200000D03*
X212370000Y-105200000D03*
D12*
X193480000Y-87510000D03*
D13*
X190980000Y-87510000D03*
X89120000Y-43660000D03*
X89120000Y-48660000D03*
D12*
X174070000Y-48540000D03*
D13*
X176570000Y-48540000D03*
D12*
X201450000Y-38500000D03*
D13*
X203950000Y-38500000D03*
X47244000Y-58928000D03*
X47244000Y-53928000D03*
X100220000Y-48420000D03*
X95220000Y-48420000D03*
X114340000Y-47890000D03*
X119340000Y-47890000D03*
X51562000Y-35814000D03*
X56562000Y-35814000D03*
D12*
X173400000Y-129810000D03*
D15*
X181020000Y-129810000D03*
D19*
X212220000Y-33950000D03*
D20*
X209680000Y-33950000D03*
D19*
X104770000Y-101170000D03*
D20*
X102230000Y-101170000D03*
D12*
X40900000Y-45090000D03*
D15*
X48520000Y-45090000D03*
D12*
X40920000Y-48080000D03*
D15*
X48540000Y-48080000D03*
D12*
X40990000Y-41970000D03*
D15*
X48610000Y-41970000D03*
D12*
X40920000Y-39090000D03*
D15*
X48540000Y-39090000D03*
D12*
X138430000Y-62230000D03*
D15*
X153670000Y-110490000D03*
X138430000Y-64770000D03*
X153670000Y-107950000D03*
X138430000Y-67310000D03*
X153670000Y-105410000D03*
X138430000Y-69850000D03*
X153670000Y-102870000D03*
X138430000Y-72390000D03*
X153670000Y-100330000D03*
X138430000Y-74930000D03*
X153670000Y-97790000D03*
X138430000Y-77470000D03*
X153670000Y-95250000D03*
X138430000Y-80010000D03*
X153670000Y-92710000D03*
X138430000Y-82550000D03*
X153670000Y-90170000D03*
X138430000Y-85090000D03*
X153670000Y-87630000D03*
X138430000Y-87630000D03*
X153670000Y-85090000D03*
X138430000Y-90170000D03*
X153670000Y-82550000D03*
X138430000Y-92710000D03*
X153670000Y-80010000D03*
X138430000Y-95250000D03*
X153670000Y-77470000D03*
X138430000Y-97790000D03*
X153670000Y-74930000D03*
X138430000Y-100330000D03*
X153670000Y-72390000D03*
X138430000Y-102870000D03*
X153670000Y-69850000D03*
X138430000Y-105410000D03*
X153670000Y-67310000D03*
X138430000Y-107950000D03*
X153670000Y-64770000D03*
X138430000Y-110490000D03*
X153670000Y-62230000D03*
D16*
X184680000Y-68060000D03*
D17*
X184680000Y-70600000D03*
X184680000Y-73140000D03*
X184680000Y-75680000D03*
X184680000Y-78220000D03*
X184680000Y-80760000D03*
D16*
X46250000Y-108200000D03*
D17*
X43710000Y-108200000D03*
X41170000Y-108200000D03*
X38630000Y-108200000D03*
X36090000Y-108200000D03*
X33550000Y-108200000D03*
X31010000Y-108200000D03*
X28470000Y-108200000D03*
D16*
X185420000Y-59380000D03*
D17*
X185420000Y-61920000D03*
D16*
X74380000Y-33110000D03*
D17*
X76920000Y-33110000D03*
X79460000Y-33110000D03*
D16*
X194080000Y-72730000D03*
D17*
X191540000Y-72730000D03*
D16*
X194080000Y-77110000D03*
D17*
X191540000Y-77110000D03*
D16*
X141880000Y-116120000D03*
D17*
X139340000Y-116120000D03*
X136800000Y-116120000D03*
D13*
X170690000Y-138140000D03*
D15*
X170690000Y-130520000D03*
D13*
X183680000Y-137800000D03*
D15*
X183680000Y-130180000D03*
D13*
X135200000Y-111030000D03*
D15*
X135200000Y-103410000D03*
D13*
X66780000Y-125200000D03*
D15*
X74400000Y-125200000D03*
D13*
X66802000Y-128270000D03*
D15*
X74422000Y-128270000D03*
D13*
X215700000Y-104050000D03*
D15*
X215700000Y-111670000D03*
D13*
X132530000Y-113790000D03*
D15*
X124910000Y-113790000D03*
D13*
X132350000Y-110470000D03*
D15*
X124730000Y-110470000D03*
D13*
X206920000Y-34100000D03*
D15*
X199300000Y-34100000D03*
D13*
X116960000Y-106510000D03*
D15*
X109340000Y-106510000D03*
D13*
X31850000Y-116820000D03*
D15*
X31850000Y-124440000D03*
D13*
X31910000Y-134870000D03*
D15*
X31910000Y-127250000D03*
D13*
X85570000Y-44420000D03*
D15*
X85570000Y-36800000D03*
D13*
X40270000Y-61950000D03*
D15*
X40270000Y-69570000D03*
D13*
X43510000Y-69610000D03*
D15*
X43510000Y-61990000D03*
D13*
X59120000Y-32050000D03*
D15*
X51500000Y-32050000D03*
D13*
X59180000Y-28720000D03*
D15*
X51560000Y-28720000D03*
D13*
X42080000Y-51350000D03*
D15*
X42080000Y-58970000D03*
D13*
X102250000Y-43590000D03*
D15*
X109870000Y-43590000D03*
D13*
X100120000Y-45070000D03*
D15*
X92500000Y-45070000D03*
D13*
X35090000Y-116820000D03*
D15*
X35090000Y-124440000D03*
D13*
X35230000Y-134780000D03*
D15*
X35230000Y-127160000D03*
D13*
X40930000Y-34870000D03*
D15*
X48550000Y-34870000D03*
D21*
X180130000Y-126710000D03*
X175630000Y-126710000D03*
X180130000Y-120210000D03*
X175630000Y-120210000D03*
X188430000Y-126650000D03*
X183930000Y-126650000D03*
X188430000Y-120150000D03*
X183930000Y-120150000D03*
D12*
X114300000Y-62230000D03*
D15*
X129540000Y-100330000D03*
X114300000Y-64770000D03*
X129540000Y-97790000D03*
X114300000Y-67310000D03*
X129540000Y-95250000D03*
X114300000Y-69850000D03*
X129540000Y-92710000D03*
X114300000Y-72390000D03*
X129540000Y-90170000D03*
X114300000Y-74930000D03*
X129540000Y-87630000D03*
X114300000Y-77470000D03*
X129540000Y-85090000D03*
X114300000Y-80010000D03*
X129540000Y-82550000D03*
X114300000Y-82550000D03*
X129540000Y-80010000D03*
X114300000Y-85090000D03*
X129540000Y-77470000D03*
X114300000Y-87630000D03*
X129540000Y-74930000D03*
X114300000Y-90170000D03*
X129540000Y-72390000D03*
X114300000Y-92710000D03*
X129540000Y-69850000D03*
X114300000Y-95250000D03*
X129540000Y-67310000D03*
X114300000Y-97790000D03*
X129540000Y-64770000D03*
X114300000Y-100330000D03*
X129540000Y-62230000D03*
D12*
X87230000Y-62360000D03*
D15*
X102470000Y-95380000D03*
X87230000Y-64900000D03*
X102470000Y-92840000D03*
X87230000Y-67440000D03*
X102470000Y-90300000D03*
X87230000Y-69980000D03*
X102470000Y-87760000D03*
X87230000Y-72520000D03*
X102470000Y-85220000D03*
X87230000Y-75060000D03*
X102470000Y-82680000D03*
X87230000Y-77600000D03*
X102470000Y-80140000D03*
X87230000Y-80140000D03*
X102470000Y-77600000D03*
X87230000Y-82680000D03*
X102470000Y-75060000D03*
X87230000Y-85220000D03*
X102470000Y-72520000D03*
X87230000Y-87760000D03*
X102470000Y-69980000D03*
X87230000Y-90300000D03*
X102470000Y-67440000D03*
X87230000Y-92840000D03*
X102470000Y-64900000D03*
X87230000Y-95380000D03*
X102470000Y-62360000D03*
D19*
X188790000Y-47400000D03*
D22*
X191330000Y-47400000D03*
X193870000Y-47400000D03*
D12*
X195330000Y-111130000D03*
D15*
X187710000Y-95890000D03*
X195330000Y-108590000D03*
X187710000Y-98430000D03*
X195330000Y-106050000D03*
X187710000Y-100970000D03*
X195330000Y-103510000D03*
X187710000Y-103510000D03*
X195330000Y-100970000D03*
X187710000Y-106050000D03*
X195330000Y-98430000D03*
X187710000Y-108590000D03*
X195330000Y-95890000D03*
X187710000Y-111130000D03*
D12*
X153470000Y-127790000D03*
D15*
X168710000Y-120170000D03*
X156010000Y-127790000D03*
X166170000Y-120170000D03*
X158550000Y-127790000D03*
X163630000Y-120170000D03*
X161090000Y-127790000D03*
X161090000Y-120170000D03*
X163630000Y-127790000D03*
X158550000Y-120170000D03*
X166170000Y-127790000D03*
X156010000Y-120170000D03*
X168710000Y-127790000D03*
X153470000Y-120170000D03*
D12*
X61790000Y-62320000D03*
D15*
X77030000Y-110580000D03*
X61790000Y-64860000D03*
X77030000Y-108040000D03*
X61790000Y-67400000D03*
X77030000Y-105500000D03*
X61790000Y-69940000D03*
X77030000Y-102960000D03*
X61790000Y-72480000D03*
X77030000Y-100420000D03*
X61790000Y-75020000D03*
X77030000Y-97880000D03*
X61790000Y-77560000D03*
X77030000Y-95340000D03*
X61790000Y-80100000D03*
X77030000Y-92800000D03*
X61790000Y-82640000D03*
X77030000Y-90260000D03*
X61790000Y-85180000D03*
X77030000Y-87720000D03*
X61790000Y-87720000D03*
X77030000Y-85180000D03*
X61790000Y-90260000D03*
X77030000Y-82640000D03*
X61790000Y-92800000D03*
X77030000Y-80100000D03*
X61790000Y-95340000D03*
X77030000Y-77560000D03*
X61790000Y-97880000D03*
X77030000Y-75020000D03*
X61790000Y-100420000D03*
X77030000Y-72480000D03*
X61790000Y-102960000D03*
X77030000Y-69940000D03*
X61790000Y-105500000D03*
X77030000Y-67400000D03*
X61790000Y-108040000D03*
X77030000Y-64860000D03*
X61790000Y-110580000D03*
X77030000Y-62320000D03*
D12*
X66610000Y-46270000D03*
D15*
X81850000Y-38650000D03*
X69150000Y-46270000D03*
X79310000Y-38650000D03*
X71690000Y-46270000D03*
X76770000Y-38650000D03*
X74230000Y-46270000D03*
X74230000Y-38650000D03*
X76770000Y-46270000D03*
X71690000Y-38650000D03*
X79310000Y-46270000D03*
X69150000Y-38650000D03*
X81850000Y-46270000D03*
X66610000Y-38650000D03*
D12*
X90250000Y-40070000D03*
D15*
X105490000Y-32450000D03*
X92790000Y-40070000D03*
X102950000Y-32450000D03*
X95330000Y-40070000D03*
X100410000Y-32450000D03*
X97870000Y-40070000D03*
X97870000Y-32450000D03*
X100410000Y-40070000D03*
X95330000Y-32450000D03*
X102950000Y-40070000D03*
X92790000Y-32450000D03*
X105490000Y-40070000D03*
X90250000Y-32450000D03*
D12*
X39290000Y-81810000D03*
D15*
X46910000Y-99590000D03*
X39290000Y-84350000D03*
X46910000Y-97050000D03*
X39290000Y-86890000D03*
X46910000Y-94510000D03*
X39290000Y-89430000D03*
X46910000Y-91970000D03*
X39290000Y-91970000D03*
X46910000Y-89430000D03*
X39290000Y-94510000D03*
X46910000Y-86890000D03*
X39290000Y-97050000D03*
X46910000Y-84350000D03*
X39290000Y-99590000D03*
X46910000Y-81810000D03*
D23*
X24130000Y-36690000D03*
X24130000Y-44690000D03*
X24090000Y-55630000D03*
X24090000Y-63630000D03*
D24*
X201930000Y-109730000D03*
X201930000Y-104850000D03*
X104810000Y-47850000D03*
X109690000Y-47850000D03*
D25*
X174420000Y-41780000D03*
X174420000Y-35780000D03*
X169720000Y-38780000D03*
D12*
X144280000Y-49490000D03*
D15*
X162060000Y-41870000D03*
X146820000Y-49490000D03*
X159520000Y-41870000D03*
X149360000Y-49490000D03*
X156980000Y-41870000D03*
X151900000Y-49490000D03*
X154440000Y-41870000D03*
X154440000Y-49490000D03*
X151900000Y-41870000D03*
X156980000Y-49490000D03*
X149360000Y-41870000D03*
X159520000Y-49490000D03*
X146820000Y-41870000D03*
X162060000Y-49490000D03*
X144280000Y-41870000D03*
D12*
X25380000Y-81880000D03*
D15*
X33000000Y-99660000D03*
X25380000Y-84420000D03*
X33000000Y-97120000D03*
X25380000Y-86960000D03*
X33000000Y-94580000D03*
X25380000Y-89500000D03*
X33000000Y-92040000D03*
X25380000Y-92040000D03*
X33000000Y-89500000D03*
X25380000Y-94580000D03*
X33000000Y-86960000D03*
X25380000Y-97120000D03*
X33000000Y-84420000D03*
X25380000Y-99660000D03*
X33000000Y-81880000D03*
D13*
X189880000Y-115620000D03*
X192380000Y-115620000D03*
X200600000Y-99480000D03*
X203100000Y-99480000D03*
X150290000Y-118270000D03*
X150290000Y-120770000D03*
X102490000Y-58710000D03*
X102490000Y-56210000D03*
X132810000Y-62060000D03*
X135310000Y-62060000D03*
X135150000Y-87770000D03*
X135150000Y-90270000D03*
D12*
X208640000Y-82910000D03*
D15*
X201020000Y-65130000D03*
X208640000Y-80370000D03*
X201020000Y-67670000D03*
X208640000Y-77830000D03*
X201020000Y-70210000D03*
X208640000Y-75290000D03*
X201020000Y-72750000D03*
X208640000Y-72750000D03*
X201020000Y-75290000D03*
X208640000Y-70210000D03*
X201020000Y-77830000D03*
X208640000Y-67670000D03*
X201020000Y-80370000D03*
X208640000Y-65130000D03*
X201020000Y-82910000D03*
D13*
X182460000Y-89190000D03*
X182460000Y-86690000D03*
X80240000Y-97230000D03*
X80240000Y-99730000D03*
X139390000Y-43840000D03*
X139390000Y-46340000D03*
X103020000Y-105420000D03*
X100520000Y-105420000D03*
D23*
X86980000Y-113270000D03*
D26*
X86980000Y-112000000D03*
D27*
X88250000Y-113270000D03*
X88250000Y-112000000D03*
X89520000Y-113270000D03*
X89520000Y-112000000D03*
X90790000Y-113270000D03*
X90790000Y-112000000D03*
X92060000Y-113270000D03*
X92060000Y-112000000D03*
X93330000Y-113270000D03*
X93330000Y-112000000D03*
X94600000Y-113270000D03*
X94600000Y-112000000D03*
X95870000Y-113270000D03*
X95870000Y-112000000D03*
X97140000Y-113270000D03*
X97140000Y-112000000D03*
X98410000Y-113270000D03*
X98410000Y-112000000D03*
X99680000Y-113270000D03*
X99680000Y-112000000D03*
X100950000Y-113270000D03*
X100950000Y-112000000D03*
X102220000Y-113270000D03*
X102220000Y-112000000D03*
X103490000Y-113270000D03*
X103490000Y-112000000D03*
X104760000Y-113270000D03*
X104760000Y-112000000D03*
X106030000Y-113270000D03*
X106030000Y-112000000D03*
X107300000Y-113270000D03*
X107300000Y-112000000D03*
X108570000Y-113270000D03*
X108570000Y-112000000D03*
X109840000Y-113270000D03*
X109840000Y-112000000D03*
X111110000Y-113270000D03*
X111110000Y-112000000D03*
X112380000Y-113270000D03*
X112380000Y-112000000D03*
X113650000Y-113270000D03*
X113650000Y-112000000D03*
X114920000Y-113270000D03*
X114920000Y-112000000D03*
X116190000Y-113270000D03*
X116190000Y-112000000D03*
X117460000Y-113270000D03*
X117460000Y-112000000D03*
D13*
X66550000Y-34980000D03*
X69050000Y-34980000D03*
X86560000Y-32410000D03*
X84060000Y-32410000D03*
X47000000Y-77450000D03*
X47000000Y-74950000D03*
X33240000Y-78110000D03*
X33240000Y-75610000D03*
X111390000Y-32800000D03*
X111390000Y-35300000D03*
D12*
X116010000Y-40090000D03*
D15*
X131250000Y-32470000D03*
X118550000Y-40090000D03*
X128710000Y-32470000D03*
X121090000Y-40090000D03*
X126170000Y-32470000D03*
X123630000Y-40090000D03*
X123630000Y-32470000D03*
X126170000Y-40090000D03*
X121090000Y-32470000D03*
X128710000Y-40090000D03*
X118550000Y-32470000D03*
X131250000Y-40090000D03*
X116010000Y-32470000D03*
D16*
X58000000Y-55680000D03*
D17*
X60540000Y-55680000D03*
X63080000Y-55680000D03*
X65620000Y-55680000D03*
X68160000Y-55680000D03*
X70700000Y-55680000D03*
X73240000Y-55680000D03*
X75780000Y-55680000D03*
X78320000Y-55680000D03*
X80860000Y-55680000D03*
D16*
X55626000Y-118618000D03*
D17*
X58166000Y-118618000D03*
X60706000Y-118618000D03*
X63246000Y-118618000D03*
X65786000Y-118618000D03*
X68326000Y-118618000D03*
X70866000Y-118618000D03*
X73406000Y-118618000D03*
X75946000Y-118618000D03*
X78486000Y-118618000D03*
D16*
X54030000Y-105580000D03*
D17*
X54030000Y-103040000D03*
X54030000Y-100500000D03*
X54030000Y-97960000D03*
X54030000Y-95420000D03*
X54030000Y-92880000D03*
X54030000Y-90340000D03*
X54030000Y-87800000D03*
X54030000Y-85260000D03*
X54030000Y-82720000D03*
D28*
X223000000Y-136000000D03*
X23000000Y-136000000D03*
X23000000Y-29000000D03*
X223000000Y-29000000D03*
D12*
X124720000Y-107000000D03*
D15*
X132340000Y-107000000D03*
D16*
X69160000Y-134240000D03*
D17*
X66620000Y-134240000D03*
X64080000Y-134240000D03*
X61540000Y-134240000D03*
D13*
X125460000Y-138380000D03*
D15*
X125460000Y-130760000D03*
D13*
X33160000Y-137730000D03*
X30660000Y-137730000D03*
X38430000Y-115840000D03*
D15*
X38430000Y-123460000D03*
D13*
X41600000Y-115780000D03*
D15*
X41600000Y-123400000D03*
D13*
X44220000Y-119120000D03*
D15*
X51840000Y-119120000D03*
D13*
X44240000Y-115820000D03*
D15*
X51860000Y-115820000D03*
D16*
X90610000Y-55150000D03*
D17*
X93150000Y-55150000D03*
X95690000Y-55150000D03*
D29*
X20250000Y-130150000D03*
X20250000Y-121150000D03*
D30*
X23750000Y-125650000D03*
D31*
X28750000Y-125650000D03*
D13*
X20410000Y-117500000D03*
D15*
X28030000Y-117500000D03*
D13*
X21430000Y-114750000D03*
D15*
X21430000Y-107130000D03*
D13*
X24670000Y-114720000D03*
D15*
X24670000Y-107100000D03*
D13*
X211910000Y-50180000D03*
X209410000Y-50180000D03*
D12*
X214240000Y-27130000D03*
D15*
X206620000Y-27130000D03*
D12*
X214170000Y-29950000D03*
D15*
X206550000Y-29950000D03*
D13*
X207450000Y-47670000D03*
D15*
X207450000Y-40050000D03*
D13*
X210720000Y-47640000D03*
D15*
X210720000Y-40020000D03*
D16*
X222800000Y-39740000D03*
D17*
X220260000Y-39740000D03*
X222800000Y-42280000D03*
X220260000Y-42280000D03*
X222800000Y-44820000D03*
X220260000Y-44820000D03*
X222800000Y-47360000D03*
X220260000Y-47360000D03*
D13*
X85190000Y-48810000D03*
D15*
X85190000Y-56430000D03*
D32*
X83058000Y-62992000D03*
X83058000Y-60452000D03*
D33*
X83058000Y-65532000D03*
D13*
X83900000Y-78940000D03*
D15*
X83900000Y-71320000D03*
D13*
X80660000Y-78940000D03*
D15*
X80660000Y-71320000D03*
D13*
X214050000Y-39950000D03*
D15*
X214050000Y-47570000D03*
M02*
