M48
;DRILL file {KiCad 4.0.7} date 04/20/21 08:22:53
;FORMAT={-:-/ absolute / metric / decimal}
FMAT,2
METRIC,TZ
T1C0.400
T2C0.650
T3C0.800
T4C0.900
T5C1.000
T6C1.100
T7C3.200
%
G90
G05
M71
T1
X29.17Y-88.88
X29.81Y-102.4
X31.36Y-42.85
X31.95Y-39.52
X32.13Y-58.41
X32.17Y-62.22
X32.94Y-56.44
X33.12Y-37.43
X35.8Y-77.44
X36.21Y-99.69
X36.27Y-41.98
X36.49Y-60.66
X37.42Y-74.3
X37.43Y-69.58
X41.76Y-80.09
X45.34Y-77.69
X49.79Y-77.95
X49.91Y-96.94
X50.6Y-104.48
X50.63Y-100.12
X50.64Y-102.7
X50.67Y-106.6
X51.66Y-109.04
X53.84Y-47.5
X55.21Y-108.8
X55.88Y-112.11
X56.57Y-107.2
X58.26Y-51.44
X58.4Y-104.67
X59.93Y-43.96
X65.09Y-41.88
X66.4Y-120.7
X66.63Y-50.66
X67.48Y-28.27
X67.83Y-120.79
X70.84Y-90.26
X70.84Y-94.41
X70.94Y-91.94
X71.03Y-86.45
X71.34Y-84.71
X72.08Y-76.39
X72.1Y-83.85
X72.7Y-77.4
X72.7Y-79.72
X72.75Y-78.23
X77.9Y-35.82
X79.46Y-86.19
X81.31Y-87.69
X81.44Y-82.56
X81.88Y-85.42
X82.42Y-86.78
X82.8Y-100.95
X82.91Y-26.58
X83.17Y-84.47
X83.49Y-94.65
X90.27Y-83.42
X90.58Y-27.53
X93.61Y-115.03
X95.81Y-116.36
X98.3Y-97.8
X98.45Y-130.91
X98.69Y-30.32
X99.06Y-133.88
X99.46Y-116.11
X99.63Y-97.82
X99.83Y-58.67
X99.9Y-130.68
X100.57Y-97.43
X102.23Y-116.46
X102.23Y-133.08
X106.44Y-80.1
X107.21Y-101.53
X107.3Y-72.02
X107.35Y-69.46
X107.35Y-78.39
X107.35Y-79.4
X107.37Y-60.13
X107.37Y-63.49
X107.37Y-70.88
X107.39Y-74.49
X107.4Y-77.24
X107.41Y-65.78
X107.41Y-72.97
X107.41Y-76.1
X108.46Y-103.07
X109.16Y-82.89
X109.3Y-84.02
X110.47Y-98.05
X110.58Y-104.42
X110.96Y-85.12
X111.11Y-95.28
X111.34Y-84.03
X112.06Y-75.59
X112.61Y-105.13
X112.62Y-99.78
X113.37Y-83.86
X113.45Y-66.08
X115.3Y-71.12
X115.33Y-73.67
X115.41Y-63.67
X115.58Y-78.77
X116.54Y-99.96
X116.58Y-104.99
X117.1Y-35.03
X117.81Y-98.36
X117.9Y-104.87
X121.92Y-88.31
X123.41Y-104.99
X123.46Y-84.65
X124.36Y-104.16
X124.95Y-132.18
X125.79Y-100.8
X125.84Y-102.38
X125.96Y-64.15
X126.23Y-88.15
X126.46Y-90.62
X126.72Y-89.51
X126.82Y-93.91
X126.88Y-86.99
X127.69Y-134.87
X131.9Y-92.18
X132.36Y-77.5
X132.66Y-90.41
X133.17Y-96.97
X134.49Y-98.72
X136.67Y-79.65
X138.36Y-126.73
X140.Y-95.99
X140.18Y-98.79
X140.9Y-96.76
X141.48Y-109.16
X141.66Y-106.51
X142.04Y-98.74
X142.25Y-75.35
X142.35Y-110.35
X142.81Y-99.84
X143.93Y-103.98
X144.37Y-56.06
X144.96Y-103.92
X145.57Y-87.54
X145.68Y-90.47
X147.23Y-56.75
X147.95Y-104.73
X149.64Y-57.59
X152.4Y-58.44
X153.96Y-115.3
X154.84Y-59.51
X155.2Y-75.06
X155.54Y-115.7
X156.1Y-75.3
X156.52Y-115.17
X157.15Y-75.27
X157.2Y-110.32
X157.89Y-133.92
X158.03Y-75.43
X158.56Y-94.16
X159.09Y-75.42
X160.66Y-75.89
X160.68Y-78.93
X161.74Y-91.39
X161.87Y-76.42
X162.01Y-78.7
X165.93Y-91.07
X167.5Y-90.75
X167.64Y-97.45
X169.93Y-134.34
X174.64Y-118.45
X175.69Y-73.68
X175.94Y-83.74
X177.84Y-78.79
X191.08Y-55.57
X198.683Y-98.332
T2
X86.98Y-112.
X86.98Y-113.27
X88.25Y-112.
X88.25Y-113.27
X89.52Y-112.
X89.52Y-113.27
X90.79Y-112.
X90.79Y-113.27
X92.06Y-112.
X92.06Y-113.27
X93.33Y-112.
X93.33Y-113.27
X94.6Y-112.
X94.6Y-113.27
X95.87Y-112.
X95.87Y-113.27
X97.14Y-112.
X97.14Y-113.27
X98.41Y-112.
X98.41Y-113.27
X99.68Y-112.
X99.68Y-113.27
X100.95Y-112.
X100.95Y-113.27
X102.22Y-112.
X102.22Y-113.27
X103.49Y-112.
X103.49Y-113.27
X104.76Y-112.
X104.76Y-113.27
X106.03Y-112.
X106.03Y-113.27
X107.3Y-112.
X107.3Y-113.27
X108.57Y-112.
X108.57Y-113.27
X109.84Y-112.
X109.84Y-113.27
X111.11Y-112.
X111.11Y-113.27
X112.38Y-112.
X112.38Y-113.27
X113.65Y-112.
X113.65Y-113.27
X114.92Y-112.
X114.92Y-113.27
X116.19Y-112.
X116.19Y-113.27
X117.46Y-112.
X117.46Y-113.27
T3
X25.38Y-81.88
X25.38Y-84.42
X25.38Y-86.96
X25.38Y-89.5
X25.38Y-92.04
X25.38Y-94.58
X25.38Y-97.12
X25.38Y-99.66
X29.64Y-117.46
X29.64Y-125.08
X29.67Y-127.27
X29.67Y-134.89
X30.66Y-137.73
X32.97Y-127.27
X32.97Y-134.89
X32.99Y-117.4
X32.99Y-125.02
X33.Y-81.88
X33.Y-84.42
X33.Y-86.96
X33.Y-89.5
X33.Y-92.04
X33.Y-94.58
X33.Y-97.12
X33.Y-99.66
X33.16Y-137.73
X33.24Y-75.61
X33.24Y-78.11
X36.8Y-115.67
X36.8Y-123.29
X38.05Y-34.26
X38.05Y-39.26
X38.65Y-53.87
X38.65Y-58.87
X39.29Y-81.81
X39.29Y-84.35
X39.29Y-86.89
X39.29Y-89.43
X39.29Y-91.97
X39.29Y-94.51
X39.29Y-97.05
X39.29Y-99.59
X40.01Y-115.67
X40.01Y-123.29
X40.27Y-61.95
X40.27Y-69.57
X40.9Y-45.09
X40.92Y-39.09
X40.92Y-48.08
X40.93Y-34.87
X40.99Y-41.97
X42.08Y-51.35
X42.08Y-58.97
X42.16Y-128.45
X42.16Y-131.25
X43.21Y-115.75
X43.21Y-119.06
X43.51Y-61.99
X43.51Y-69.61
X44.26Y-131.25
X46.86Y-131.25
X46.91Y-81.81
X46.91Y-84.35
X46.91Y-86.89
X46.91Y-89.43
X46.91Y-91.97
X46.91Y-94.51
X46.91Y-97.05
X46.91Y-99.59
X47.Y-74.95
X47.Y-77.45
X48.52Y-45.09
X48.54Y-39.09
X48.54Y-48.08
X48.55Y-34.87
X48.61Y-41.97
X48.96Y-128.45
X48.96Y-131.25
X50.83Y-115.75
X50.83Y-119.06
X51.5Y-32.05
X51.56Y-28.72
X59.12Y-32.05
X59.18Y-28.72
X61.79Y-62.32
X61.79Y-64.86
X61.79Y-67.4
X61.79Y-69.94
X61.79Y-72.48
X61.79Y-75.02
X61.79Y-77.56
X61.79Y-80.1
X61.79Y-82.64
X61.79Y-85.18
X61.79Y-87.72
X61.79Y-90.26
X61.79Y-92.8
X61.79Y-95.34
X61.79Y-97.88
X61.79Y-100.42
X61.79Y-102.96
X61.79Y-105.5
X61.79Y-108.04
X61.79Y-110.58
X66.55Y-34.98
X66.61Y-38.65
X66.61Y-46.27
X69.05Y-34.98
X69.15Y-38.65
X69.15Y-46.27
X71.69Y-38.65
X71.69Y-46.27
X74.23Y-38.65
X74.23Y-46.27
X75.72Y-127.83
X75.77Y-124.61
X76.77Y-38.65
X76.77Y-46.27
X77.03Y-62.32
X77.03Y-64.86
X77.03Y-67.4
X77.03Y-69.94
X77.03Y-72.48
X77.03Y-75.02
X77.03Y-77.56
X77.03Y-80.1
X77.03Y-82.64
X77.03Y-85.18
X77.03Y-87.72
X77.03Y-90.26
X77.03Y-92.8
X77.03Y-95.34
X77.03Y-97.88
X77.03Y-100.42
X77.03Y-102.96
X77.03Y-105.5
X77.03Y-108.04
X77.03Y-110.58
X79.31Y-38.65
X79.31Y-46.27
X80.24Y-97.23
X80.24Y-99.73
X81.85Y-38.65
X81.85Y-46.27
X83.34Y-127.83
X83.39Y-124.61
X84.06Y-32.41
X85.99Y-40.31
X85.99Y-47.93
X86.56Y-32.41
X87.23Y-62.36
X87.23Y-64.9
X87.23Y-67.44
X87.23Y-69.98
X87.23Y-72.52
X87.23Y-75.06
X87.23Y-77.6
X87.23Y-80.14
X87.23Y-82.68
X87.23Y-85.22
X87.23Y-87.76
X87.23Y-90.3
X87.23Y-92.84
X87.23Y-95.38
X89.12Y-43.66
X89.12Y-48.66
X90.25Y-32.45
X90.25Y-40.07
X92.5Y-45.07
X92.79Y-32.45
X92.79Y-40.07
X95.22Y-48.42
X95.33Y-32.45
X95.33Y-40.07
X97.87Y-32.45
X97.87Y-40.07
X100.12Y-45.07
X100.22Y-48.42
X100.41Y-32.45
X100.41Y-40.07
X100.52Y-105.42
X102.25Y-43.59
X102.47Y-62.36
X102.47Y-64.9
X102.47Y-67.44
X102.47Y-69.98
X102.47Y-72.52
X102.47Y-75.06
X102.47Y-77.6
X102.47Y-80.14
X102.47Y-82.68
X102.47Y-85.22
X102.47Y-87.76
X102.47Y-90.3
X102.47Y-92.84
X102.47Y-95.38
X102.49Y-56.21
X102.49Y-58.71
X102.95Y-32.45
X102.95Y-40.07
X103.02Y-105.42
X104.81Y-47.85
X105.49Y-32.45
X105.49Y-40.07
X109.31Y-107.71
X109.69Y-47.85
X109.87Y-43.59
X111.39Y-32.8
X111.39Y-35.3
X112.11Y-43.46
X114.3Y-62.23
X114.3Y-64.77
X114.3Y-67.31
X114.3Y-69.85
X114.3Y-72.39
X114.3Y-74.93
X114.3Y-77.47
X114.3Y-80.01
X114.3Y-82.55
X114.3Y-85.09
X114.3Y-87.63
X114.3Y-90.17
X114.3Y-92.71
X114.3Y-95.25
X114.3Y-97.79
X114.3Y-100.33
X116.01Y-32.47
X116.01Y-40.09
X116.93Y-107.71
X117.11Y-43.46
X118.55Y-32.47
X118.55Y-40.09
X121.09Y-32.47
X121.09Y-40.09
X122.16Y-113.86
X122.22Y-110.7
X122.99Y-107.21
X123.58Y-129.23
X123.58Y-136.85
X123.63Y-32.47
X123.63Y-40.09
X126.17Y-32.47
X126.17Y-40.09
X126.94Y-120.29
X126.94Y-127.91
X127.07Y-117.1
X128.71Y-32.47
X128.71Y-40.09
X129.48Y-120.29
X129.48Y-127.91
X129.54Y-62.23
X129.54Y-64.77
X129.54Y-67.31
X129.54Y-69.85
X129.54Y-72.39
X129.54Y-74.93
X129.54Y-77.47
X129.54Y-80.01
X129.54Y-82.55
X129.54Y-85.09
X129.54Y-87.63
X129.54Y-90.17
X129.54Y-92.71
X129.54Y-95.25
X129.54Y-97.79
X129.54Y-100.33
X129.57Y-117.1
X129.78Y-113.86
X129.84Y-110.7
X130.61Y-107.21
X131.25Y-32.47
X131.25Y-40.09
X132.02Y-120.29
X132.02Y-127.91
X132.81Y-62.06
X134.56Y-120.29
X134.56Y-127.91
X135.15Y-87.77
X135.15Y-90.27
X135.2Y-103.41
X135.2Y-111.03
X135.31Y-62.06
X137.1Y-120.29
X137.1Y-127.91
X138.43Y-62.23
X138.43Y-64.77
X138.43Y-67.31
X138.43Y-69.85
X138.43Y-72.39
X138.43Y-74.93
X138.43Y-77.47
X138.43Y-80.01
X138.43Y-82.55
X138.43Y-85.09
X138.43Y-87.63
X138.43Y-90.17
X138.43Y-92.71
X138.43Y-95.25
X138.43Y-97.79
X138.43Y-100.33
X138.43Y-102.87
X138.43Y-105.41
X138.43Y-107.95
X138.43Y-110.49
X139.39Y-43.84
X139.39Y-46.34
X139.64Y-120.29
X139.64Y-127.91
X142.18Y-120.29
X142.18Y-127.91
X144.28Y-41.87
X144.28Y-49.49
X146.82Y-41.87
X146.82Y-49.49
X149.36Y-41.87
X149.36Y-49.49
X150.29Y-118.27
X150.29Y-120.77
X151.9Y-41.87
X151.9Y-49.49
X153.47Y-120.17
X153.47Y-127.79
X153.67Y-62.23
X153.67Y-64.77
X153.67Y-67.31
X153.67Y-69.85
X153.67Y-72.39
X153.67Y-74.93
X153.67Y-77.47
X153.67Y-80.01
X153.67Y-82.55
X153.67Y-85.09
X153.67Y-87.63
X153.67Y-90.17
X153.67Y-92.71
X153.67Y-95.25
X153.67Y-97.79
X153.67Y-100.33
X153.67Y-102.87
X153.67Y-105.41
X153.67Y-107.95
X153.67Y-110.49
X154.44Y-41.87
X154.44Y-49.49
X156.01Y-120.17
X156.01Y-127.79
X156.98Y-41.87
X156.98Y-49.49
X158.55Y-120.17
X158.55Y-127.79
X159.52Y-41.87
X159.52Y-49.49
X161.09Y-120.17
X161.09Y-127.79
X162.06Y-41.87
X162.06Y-49.49
X163.63Y-120.17
X163.63Y-127.79
X163.83Y-62.23
X163.83Y-64.77
X163.83Y-67.31
X163.83Y-69.85
X163.83Y-72.39
X163.83Y-74.93
X163.83Y-77.47
X163.83Y-80.01
X163.83Y-82.55
X163.83Y-85.09
X163.83Y-87.63
X163.83Y-90.17
X163.83Y-92.71
X163.83Y-95.25
X163.83Y-97.79
X163.83Y-100.33
X163.83Y-102.87
X163.83Y-105.41
X163.83Y-107.95
X163.83Y-110.49
X166.17Y-120.17
X166.17Y-127.79
X168.71Y-120.17
X168.71Y-127.79
X170.69Y-130.52
X170.69Y-138.14
X173.4Y-129.81
X174.07Y-48.54
X176.57Y-48.54
X179.07Y-62.23
X179.07Y-64.77
X179.07Y-67.31
X179.07Y-69.85
X179.07Y-72.39
X179.07Y-74.93
X179.07Y-77.47
X179.07Y-80.01
X179.07Y-82.55
X179.07Y-85.09
X179.07Y-87.63
X179.07Y-90.17
X179.07Y-92.71
X179.07Y-95.25
X179.07Y-97.79
X179.07Y-100.33
X179.07Y-102.87
X179.07Y-105.41
X179.07Y-107.95
X179.07Y-110.49
X181.02Y-129.81
X182.46Y-86.69
X182.46Y-89.19
X183.68Y-130.18
X183.68Y-137.8
X187.71Y-95.89
X187.71Y-98.43
X187.71Y-100.97
X187.71Y-103.51
X187.71Y-106.05
X187.71Y-108.59
X187.71Y-111.13
X189.88Y-115.62
X190.98Y-87.51
X192.38Y-115.62
X193.48Y-87.51
X195.33Y-95.89
X195.33Y-98.43
X195.33Y-100.97
X195.33Y-103.51
X195.33Y-106.05
X195.33Y-108.59
X195.33Y-111.13
X197.4Y-88.54
X197.74Y-44.09
X199.9Y-88.54
X200.6Y-99.48
X201.02Y-65.13
X201.02Y-67.67
X201.02Y-70.21
X201.02Y-72.75
X201.02Y-75.29
X201.02Y-77.83
X201.02Y-80.37
X201.02Y-82.91
X201.93Y-104.85
X201.93Y-109.73
X202.92Y-48.36
X202.92Y-50.86
X203.1Y-99.48
X203.3Y-88.51
X205.36Y-44.09
X205.66Y-58.94
X205.8Y-88.51
X207.37Y-105.2
X207.43Y-110.09
X208.16Y-58.94
X208.64Y-65.13
X208.64Y-67.67
X208.64Y-70.21
X208.64Y-72.75
X208.64Y-75.29
X208.64Y-77.83
X208.64Y-80.37
X208.64Y-82.91
X209.21Y-88.47
X211.71Y-88.47
X212.37Y-105.2
X212.43Y-110.09
X215.7Y-104.05
X215.7Y-111.67
T4
X102.23Y-101.17
X104.77Y-101.17
X202.68Y-39.
X205.22Y-39.
T5
X28.47Y-108.2
X31.01Y-108.2
X33.55Y-108.2
X36.09Y-108.2
X38.63Y-108.2
X41.17Y-108.2
X43.71Y-108.2
X46.25Y-108.2
X54.03Y-82.72
X54.03Y-85.26
X54.03Y-87.8
X54.03Y-90.34
X54.03Y-92.88
X54.03Y-95.42
X54.03Y-97.96
X54.03Y-100.5
X54.03Y-103.04
X54.03Y-105.58
X58.Y-55.68
X58.25Y-118.41
X60.54Y-55.68
X60.79Y-118.41
X61.54Y-134.24
X63.08Y-55.68
X63.33Y-118.41
X64.08Y-134.24
X65.62Y-55.68
X65.87Y-118.41
X66.62Y-134.24
X68.16Y-55.68
X68.41Y-118.41
X69.16Y-134.24
X70.7Y-55.68
X70.95Y-118.41
X73.24Y-55.68
X73.49Y-118.41
X74.38Y-33.11
X75.78Y-55.68
X76.03Y-118.41
X76.92Y-33.11
X78.32Y-55.68
X78.57Y-118.41
X79.46Y-33.11
X80.86Y-55.68
X81.11Y-118.41
X136.8Y-116.12
X139.34Y-116.12
X141.88Y-116.12
X184.68Y-68.06
X184.68Y-70.6
X184.68Y-73.14
X184.68Y-75.68
X184.68Y-78.22
X184.68Y-80.76
X185.42Y-59.38
X185.42Y-61.92
X185.86Y-50.01
X188.4Y-50.01
X190.94Y-50.01
X191.47Y-81.61
X191.54Y-72.73
X191.54Y-77.11
X194.01Y-81.61
X194.08Y-72.73
X194.08Y-77.11
X218.5Y-67.25
X218.5Y-70.02
X218.5Y-72.79
X218.5Y-75.56
X218.5Y-78.33
X221.34Y-68.635
X221.34Y-71.405
X221.34Y-74.175
X221.34Y-76.945
T6
X175.63Y-120.21
X175.63Y-126.71
X180.13Y-120.21
X180.13Y-126.71
X183.93Y-120.15
X183.93Y-126.65
X188.43Y-120.15
X188.43Y-126.65
T7
X218.8Y-60.29
X218.8Y-85.29
T5
X38.71Y-133.35G85X38.71Y-134.85
G05
X44.56Y-134.9G85X46.56Y-134.9
G05
X52.41Y-133.35G85X52.41Y-134.85
G05
X169.72Y-37.78G85X169.72Y-39.78
G05
X175.42Y-35.78G85X173.42Y-35.78
G05
X175.42Y-41.78G85X173.42Y-41.78
G05
T0
M30
