G04 #@! TF.FileFunction,Soldermask,Bot*
%FSLAX46Y46*%
G04 Gerber Fmt 4.6, Leading zero omitted, Abs format (unit mm)*
G04 Created by KiCad (PCBNEW 4.0.7) date 04/18/21 23:33:21*
%MOMM*%
%LPD*%
G01*
G04 APERTURE LIST*
%ADD10C,0.100000*%
%ADD11R,2.100000X2.100000*%
%ADD12O,2.100000X2.100000*%
%ADD13R,2.000000X2.000000*%
%ADD14C,2.000000*%
%ADD15C,4.400000*%
%ADD16O,2.000000X2.000000*%
%ADD17R,2.200000X2.200000*%
%ADD18C,2.200000*%
%ADD19C,2.400000*%
%ADD20O,2.200000X2.200000*%
%ADD21C,1.400000*%
%ADD22C,1.900000*%
%ADD23R,3.900000X3.900000*%
%ADD24R,1.400000X1.400000*%
%ADD25O,1.400000X1.400000*%
%ADD26C,3.600000*%
G04 APERTURE END LIST*
D10*
D11*
X194010000Y-81610000D03*
D12*
X191470000Y-81610000D03*
D13*
X218500000Y-67250000D03*
D14*
X218500000Y-70020000D03*
X218500000Y-72790000D03*
X218500000Y-75560000D03*
X218500000Y-78330000D03*
X221340000Y-68635000D03*
X221340000Y-71405000D03*
X221340000Y-74175000D03*
X221340000Y-76945000D03*
D15*
X218800000Y-85290000D03*
X218800000Y-60290000D03*
D13*
X126940000Y-127910000D03*
D16*
X142180000Y-120290000D03*
X129480000Y-127910000D03*
X139640000Y-120290000D03*
X132020000Y-127910000D03*
X137100000Y-120290000D03*
X134560000Y-127910000D03*
X134560000Y-120290000D03*
X137100000Y-127910000D03*
X132020000Y-120290000D03*
X139640000Y-127910000D03*
X129480000Y-120290000D03*
X142180000Y-127910000D03*
X126940000Y-120290000D03*
D13*
X205660000Y-58940000D03*
D14*
X208160000Y-58940000D03*
D13*
X197400000Y-88540000D03*
D14*
X199900000Y-88540000D03*
D13*
X209210000Y-88470000D03*
D14*
X211710000Y-88470000D03*
D13*
X203300000Y-88510000D03*
D14*
X205800000Y-88510000D03*
X207430000Y-110090000D03*
X212430000Y-110090000D03*
X207370000Y-105200000D03*
X212370000Y-105200000D03*
D13*
X193480000Y-87510000D03*
D14*
X190980000Y-87510000D03*
X89120000Y-43660000D03*
X89120000Y-48660000D03*
D13*
X174070000Y-48540000D03*
D14*
X176570000Y-48540000D03*
D13*
X202920000Y-50860000D03*
D14*
X202920000Y-48360000D03*
X38650000Y-58870000D03*
X38650000Y-53870000D03*
X100220000Y-48420000D03*
X95220000Y-48420000D03*
X112110000Y-43460000D03*
X117110000Y-43460000D03*
X38050000Y-39260000D03*
X38050000Y-34260000D03*
D13*
X173400000Y-129810000D03*
D16*
X181020000Y-129810000D03*
D17*
X202680000Y-39000000D03*
D18*
X205220000Y-39000000D03*
D17*
X114190000Y-118030000D03*
D18*
X114190000Y-120570000D03*
D13*
X40900000Y-45090000D03*
D16*
X48520000Y-45090000D03*
D13*
X40920000Y-48080000D03*
D16*
X48540000Y-48080000D03*
D13*
X40990000Y-41970000D03*
D16*
X48610000Y-41970000D03*
D13*
X40920000Y-39090000D03*
D16*
X48540000Y-39090000D03*
D13*
X179070000Y-110490000D03*
D16*
X163830000Y-62230000D03*
X179070000Y-107950000D03*
X163830000Y-64770000D03*
X179070000Y-105410000D03*
X163830000Y-67310000D03*
X179070000Y-102870000D03*
X163830000Y-69850000D03*
X179070000Y-100330000D03*
X163830000Y-72390000D03*
X179070000Y-97790000D03*
X163830000Y-74930000D03*
X179070000Y-95250000D03*
X163830000Y-77470000D03*
X179070000Y-92710000D03*
X163830000Y-80010000D03*
X179070000Y-90170000D03*
X163830000Y-82550000D03*
X179070000Y-87630000D03*
X163830000Y-85090000D03*
X179070000Y-85090000D03*
X163830000Y-87630000D03*
X179070000Y-82550000D03*
X163830000Y-90170000D03*
X179070000Y-80010000D03*
X163830000Y-92710000D03*
X179070000Y-77470000D03*
X163830000Y-95250000D03*
X179070000Y-74930000D03*
X163830000Y-97790000D03*
X179070000Y-72390000D03*
X163830000Y-100330000D03*
X179070000Y-69850000D03*
X163830000Y-102870000D03*
X179070000Y-67310000D03*
X163830000Y-105410000D03*
X179070000Y-64770000D03*
X163830000Y-107950000D03*
X179070000Y-62230000D03*
X163830000Y-110490000D03*
D13*
X138430000Y-62230000D03*
D16*
X153670000Y-110490000D03*
X138430000Y-64770000D03*
X153670000Y-107950000D03*
X138430000Y-67310000D03*
X153670000Y-105410000D03*
X138430000Y-69850000D03*
X153670000Y-102870000D03*
X138430000Y-72390000D03*
X153670000Y-100330000D03*
X138430000Y-74930000D03*
X153670000Y-97790000D03*
X138430000Y-77470000D03*
X153670000Y-95250000D03*
X138430000Y-80010000D03*
X153670000Y-92710000D03*
X138430000Y-82550000D03*
X153670000Y-90170000D03*
X138430000Y-85090000D03*
X153670000Y-87630000D03*
X138430000Y-87630000D03*
X153670000Y-85090000D03*
X138430000Y-90170000D03*
X153670000Y-82550000D03*
X138430000Y-92710000D03*
X153670000Y-80010000D03*
X138430000Y-95250000D03*
X153670000Y-77470000D03*
X138430000Y-97790000D03*
X153670000Y-74930000D03*
X138430000Y-100330000D03*
X153670000Y-72390000D03*
X138430000Y-102870000D03*
X153670000Y-69850000D03*
X138430000Y-105410000D03*
X153670000Y-67310000D03*
X138430000Y-107950000D03*
X153670000Y-64770000D03*
X138430000Y-110490000D03*
X153670000Y-62230000D03*
D11*
X184680000Y-68060000D03*
D12*
X184680000Y-70600000D03*
X184680000Y-73140000D03*
X184680000Y-75680000D03*
X184680000Y-78220000D03*
X184680000Y-80760000D03*
D11*
X46250000Y-108200000D03*
D12*
X43710000Y-108200000D03*
X41170000Y-108200000D03*
X38630000Y-108200000D03*
X36090000Y-108200000D03*
X33550000Y-108200000D03*
X31010000Y-108200000D03*
X28470000Y-108200000D03*
D11*
X185420000Y-59380000D03*
D12*
X185420000Y-61920000D03*
D11*
X74380000Y-33110000D03*
D12*
X76920000Y-33110000D03*
X79460000Y-33110000D03*
D11*
X194080000Y-72730000D03*
D12*
X191540000Y-72730000D03*
D11*
X194080000Y-77110000D03*
D12*
X191540000Y-77110000D03*
D11*
X141880000Y-116120000D03*
D12*
X139340000Y-116120000D03*
X136800000Y-116120000D03*
D14*
X170690000Y-138140000D03*
D16*
X170690000Y-130520000D03*
D14*
X183680000Y-137800000D03*
D16*
X183680000Y-130180000D03*
D14*
X135200000Y-111030000D03*
D16*
X135200000Y-103410000D03*
D14*
X93190000Y-126490000D03*
D16*
X93190000Y-118870000D03*
D14*
X101840000Y-126490000D03*
D16*
X101840000Y-118870000D03*
D14*
X215700000Y-104050000D03*
D16*
X215700000Y-111670000D03*
D14*
X110720000Y-130570000D03*
D16*
X110720000Y-122950000D03*
D14*
X117500000Y-130610000D03*
D16*
X117500000Y-122990000D03*
D14*
X205360000Y-44090000D03*
D16*
X197740000Y-44090000D03*
D14*
X114030000Y-123060000D03*
D16*
X114030000Y-130680000D03*
D14*
X47220000Y-118130000D03*
D16*
X47220000Y-125750000D03*
D14*
X47220000Y-135680000D03*
D16*
X47220000Y-128060000D03*
D14*
X85990000Y-47930000D03*
D16*
X85990000Y-40310000D03*
D14*
X40270000Y-61950000D03*
D16*
X40270000Y-69570000D03*
D14*
X43510000Y-69610000D03*
D16*
X43510000Y-61990000D03*
D14*
X59120000Y-32050000D03*
D16*
X51500000Y-32050000D03*
D14*
X59180000Y-28720000D03*
D16*
X51560000Y-28720000D03*
D14*
X42080000Y-51350000D03*
D16*
X42080000Y-58970000D03*
D14*
X102250000Y-43590000D03*
D16*
X109870000Y-43590000D03*
D14*
X100120000Y-45070000D03*
D16*
X92500000Y-45070000D03*
D14*
X50570000Y-118020000D03*
D16*
X50570000Y-125640000D03*
D14*
X50460000Y-135680000D03*
D16*
X50460000Y-128060000D03*
D14*
X40930000Y-34870000D03*
D16*
X48550000Y-34870000D03*
D19*
X180130000Y-126710000D03*
X175630000Y-126710000D03*
X180130000Y-120210000D03*
X175630000Y-120210000D03*
X188430000Y-126650000D03*
X183930000Y-126650000D03*
X188430000Y-120150000D03*
X183930000Y-120150000D03*
D13*
X114300000Y-62230000D03*
D16*
X129540000Y-100330000D03*
X114300000Y-64770000D03*
X129540000Y-97790000D03*
X114300000Y-67310000D03*
X129540000Y-95250000D03*
X114300000Y-69850000D03*
X129540000Y-92710000D03*
X114300000Y-72390000D03*
X129540000Y-90170000D03*
X114300000Y-74930000D03*
X129540000Y-87630000D03*
X114300000Y-77470000D03*
X129540000Y-85090000D03*
X114300000Y-80010000D03*
X129540000Y-82550000D03*
X114300000Y-82550000D03*
X129540000Y-80010000D03*
X114300000Y-85090000D03*
X129540000Y-77470000D03*
X114300000Y-87630000D03*
X129540000Y-74930000D03*
X114300000Y-90170000D03*
X129540000Y-72390000D03*
X114300000Y-92710000D03*
X129540000Y-69850000D03*
X114300000Y-95250000D03*
X129540000Y-67310000D03*
X114300000Y-97790000D03*
X129540000Y-64770000D03*
X114300000Y-100330000D03*
X129540000Y-62230000D03*
D13*
X87230000Y-62360000D03*
D16*
X102470000Y-95380000D03*
X87230000Y-64900000D03*
X102470000Y-92840000D03*
X87230000Y-67440000D03*
X102470000Y-90300000D03*
X87230000Y-69980000D03*
X102470000Y-87760000D03*
X87230000Y-72520000D03*
X102470000Y-85220000D03*
X87230000Y-75060000D03*
X102470000Y-82680000D03*
X87230000Y-77600000D03*
X102470000Y-80140000D03*
X87230000Y-80140000D03*
X102470000Y-77600000D03*
X87230000Y-82680000D03*
X102470000Y-75060000D03*
X87230000Y-85220000D03*
X102470000Y-72520000D03*
X87230000Y-87760000D03*
X102470000Y-69980000D03*
X87230000Y-90300000D03*
X102470000Y-67440000D03*
X87230000Y-92840000D03*
X102470000Y-64900000D03*
X87230000Y-95380000D03*
X102470000Y-62360000D03*
D17*
X185860000Y-50010000D03*
D20*
X188400000Y-50010000D03*
X190940000Y-50010000D03*
D13*
X195330000Y-111130000D03*
D16*
X187710000Y-95890000D03*
X195330000Y-108590000D03*
X187710000Y-98430000D03*
X195330000Y-106050000D03*
X187710000Y-100970000D03*
X195330000Y-103510000D03*
X187710000Y-103510000D03*
X195330000Y-100970000D03*
X187710000Y-106050000D03*
X195330000Y-98430000D03*
X187710000Y-108590000D03*
X195330000Y-95890000D03*
X187710000Y-111130000D03*
D13*
X153470000Y-127790000D03*
D16*
X168710000Y-120170000D03*
X156010000Y-127790000D03*
X166170000Y-120170000D03*
X158550000Y-127790000D03*
X163630000Y-120170000D03*
X161090000Y-127790000D03*
X161090000Y-120170000D03*
X163630000Y-127790000D03*
X158550000Y-120170000D03*
X166170000Y-127790000D03*
X156010000Y-120170000D03*
X168710000Y-127790000D03*
X153470000Y-120170000D03*
D13*
X61790000Y-62320000D03*
D16*
X77030000Y-110580000D03*
X61790000Y-64860000D03*
X77030000Y-108040000D03*
X61790000Y-67400000D03*
X77030000Y-105500000D03*
X61790000Y-69940000D03*
X77030000Y-102960000D03*
X61790000Y-72480000D03*
X77030000Y-100420000D03*
X61790000Y-75020000D03*
X77030000Y-97880000D03*
X61790000Y-77560000D03*
X77030000Y-95340000D03*
X61790000Y-80100000D03*
X77030000Y-92800000D03*
X61790000Y-82640000D03*
X77030000Y-90260000D03*
X61790000Y-85180000D03*
X77030000Y-87720000D03*
X61790000Y-87720000D03*
X77030000Y-85180000D03*
X61790000Y-90260000D03*
X77030000Y-82640000D03*
X61790000Y-92800000D03*
X77030000Y-80100000D03*
X61790000Y-95340000D03*
X77030000Y-77560000D03*
X61790000Y-97880000D03*
X77030000Y-75020000D03*
X61790000Y-100420000D03*
X77030000Y-72480000D03*
X61790000Y-102960000D03*
X77030000Y-69940000D03*
X61790000Y-105500000D03*
X77030000Y-67400000D03*
X61790000Y-108040000D03*
X77030000Y-64860000D03*
X61790000Y-110580000D03*
X77030000Y-62320000D03*
D13*
X66610000Y-46270000D03*
D16*
X81850000Y-38650000D03*
X69150000Y-46270000D03*
X79310000Y-38650000D03*
X71690000Y-46270000D03*
X76770000Y-38650000D03*
X74230000Y-46270000D03*
X74230000Y-38650000D03*
X76770000Y-46270000D03*
X71690000Y-38650000D03*
X79310000Y-46270000D03*
X69150000Y-38650000D03*
X81850000Y-46270000D03*
X66610000Y-38650000D03*
D13*
X90250000Y-40070000D03*
D16*
X105490000Y-32450000D03*
X92790000Y-40070000D03*
X102950000Y-32450000D03*
X95330000Y-40070000D03*
X100410000Y-32450000D03*
X97870000Y-40070000D03*
X97870000Y-32450000D03*
X100410000Y-40070000D03*
X95330000Y-32450000D03*
X102950000Y-40070000D03*
X92790000Y-32450000D03*
X105490000Y-40070000D03*
X90250000Y-32450000D03*
D13*
X39290000Y-81810000D03*
D16*
X46910000Y-99590000D03*
X39290000Y-84350000D03*
X46910000Y-97050000D03*
X39290000Y-86890000D03*
X46910000Y-94510000D03*
X39290000Y-89430000D03*
X46910000Y-91970000D03*
X39290000Y-91970000D03*
X46910000Y-89430000D03*
X39290000Y-94510000D03*
X46910000Y-86890000D03*
X39290000Y-97050000D03*
X46910000Y-84350000D03*
X39290000Y-99590000D03*
X46910000Y-81810000D03*
D21*
X24130000Y-36690000D03*
X24130000Y-44690000D03*
X24090000Y-55630000D03*
X24090000Y-63630000D03*
D22*
X201930000Y-109730000D03*
X201930000Y-104850000D03*
X104810000Y-47850000D03*
X109690000Y-47850000D03*
D23*
X174420000Y-41780000D03*
X174420000Y-35780000D03*
X169720000Y-38780000D03*
D13*
X144280000Y-49490000D03*
D16*
X162060000Y-41870000D03*
X146820000Y-49490000D03*
X159520000Y-41870000D03*
X149360000Y-49490000D03*
X156980000Y-41870000D03*
X151900000Y-49490000D03*
X154440000Y-41870000D03*
X154440000Y-49490000D03*
X151900000Y-41870000D03*
X156980000Y-49490000D03*
X149360000Y-41870000D03*
X159520000Y-49490000D03*
X146820000Y-41870000D03*
X162060000Y-49490000D03*
X144280000Y-41870000D03*
D13*
X25380000Y-81880000D03*
D16*
X33000000Y-99660000D03*
X25380000Y-84420000D03*
X33000000Y-97120000D03*
X25380000Y-86960000D03*
X33000000Y-94580000D03*
X25380000Y-89500000D03*
X33000000Y-92040000D03*
X25380000Y-92040000D03*
X33000000Y-89500000D03*
X25380000Y-94580000D03*
X33000000Y-86960000D03*
X25380000Y-97120000D03*
X33000000Y-84420000D03*
X25380000Y-99660000D03*
X33000000Y-81880000D03*
D14*
X189880000Y-115620000D03*
X192380000Y-115620000D03*
X200600000Y-99480000D03*
X203100000Y-99480000D03*
X150290000Y-118270000D03*
X150290000Y-120770000D03*
X126680000Y-116730000D03*
X126680000Y-114230000D03*
X102490000Y-58710000D03*
X102490000Y-56210000D03*
X132810000Y-62060000D03*
X135310000Y-62060000D03*
X135150000Y-87770000D03*
X135150000Y-90270000D03*
D13*
X208640000Y-82910000D03*
D16*
X201020000Y-65130000D03*
X208640000Y-80370000D03*
X201020000Y-67670000D03*
X208640000Y-77830000D03*
X201020000Y-70210000D03*
X208640000Y-75290000D03*
X201020000Y-72750000D03*
X208640000Y-72750000D03*
X201020000Y-75290000D03*
X208640000Y-70210000D03*
X201020000Y-77830000D03*
X208640000Y-67670000D03*
X201020000Y-80370000D03*
X208640000Y-65130000D03*
X201020000Y-82910000D03*
D14*
X182460000Y-89190000D03*
X182460000Y-86690000D03*
X80240000Y-97230000D03*
X80240000Y-99730000D03*
X139390000Y-43840000D03*
X139390000Y-46340000D03*
X105500000Y-119440000D03*
X105500000Y-121940000D03*
D21*
X88320000Y-112850000D03*
D24*
X88320000Y-111580000D03*
D25*
X89590000Y-112850000D03*
X89590000Y-111580000D03*
X90860000Y-112850000D03*
X90860000Y-111580000D03*
X92130000Y-112850000D03*
X92130000Y-111580000D03*
X93400000Y-112850000D03*
X93400000Y-111580000D03*
X94670000Y-112850000D03*
X94670000Y-111580000D03*
X95940000Y-112850000D03*
X95940000Y-111580000D03*
X97210000Y-112850000D03*
X97210000Y-111580000D03*
X98480000Y-112850000D03*
X98480000Y-111580000D03*
X99750000Y-112850000D03*
X99750000Y-111580000D03*
X101020000Y-112850000D03*
X101020000Y-111580000D03*
X102290000Y-112850000D03*
X102290000Y-111580000D03*
X103560000Y-112850000D03*
X103560000Y-111580000D03*
X104830000Y-112850000D03*
X104830000Y-111580000D03*
X106100000Y-112850000D03*
X106100000Y-111580000D03*
X107370000Y-112850000D03*
X107370000Y-111580000D03*
X108640000Y-112850000D03*
X108640000Y-111580000D03*
X109910000Y-112850000D03*
X109910000Y-111580000D03*
X111180000Y-112850000D03*
X111180000Y-111580000D03*
X112450000Y-112850000D03*
X112450000Y-111580000D03*
X113720000Y-112850000D03*
X113720000Y-111580000D03*
X114990000Y-112850000D03*
X114990000Y-111580000D03*
X116260000Y-112850000D03*
X116260000Y-111580000D03*
X117530000Y-112850000D03*
X117530000Y-111580000D03*
X118800000Y-112850000D03*
X118800000Y-111580000D03*
D14*
X66550000Y-34980000D03*
X69050000Y-34980000D03*
X86560000Y-32410000D03*
X84060000Y-32410000D03*
X47000000Y-77450000D03*
X47000000Y-74950000D03*
X33240000Y-78110000D03*
X33240000Y-75610000D03*
X111390000Y-32800000D03*
X111390000Y-35300000D03*
D13*
X116010000Y-40090000D03*
D16*
X131250000Y-32470000D03*
X118550000Y-40090000D03*
X128710000Y-32470000D03*
X121090000Y-40090000D03*
X126170000Y-32470000D03*
X123630000Y-40090000D03*
X123630000Y-32470000D03*
X126170000Y-40090000D03*
X121090000Y-32470000D03*
X128710000Y-40090000D03*
X118550000Y-32470000D03*
X131250000Y-40090000D03*
X116010000Y-32470000D03*
D11*
X58000000Y-55680000D03*
D12*
X60540000Y-55680000D03*
X63080000Y-55680000D03*
X65620000Y-55680000D03*
X68160000Y-55680000D03*
X70700000Y-55680000D03*
X73240000Y-55680000D03*
X75780000Y-55680000D03*
X78320000Y-55680000D03*
X80860000Y-55680000D03*
D11*
X58250000Y-118410000D03*
D12*
X60790000Y-118410000D03*
X63330000Y-118410000D03*
X65870000Y-118410000D03*
X68410000Y-118410000D03*
X70950000Y-118410000D03*
X73490000Y-118410000D03*
X76030000Y-118410000D03*
X78570000Y-118410000D03*
X81110000Y-118410000D03*
D11*
X54030000Y-105580000D03*
D12*
X54030000Y-103040000D03*
X54030000Y-100500000D03*
X54030000Y-97960000D03*
X54030000Y-95420000D03*
X54030000Y-92880000D03*
X54030000Y-90340000D03*
X54030000Y-87800000D03*
X54030000Y-85260000D03*
X54030000Y-82720000D03*
D26*
X223000000Y-136000000D03*
X23000000Y-136000000D03*
X23000000Y-29000000D03*
X223000000Y-29000000D03*
M02*
