G04 #@! TF.FileFunction,Copper,L2,Bot,Signal*
%FSLAX46Y46*%
G04 Gerber Fmt 4.6, Leading zero omitted, Abs format (unit mm)*
G04 Created by KiCad (PCBNEW 4.0.7) date 04/20/21 08:22:52*
%MOMM*%
%LPD*%
G01*
G04 APERTURE LIST*
%ADD10C,0.100000*%
%ADD11O,2.000000X3.500000*%
%ADD12R,1.600000X1.600000*%
%ADD13C,1.600000*%
%ADD14O,4.000000X2.000000*%
%ADD15O,1.600000X1.600000*%
%ADD16R,1.700000X1.700000*%
%ADD17O,1.700000X1.700000*%
%ADD18C,4.000000*%
%ADD19R,1.800000X1.800000*%
%ADD20C,1.800000*%
%ADD21C,2.000000*%
%ADD22O,1.800000X1.800000*%
%ADD23C,1.500000*%
%ADD24R,3.500000X3.500000*%
%ADD25C,1.000000*%
%ADD26R,1.000000X1.000000*%
%ADD27O,1.000000X1.000000*%
%ADD28C,0.600000*%
%ADD29C,0.350000*%
G04 APERTURE END LIST*
D10*
D11*
X38710000Y-134100000D03*
X52410000Y-134100000D03*
D12*
X46860000Y-131250000D03*
D13*
X44260000Y-131250000D03*
X48960000Y-131250000D03*
X42160000Y-131250000D03*
X48960000Y-128450000D03*
X42160000Y-128450000D03*
D14*
X45560000Y-134900000D03*
D13*
X127070000Y-117100000D03*
X129570000Y-117100000D03*
D12*
X179070000Y-110490000D03*
D15*
X163830000Y-62230000D03*
X179070000Y-107950000D03*
X163830000Y-64770000D03*
X179070000Y-105410000D03*
X163830000Y-67310000D03*
X179070000Y-102870000D03*
X163830000Y-69850000D03*
X179070000Y-100330000D03*
X163830000Y-72390000D03*
X179070000Y-97790000D03*
X163830000Y-74930000D03*
X179070000Y-95250000D03*
X163830000Y-77470000D03*
X179070000Y-92710000D03*
X163830000Y-80010000D03*
X179070000Y-90170000D03*
X163830000Y-82550000D03*
X179070000Y-87630000D03*
X163830000Y-85090000D03*
X179070000Y-85090000D03*
X163830000Y-87630000D03*
X179070000Y-82550000D03*
X163830000Y-90170000D03*
X179070000Y-80010000D03*
X163830000Y-92710000D03*
X179070000Y-77470000D03*
X163830000Y-95250000D03*
X179070000Y-74930000D03*
X163830000Y-97790000D03*
X179070000Y-72390000D03*
X163830000Y-100330000D03*
X179070000Y-69850000D03*
X163830000Y-102870000D03*
X179070000Y-67310000D03*
X163830000Y-105410000D03*
X179070000Y-64770000D03*
X163830000Y-107950000D03*
X179070000Y-62230000D03*
X163830000Y-110490000D03*
D16*
X194010000Y-81610000D03*
D17*
X191470000Y-81610000D03*
D12*
X218500000Y-67250000D03*
D13*
X218500000Y-70020000D03*
X218500000Y-72790000D03*
X218500000Y-75560000D03*
X218500000Y-78330000D03*
X221340000Y-68635000D03*
X221340000Y-71405000D03*
X221340000Y-74175000D03*
X221340000Y-76945000D03*
D18*
X218800000Y-85290000D03*
X218800000Y-60290000D03*
D12*
X126940000Y-127910000D03*
D15*
X142180000Y-120290000D03*
X129480000Y-127910000D03*
X139640000Y-120290000D03*
X132020000Y-127910000D03*
X137100000Y-120290000D03*
X134560000Y-127910000D03*
X134560000Y-120290000D03*
X137100000Y-127910000D03*
X132020000Y-120290000D03*
X139640000Y-127910000D03*
X129480000Y-120290000D03*
X142180000Y-127910000D03*
X126940000Y-120290000D03*
D12*
X205660000Y-58940000D03*
D13*
X208160000Y-58940000D03*
D12*
X197400000Y-88540000D03*
D13*
X199900000Y-88540000D03*
D12*
X209210000Y-88470000D03*
D13*
X211710000Y-88470000D03*
D12*
X203300000Y-88510000D03*
D13*
X205800000Y-88510000D03*
X207430000Y-110090000D03*
X212430000Y-110090000D03*
X207370000Y-105200000D03*
X212370000Y-105200000D03*
D12*
X193480000Y-87510000D03*
D13*
X190980000Y-87510000D03*
X89120000Y-43660000D03*
X89120000Y-48660000D03*
D12*
X174070000Y-48540000D03*
D13*
X176570000Y-48540000D03*
D12*
X202920000Y-50860000D03*
D13*
X202920000Y-48360000D03*
X38650000Y-58870000D03*
X38650000Y-53870000D03*
X100220000Y-48420000D03*
X95220000Y-48420000D03*
X112110000Y-43460000D03*
X117110000Y-43460000D03*
X38050000Y-39260000D03*
X38050000Y-34260000D03*
D12*
X173400000Y-129810000D03*
D15*
X181020000Y-129810000D03*
D19*
X202680000Y-39000000D03*
D20*
X205220000Y-39000000D03*
D19*
X104770000Y-101170000D03*
D20*
X102230000Y-101170000D03*
D12*
X40900000Y-45090000D03*
D15*
X48520000Y-45090000D03*
D12*
X40920000Y-48080000D03*
D15*
X48540000Y-48080000D03*
D12*
X40990000Y-41970000D03*
D15*
X48610000Y-41970000D03*
D12*
X40920000Y-39090000D03*
D15*
X48540000Y-39090000D03*
D12*
X138430000Y-62230000D03*
D15*
X153670000Y-110490000D03*
X138430000Y-64770000D03*
X153670000Y-107950000D03*
X138430000Y-67310000D03*
X153670000Y-105410000D03*
X138430000Y-69850000D03*
X153670000Y-102870000D03*
X138430000Y-72390000D03*
X153670000Y-100330000D03*
X138430000Y-74930000D03*
X153670000Y-97790000D03*
X138430000Y-77470000D03*
X153670000Y-95250000D03*
X138430000Y-80010000D03*
X153670000Y-92710000D03*
X138430000Y-82550000D03*
X153670000Y-90170000D03*
X138430000Y-85090000D03*
X153670000Y-87630000D03*
X138430000Y-87630000D03*
X153670000Y-85090000D03*
X138430000Y-90170000D03*
X153670000Y-82550000D03*
X138430000Y-92710000D03*
X153670000Y-80010000D03*
X138430000Y-95250000D03*
X153670000Y-77470000D03*
X138430000Y-97790000D03*
X153670000Y-74930000D03*
X138430000Y-100330000D03*
X153670000Y-72390000D03*
X138430000Y-102870000D03*
X153670000Y-69850000D03*
X138430000Y-105410000D03*
X153670000Y-67310000D03*
X138430000Y-107950000D03*
X153670000Y-64770000D03*
X138430000Y-110490000D03*
X153670000Y-62230000D03*
D16*
X184680000Y-68060000D03*
D17*
X184680000Y-70600000D03*
X184680000Y-73140000D03*
X184680000Y-75680000D03*
X184680000Y-78220000D03*
X184680000Y-80760000D03*
D16*
X46250000Y-108200000D03*
D17*
X43710000Y-108200000D03*
X41170000Y-108200000D03*
X38630000Y-108200000D03*
X36090000Y-108200000D03*
X33550000Y-108200000D03*
X31010000Y-108200000D03*
X28470000Y-108200000D03*
D16*
X185420000Y-59380000D03*
D17*
X185420000Y-61920000D03*
D16*
X74380000Y-33110000D03*
D17*
X76920000Y-33110000D03*
X79460000Y-33110000D03*
D16*
X194080000Y-72730000D03*
D17*
X191540000Y-72730000D03*
D16*
X194080000Y-77110000D03*
D17*
X191540000Y-77110000D03*
D16*
X141880000Y-116120000D03*
D17*
X139340000Y-116120000D03*
X136800000Y-116120000D03*
D13*
X170690000Y-138140000D03*
D15*
X170690000Y-130520000D03*
D13*
X183680000Y-137800000D03*
D15*
X183680000Y-130180000D03*
D13*
X135200000Y-111030000D03*
D15*
X135200000Y-103410000D03*
D13*
X75770000Y-124610000D03*
D15*
X83390000Y-124610000D03*
D13*
X75720000Y-127830000D03*
D15*
X83340000Y-127830000D03*
D13*
X215700000Y-104050000D03*
D15*
X215700000Y-111670000D03*
D13*
X129780000Y-113860000D03*
D15*
X122160000Y-113860000D03*
D13*
X129840000Y-110700000D03*
D15*
X122220000Y-110700000D03*
D13*
X205360000Y-44090000D03*
D15*
X197740000Y-44090000D03*
D13*
X116930000Y-107710000D03*
D15*
X109310000Y-107710000D03*
D13*
X29640000Y-117460000D03*
D15*
X29640000Y-125080000D03*
D13*
X29670000Y-134890000D03*
D15*
X29670000Y-127270000D03*
D13*
X85990000Y-47930000D03*
D15*
X85990000Y-40310000D03*
D13*
X40270000Y-61950000D03*
D15*
X40270000Y-69570000D03*
D13*
X43510000Y-69610000D03*
D15*
X43510000Y-61990000D03*
D13*
X59120000Y-32050000D03*
D15*
X51500000Y-32050000D03*
D13*
X59180000Y-28720000D03*
D15*
X51560000Y-28720000D03*
D13*
X42080000Y-51350000D03*
D15*
X42080000Y-58970000D03*
D13*
X102250000Y-43590000D03*
D15*
X109870000Y-43590000D03*
D13*
X100120000Y-45070000D03*
D15*
X92500000Y-45070000D03*
D13*
X32990000Y-117400000D03*
D15*
X32990000Y-125020000D03*
D13*
X32970000Y-134890000D03*
D15*
X32970000Y-127270000D03*
D13*
X40930000Y-34870000D03*
D15*
X48550000Y-34870000D03*
D21*
X180130000Y-126710000D03*
X175630000Y-126710000D03*
X180130000Y-120210000D03*
X175630000Y-120210000D03*
X188430000Y-126650000D03*
X183930000Y-126650000D03*
X188430000Y-120150000D03*
X183930000Y-120150000D03*
D12*
X114300000Y-62230000D03*
D15*
X129540000Y-100330000D03*
X114300000Y-64770000D03*
X129540000Y-97790000D03*
X114300000Y-67310000D03*
X129540000Y-95250000D03*
X114300000Y-69850000D03*
X129540000Y-92710000D03*
X114300000Y-72390000D03*
X129540000Y-90170000D03*
X114300000Y-74930000D03*
X129540000Y-87630000D03*
X114300000Y-77470000D03*
X129540000Y-85090000D03*
X114300000Y-80010000D03*
X129540000Y-82550000D03*
X114300000Y-82550000D03*
X129540000Y-80010000D03*
X114300000Y-85090000D03*
X129540000Y-77470000D03*
X114300000Y-87630000D03*
X129540000Y-74930000D03*
X114300000Y-90170000D03*
X129540000Y-72390000D03*
X114300000Y-92710000D03*
X129540000Y-69850000D03*
X114300000Y-95250000D03*
X129540000Y-67310000D03*
X114300000Y-97790000D03*
X129540000Y-64770000D03*
X114300000Y-100330000D03*
X129540000Y-62230000D03*
D12*
X87230000Y-62360000D03*
D15*
X102470000Y-95380000D03*
X87230000Y-64900000D03*
X102470000Y-92840000D03*
X87230000Y-67440000D03*
X102470000Y-90300000D03*
X87230000Y-69980000D03*
X102470000Y-87760000D03*
X87230000Y-72520000D03*
X102470000Y-85220000D03*
X87230000Y-75060000D03*
X102470000Y-82680000D03*
X87230000Y-77600000D03*
X102470000Y-80140000D03*
X87230000Y-80140000D03*
X102470000Y-77600000D03*
X87230000Y-82680000D03*
X102470000Y-75060000D03*
X87230000Y-85220000D03*
X102470000Y-72520000D03*
X87230000Y-87760000D03*
X102470000Y-69980000D03*
X87230000Y-90300000D03*
X102470000Y-67440000D03*
X87230000Y-92840000D03*
X102470000Y-64900000D03*
X87230000Y-95380000D03*
X102470000Y-62360000D03*
D19*
X185860000Y-50010000D03*
D22*
X188400000Y-50010000D03*
X190940000Y-50010000D03*
D12*
X195330000Y-111130000D03*
D15*
X187710000Y-95890000D03*
X195330000Y-108590000D03*
X187710000Y-98430000D03*
X195330000Y-106050000D03*
X187710000Y-100970000D03*
X195330000Y-103510000D03*
X187710000Y-103510000D03*
X195330000Y-100970000D03*
X187710000Y-106050000D03*
X195330000Y-98430000D03*
X187710000Y-108590000D03*
X195330000Y-95890000D03*
X187710000Y-111130000D03*
D12*
X153470000Y-127790000D03*
D15*
X168710000Y-120170000D03*
X156010000Y-127790000D03*
X166170000Y-120170000D03*
X158550000Y-127790000D03*
X163630000Y-120170000D03*
X161090000Y-127790000D03*
X161090000Y-120170000D03*
X163630000Y-127790000D03*
X158550000Y-120170000D03*
X166170000Y-127790000D03*
X156010000Y-120170000D03*
X168710000Y-127790000D03*
X153470000Y-120170000D03*
D12*
X61790000Y-62320000D03*
D15*
X77030000Y-110580000D03*
X61790000Y-64860000D03*
X77030000Y-108040000D03*
X61790000Y-67400000D03*
X77030000Y-105500000D03*
X61790000Y-69940000D03*
X77030000Y-102960000D03*
X61790000Y-72480000D03*
X77030000Y-100420000D03*
X61790000Y-75020000D03*
X77030000Y-97880000D03*
X61790000Y-77560000D03*
X77030000Y-95340000D03*
X61790000Y-80100000D03*
X77030000Y-92800000D03*
X61790000Y-82640000D03*
X77030000Y-90260000D03*
X61790000Y-85180000D03*
X77030000Y-87720000D03*
X61790000Y-87720000D03*
X77030000Y-85180000D03*
X61790000Y-90260000D03*
X77030000Y-82640000D03*
X61790000Y-92800000D03*
X77030000Y-80100000D03*
X61790000Y-95340000D03*
X77030000Y-77560000D03*
X61790000Y-97880000D03*
X77030000Y-75020000D03*
X61790000Y-100420000D03*
X77030000Y-72480000D03*
X61790000Y-102960000D03*
X77030000Y-69940000D03*
X61790000Y-105500000D03*
X77030000Y-67400000D03*
X61790000Y-108040000D03*
X77030000Y-64860000D03*
X61790000Y-110580000D03*
X77030000Y-62320000D03*
D12*
X66610000Y-46270000D03*
D15*
X81850000Y-38650000D03*
X69150000Y-46270000D03*
X79310000Y-38650000D03*
X71690000Y-46270000D03*
X76770000Y-38650000D03*
X74230000Y-46270000D03*
X74230000Y-38650000D03*
X76770000Y-46270000D03*
X71690000Y-38650000D03*
X79310000Y-46270000D03*
X69150000Y-38650000D03*
X81850000Y-46270000D03*
X66610000Y-38650000D03*
D12*
X90250000Y-40070000D03*
D15*
X105490000Y-32450000D03*
X92790000Y-40070000D03*
X102950000Y-32450000D03*
X95330000Y-40070000D03*
X100410000Y-32450000D03*
X97870000Y-40070000D03*
X97870000Y-32450000D03*
X100410000Y-40070000D03*
X95330000Y-32450000D03*
X102950000Y-40070000D03*
X92790000Y-32450000D03*
X105490000Y-40070000D03*
X90250000Y-32450000D03*
D12*
X39290000Y-81810000D03*
D15*
X46910000Y-99590000D03*
X39290000Y-84350000D03*
X46910000Y-97050000D03*
X39290000Y-86890000D03*
X46910000Y-94510000D03*
X39290000Y-89430000D03*
X46910000Y-91970000D03*
X39290000Y-91970000D03*
X46910000Y-89430000D03*
X39290000Y-94510000D03*
X46910000Y-86890000D03*
X39290000Y-97050000D03*
X46910000Y-84350000D03*
X39290000Y-99590000D03*
X46910000Y-81810000D03*
D23*
X201930000Y-109730000D03*
X201930000Y-104850000D03*
X104810000Y-47850000D03*
X109690000Y-47850000D03*
D24*
X174420000Y-41780000D03*
X174420000Y-35780000D03*
X169720000Y-38780000D03*
D12*
X144280000Y-49490000D03*
D15*
X162060000Y-41870000D03*
X146820000Y-49490000D03*
X159520000Y-41870000D03*
X149360000Y-49490000D03*
X156980000Y-41870000D03*
X151900000Y-49490000D03*
X154440000Y-41870000D03*
X154440000Y-49490000D03*
X151900000Y-41870000D03*
X156980000Y-49490000D03*
X149360000Y-41870000D03*
X159520000Y-49490000D03*
X146820000Y-41870000D03*
X162060000Y-49490000D03*
X144280000Y-41870000D03*
D12*
X25380000Y-81880000D03*
D15*
X33000000Y-99660000D03*
X25380000Y-84420000D03*
X33000000Y-97120000D03*
X25380000Y-86960000D03*
X33000000Y-94580000D03*
X25380000Y-89500000D03*
X33000000Y-92040000D03*
X25380000Y-92040000D03*
X33000000Y-89500000D03*
X25380000Y-94580000D03*
X33000000Y-86960000D03*
X25380000Y-97120000D03*
X33000000Y-84420000D03*
X25380000Y-99660000D03*
X33000000Y-81880000D03*
D13*
X189880000Y-115620000D03*
X192380000Y-115620000D03*
X200600000Y-99480000D03*
X203100000Y-99480000D03*
X150290000Y-118270000D03*
X150290000Y-120770000D03*
X102490000Y-58710000D03*
X102490000Y-56210000D03*
X132810000Y-62060000D03*
X135310000Y-62060000D03*
X135150000Y-87770000D03*
X135150000Y-90270000D03*
D12*
X208640000Y-82910000D03*
D15*
X201020000Y-65130000D03*
X208640000Y-80370000D03*
X201020000Y-67670000D03*
X208640000Y-77830000D03*
X201020000Y-70210000D03*
X208640000Y-75290000D03*
X201020000Y-72750000D03*
X208640000Y-72750000D03*
X201020000Y-75290000D03*
X208640000Y-70210000D03*
X201020000Y-77830000D03*
X208640000Y-67670000D03*
X201020000Y-80370000D03*
X208640000Y-65130000D03*
X201020000Y-82910000D03*
D13*
X182460000Y-89190000D03*
X182460000Y-86690000D03*
X80240000Y-97230000D03*
X80240000Y-99730000D03*
X139390000Y-43840000D03*
X139390000Y-46340000D03*
X103020000Y-105420000D03*
X100520000Y-105420000D03*
D25*
X86980000Y-113270000D03*
D26*
X86980000Y-112000000D03*
D27*
X88250000Y-113270000D03*
X88250000Y-112000000D03*
X89520000Y-113270000D03*
X89520000Y-112000000D03*
X90790000Y-113270000D03*
X90790000Y-112000000D03*
X92060000Y-113270000D03*
X92060000Y-112000000D03*
X93330000Y-113270000D03*
X93330000Y-112000000D03*
X94600000Y-113270000D03*
X94600000Y-112000000D03*
X95870000Y-113270000D03*
X95870000Y-112000000D03*
X97140000Y-113270000D03*
X97140000Y-112000000D03*
X98410000Y-113270000D03*
X98410000Y-112000000D03*
X99680000Y-113270000D03*
X99680000Y-112000000D03*
X100950000Y-113270000D03*
X100950000Y-112000000D03*
X102220000Y-113270000D03*
X102220000Y-112000000D03*
X103490000Y-113270000D03*
X103490000Y-112000000D03*
X104760000Y-113270000D03*
X104760000Y-112000000D03*
X106030000Y-113270000D03*
X106030000Y-112000000D03*
X107300000Y-113270000D03*
X107300000Y-112000000D03*
X108570000Y-113270000D03*
X108570000Y-112000000D03*
X109840000Y-113270000D03*
X109840000Y-112000000D03*
X111110000Y-113270000D03*
X111110000Y-112000000D03*
X112380000Y-113270000D03*
X112380000Y-112000000D03*
X113650000Y-113270000D03*
X113650000Y-112000000D03*
X114920000Y-113270000D03*
X114920000Y-112000000D03*
X116190000Y-113270000D03*
X116190000Y-112000000D03*
X117460000Y-113270000D03*
X117460000Y-112000000D03*
D13*
X66550000Y-34980000D03*
X69050000Y-34980000D03*
X86560000Y-32410000D03*
X84060000Y-32410000D03*
X47000000Y-77450000D03*
X47000000Y-74950000D03*
X33240000Y-78110000D03*
X33240000Y-75610000D03*
X111390000Y-32800000D03*
X111390000Y-35300000D03*
D12*
X116010000Y-40090000D03*
D15*
X131250000Y-32470000D03*
X118550000Y-40090000D03*
X128710000Y-32470000D03*
X121090000Y-40090000D03*
X126170000Y-32470000D03*
X123630000Y-40090000D03*
X123630000Y-32470000D03*
X126170000Y-40090000D03*
X121090000Y-32470000D03*
X128710000Y-40090000D03*
X118550000Y-32470000D03*
X131250000Y-40090000D03*
X116010000Y-32470000D03*
D16*
X58000000Y-55680000D03*
D17*
X60540000Y-55680000D03*
X63080000Y-55680000D03*
X65620000Y-55680000D03*
X68160000Y-55680000D03*
X70700000Y-55680000D03*
X73240000Y-55680000D03*
X75780000Y-55680000D03*
X78320000Y-55680000D03*
X80860000Y-55680000D03*
D16*
X58250000Y-118410000D03*
D17*
X60790000Y-118410000D03*
X63330000Y-118410000D03*
X65870000Y-118410000D03*
X68410000Y-118410000D03*
X70950000Y-118410000D03*
X73490000Y-118410000D03*
X76030000Y-118410000D03*
X78570000Y-118410000D03*
X81110000Y-118410000D03*
D16*
X54030000Y-105580000D03*
D17*
X54030000Y-103040000D03*
X54030000Y-100500000D03*
X54030000Y-97960000D03*
X54030000Y-95420000D03*
X54030000Y-92880000D03*
X54030000Y-90340000D03*
X54030000Y-87800000D03*
X54030000Y-85260000D03*
X54030000Y-82720000D03*
D12*
X122990000Y-107210000D03*
D15*
X130610000Y-107210000D03*
D16*
X69160000Y-134240000D03*
D17*
X66620000Y-134240000D03*
X64080000Y-134240000D03*
X61540000Y-134240000D03*
D13*
X123580000Y-136850000D03*
D15*
X123580000Y-129230000D03*
D13*
X33160000Y-137730000D03*
X30660000Y-137730000D03*
X36800000Y-115670000D03*
D15*
X36800000Y-123290000D03*
D13*
X40010000Y-115670000D03*
D15*
X40010000Y-123290000D03*
D13*
X43210000Y-119060000D03*
D15*
X50830000Y-119060000D03*
D13*
X43210000Y-115750000D03*
D15*
X50830000Y-115750000D03*
D28*
X145570000Y-87540000D03*
X145680000Y-90470000D03*
X121920000Y-88310000D03*
X126230000Y-88150000D03*
X123460000Y-84650000D03*
X126880000Y-86990000D03*
X51660000Y-109040000D03*
X102230000Y-116460000D03*
X49910000Y-96940000D03*
X98690000Y-30320000D03*
X66400000Y-120700000D03*
X67830000Y-120790000D03*
X35800000Y-77440000D03*
X55880000Y-112110000D03*
X49790000Y-77950000D03*
X53840000Y-47500000D03*
X58260000Y-51440000D03*
X65090000Y-41880000D03*
X67480000Y-28270000D03*
X191080000Y-55570000D03*
X158560000Y-94160000D03*
X82800000Y-100950000D03*
X93610000Y-115030000D03*
X141660000Y-106510000D03*
X147950000Y-104730000D03*
X115410000Y-63670000D03*
X107370000Y-63490000D03*
X167640000Y-97450000D03*
X167500000Y-90750000D03*
X169930000Y-134340000D03*
X127690000Y-134870000D03*
X124950000Y-132180000D03*
X161870000Y-76420000D03*
X162010000Y-78700000D03*
X156520000Y-115170000D03*
X174640000Y-118450000D03*
X116580000Y-104990000D03*
X72700000Y-77400000D03*
X111110000Y-95280000D03*
X116540000Y-99960000D03*
X71340000Y-84710000D03*
X79460000Y-86190000D03*
X142810000Y-99840000D03*
X125840000Y-102380000D03*
X70840000Y-90260000D03*
X82420000Y-86780000D03*
X142040000Y-98740000D03*
X126820000Y-93910000D03*
X70840000Y-94410000D03*
X83490000Y-94650000D03*
X90270000Y-83420000D03*
X140180000Y-98790000D03*
X126720000Y-89510000D03*
X132660000Y-90410000D03*
X175690000Y-73680000D03*
X177840000Y-78790000D03*
X82910000Y-26580000D03*
X198683489Y-98331836D03*
X142250000Y-75350000D03*
X175940000Y-83740000D03*
X153960000Y-115300000D03*
X165930000Y-91070000D03*
X157200000Y-110320000D03*
X108460000Y-103070000D03*
X72750000Y-78230000D03*
X81440000Y-82560000D03*
X109300000Y-84020000D03*
X111340000Y-84030000D03*
X158030000Y-75430000D03*
X110580000Y-104420000D03*
X72100000Y-83850000D03*
X81880000Y-85420000D03*
X110960000Y-85120000D03*
X159090000Y-75420000D03*
X161740000Y-91390000D03*
X160680000Y-78930000D03*
X160660000Y-75890000D03*
X142350000Y-110350000D03*
X70940000Y-91940000D03*
X83170000Y-84470000D03*
X140900000Y-96760000D03*
X126460000Y-90620000D03*
X131900000Y-92180000D03*
X71030000Y-86450000D03*
X81310000Y-87690000D03*
X133170000Y-96970000D03*
X125790000Y-100800000D03*
X136670000Y-79650000D03*
X117810000Y-98360000D03*
X117900000Y-104870000D03*
X72700000Y-79720000D03*
X140000000Y-95990000D03*
X110470000Y-98050000D03*
X112620000Y-99780000D03*
X112610000Y-105130000D03*
X41760000Y-80090000D03*
X72080000Y-76390000D03*
X115580000Y-78770000D03*
X107400000Y-77240000D03*
X113450000Y-66080000D03*
X107410000Y-65780000D03*
X155540000Y-115700000D03*
X107370000Y-70880000D03*
X115300000Y-71120000D03*
X144960000Y-103920000D03*
X107370000Y-60130000D03*
X143930000Y-103980000D03*
X107210000Y-101530000D03*
X109160000Y-82890000D03*
X157150000Y-75270000D03*
X144370000Y-56060000D03*
X107350000Y-79400000D03*
X156100000Y-75300000D03*
X147230000Y-56750000D03*
X107350000Y-78390000D03*
X155200000Y-75060000D03*
X149640000Y-57590000D03*
X107410000Y-76100000D03*
X107410000Y-72970000D03*
X152400000Y-58440000D03*
X154840000Y-59510000D03*
X107350000Y-69460000D03*
X125960000Y-64150000D03*
X107300000Y-72020000D03*
X115330000Y-73670000D03*
X141480000Y-109160000D03*
X107390000Y-74490000D03*
X112060000Y-75590000D03*
X132360000Y-77500000D03*
X113370000Y-83860000D03*
X106440000Y-80100000D03*
X99830000Y-58670000D03*
X98300000Y-97800000D03*
X58400000Y-104670000D03*
X98450000Y-130910000D03*
X99060000Y-133880000D03*
X157890000Y-133920000D03*
X66630000Y-50660000D03*
X99900000Y-130680000D03*
X102230000Y-133080000D03*
X95810000Y-116360000D03*
X99460000Y-116110000D03*
X56570000Y-107200000D03*
X55210000Y-108800000D03*
X50670000Y-106600000D03*
X50640000Y-102700000D03*
X50630000Y-100120000D03*
X90580000Y-27530000D03*
X36210000Y-99690000D03*
X33120000Y-37430000D03*
X32940000Y-56440000D03*
X37430000Y-69580000D03*
X37420000Y-74300000D03*
X29810000Y-102400000D03*
X31360000Y-42850000D03*
X59930000Y-43960000D03*
X36270000Y-41980000D03*
X36490000Y-60660000D03*
X32130000Y-58410000D03*
X31950000Y-39520000D03*
X32170000Y-62220000D03*
X99630000Y-97820000D03*
X124360000Y-104160000D03*
X123410000Y-104990000D03*
X134490000Y-98720000D03*
X100570000Y-97430000D03*
X138360000Y-126730000D03*
X77900000Y-35820000D03*
X45340000Y-77690000D03*
X29170000Y-88880000D03*
X117100000Y-35030000D03*
X50600000Y-104480000D03*
D29*
X144840000Y-88990000D02*
X144840000Y-88270000D01*
X144840000Y-88270000D02*
X145570000Y-87540000D01*
X144840000Y-88900000D02*
X144840000Y-88990000D01*
X144840000Y-88990000D02*
X144840000Y-89630000D01*
X144840000Y-89630000D02*
X145680000Y-90470000D01*
X126070000Y-88310000D02*
X121920000Y-88310000D01*
X126230000Y-88150000D02*
X126070000Y-88310000D01*
X124540000Y-84650000D02*
X123460000Y-84650000D01*
X126880000Y-86990000D02*
X124540000Y-84650000D01*
X94550000Y-48280000D02*
X94380000Y-48110000D01*
X153670000Y-90170000D02*
X152870000Y-90170000D01*
X152870000Y-90170000D02*
X151600000Y-88900000D01*
X151600000Y-88900000D02*
X144840000Y-88900000D01*
X144840000Y-88900000D02*
X136520000Y-88900000D01*
X136520000Y-88900000D02*
X135150000Y-90270000D01*
X208160000Y-58940000D02*
X208160000Y-59990000D01*
X207790000Y-70210000D02*
X208640000Y-70210000D01*
X206770000Y-69190000D02*
X207790000Y-70210000D01*
X206770000Y-61380000D02*
X206770000Y-69190000D01*
X208160000Y-59990000D02*
X206770000Y-61380000D01*
X36800000Y-123290000D02*
X36800000Y-122900000D01*
X36800000Y-122900000D02*
X34860000Y-120960000D01*
X48230000Y-112470000D02*
X51660000Y-109040000D01*
X36090000Y-112470000D02*
X48230000Y-112470000D01*
X34860000Y-113700000D02*
X36090000Y-112470000D01*
X34860000Y-120960000D02*
X34860000Y-113700000D01*
X36350000Y-133080000D02*
X36350000Y-123740000D01*
X36350000Y-123740000D02*
X36800000Y-123290000D01*
X40010000Y-123290000D02*
X36800000Y-123290000D01*
X36820000Y-123310000D02*
X36800000Y-123290000D01*
X42160000Y-131250000D02*
X37750000Y-131250000D01*
X34620000Y-137730000D02*
X33160000Y-137730000D01*
X36350000Y-136000000D02*
X34620000Y-137730000D01*
X36350000Y-132650000D02*
X36350000Y-133080000D01*
X36350000Y-133080000D02*
X36350000Y-136000000D01*
X37750000Y-131250000D02*
X36350000Y-132650000D01*
X69160000Y-134240000D02*
X69160000Y-134300000D01*
X69160000Y-134300000D02*
X67200000Y-136260000D01*
X67200000Y-136260000D02*
X58720000Y-136260000D01*
X58720000Y-136260000D02*
X54140000Y-131680000D01*
X54140000Y-131680000D02*
X51970000Y-131680000D01*
X51970000Y-131680000D02*
X50230000Y-133420000D01*
X50230000Y-133420000D02*
X47300000Y-133420000D01*
X47300000Y-133420000D02*
X46870000Y-132990000D01*
X46870000Y-132990000D02*
X43900000Y-132990000D01*
X43900000Y-132990000D02*
X42160000Y-131250000D01*
X102230000Y-101170000D02*
X102230000Y-104630000D01*
X102230000Y-104630000D02*
X103020000Y-105420000D01*
X58250000Y-118410000D02*
X58250000Y-114480000D01*
X58250000Y-114480000D02*
X55880000Y-112110000D01*
X42160000Y-131250000D02*
X41950000Y-131250000D01*
X129840000Y-110700000D02*
X129840000Y-113800000D01*
X129840000Y-113800000D02*
X129780000Y-113860000D01*
X127070000Y-117100000D02*
X127070000Y-115060000D01*
X128270000Y-113860000D02*
X129780000Y-113860000D01*
X127070000Y-115060000D02*
X128270000Y-113860000D01*
X127070000Y-117100000D02*
X127070000Y-120160000D01*
X127070000Y-120160000D02*
X126940000Y-120290000D01*
X129750000Y-113830000D02*
X129780000Y-113860000D01*
X102220000Y-113270000D02*
X102220000Y-116450000D01*
X102220000Y-116450000D02*
X102230000Y-116460000D01*
X102220000Y-112000000D02*
X102220000Y-113270000D01*
X102220000Y-112000000D02*
X102220000Y-106220000D01*
X102220000Y-106220000D02*
X103020000Y-105420000D01*
X93610000Y-115030000D02*
X84170000Y-115110000D01*
X84170000Y-115110000D02*
X82870000Y-113810000D01*
X75770000Y-124610000D02*
X75770000Y-121680000D01*
X75770000Y-121680000D02*
X74905178Y-120815178D01*
X75720000Y-127830000D02*
X75720000Y-124660000D01*
X75720000Y-124660000D02*
X75770000Y-124610000D01*
X75770000Y-124610000D02*
X76160000Y-124610000D01*
X82870000Y-113690000D02*
X82870000Y-113810000D01*
X82870000Y-113810000D02*
X82870000Y-119550000D01*
X82870000Y-119550000D02*
X81581064Y-120838936D01*
X81581064Y-120838936D02*
X74905178Y-120815178D01*
X46910000Y-97050000D02*
X49800000Y-97050000D01*
X49800000Y-97050000D02*
X49910000Y-96940000D01*
X98690000Y-30320000D02*
X100410000Y-32040000D01*
X100410000Y-32040000D02*
X100410000Y-32450000D01*
X96280000Y-28300000D02*
X98640000Y-28300000D01*
X100410000Y-30070000D02*
X100410000Y-32450000D01*
X98640000Y-28300000D02*
X100410000Y-30070000D01*
X58250000Y-119680000D02*
X58250000Y-118410000D01*
X59270000Y-120700000D02*
X58250000Y-119680000D01*
X66320000Y-120620000D02*
X59270000Y-120700000D01*
X66400000Y-120700000D02*
X66320000Y-120620000D01*
X74905178Y-120815178D02*
X67830000Y-120790000D01*
X150290000Y-118270000D02*
X141890000Y-118270000D01*
X135840000Y-117150000D02*
X136800000Y-116120000D01*
X135840000Y-121230000D02*
X135840000Y-117150000D01*
X136230000Y-121670000D02*
X135840000Y-121230000D01*
X140210000Y-121670000D02*
X136230000Y-121670000D01*
X140900000Y-120980000D02*
X140210000Y-121670000D01*
X140900000Y-119260000D02*
X140900000Y-120980000D01*
X141890000Y-118270000D02*
X140900000Y-119260000D01*
X195330000Y-100970000D02*
X196710000Y-100970000D01*
X197850000Y-99830000D02*
X197850000Y-88990000D01*
X196710000Y-100970000D02*
X197850000Y-99830000D01*
X197850000Y-88990000D02*
X197400000Y-88540000D01*
X200600000Y-99480000D02*
X200060000Y-99480000D01*
X200060000Y-99480000D02*
X198570000Y-100970000D01*
X198570000Y-100970000D02*
X195330000Y-100970000D01*
X43530000Y-78500000D02*
X46840000Y-81810000D01*
X43530000Y-74310000D02*
X43530000Y-78500000D01*
X42490000Y-73270000D02*
X43530000Y-74310000D01*
X36830000Y-73270000D02*
X42490000Y-73270000D01*
X35840000Y-74260000D02*
X36830000Y-73270000D01*
X35840000Y-77400000D02*
X35840000Y-74260000D01*
X35800000Y-77440000D02*
X35840000Y-77400000D01*
X46840000Y-81810000D02*
X46910000Y-81810000D01*
X58250000Y-118410000D02*
X58250000Y-117750000D01*
X49790000Y-77950000D02*
X49290000Y-77450000D01*
X47000000Y-77450000D02*
X49290000Y-77450000D01*
X51430000Y-45090000D02*
X48520000Y-45090000D01*
X53840000Y-47500000D02*
X51430000Y-45090000D01*
X48610000Y-41970000D02*
X48610000Y-45000000D01*
X48610000Y-45000000D02*
X48520000Y-45090000D01*
X58260000Y-50980000D02*
X58260000Y-51440000D01*
X64500000Y-44740000D02*
X58260000Y-50980000D01*
X64500000Y-42470000D02*
X64500000Y-44740000D01*
X65090000Y-41880000D02*
X64500000Y-42470000D01*
X144280000Y-41870000D02*
X144280000Y-41140000D01*
X144280000Y-41140000D02*
X145220000Y-40200000D01*
X149250000Y-44340000D02*
X160800000Y-44340000D01*
X148080000Y-43180000D02*
X149250000Y-44340000D01*
X148080000Y-40720000D02*
X148080000Y-43180000D01*
X147570000Y-40200000D02*
X148080000Y-40720000D01*
X145220000Y-40200000D02*
X147570000Y-40200000D01*
X156980000Y-49490000D02*
X156980000Y-47990000D01*
X158170000Y-46800000D02*
X160740000Y-46800000D01*
X156980000Y-47990000D02*
X158170000Y-46800000D01*
X119440000Y-31100000D02*
X121880000Y-31100000D01*
X122370000Y-33440000D02*
X122860000Y-33980000D01*
X122370000Y-31540000D02*
X122370000Y-33440000D01*
X121880000Y-31100000D02*
X122370000Y-31540000D01*
X90250000Y-34300000D02*
X94960000Y-34300000D01*
X95330000Y-33930000D02*
X95330000Y-32450000D01*
X94960000Y-34300000D02*
X95330000Y-33930000D01*
X130340000Y-30020000D02*
X128430000Y-30020000D01*
X160800000Y-41030000D02*
X149730000Y-30020000D01*
X149730000Y-30020000D02*
X130340000Y-30020000D01*
X160750000Y-48830000D02*
X160740000Y-46800000D01*
X160740000Y-46800000D02*
X160800000Y-44340000D01*
X160800000Y-44340000D02*
X160800000Y-41030000D01*
X128430000Y-30020000D02*
X127430000Y-30980000D01*
X127430000Y-30980000D02*
X127430000Y-33490000D01*
X127430000Y-33490000D02*
X126980000Y-33980000D01*
X126980000Y-33980000D02*
X122860000Y-33980000D01*
X119440000Y-31100000D02*
X117380000Y-31100000D01*
X135200000Y-111030000D02*
X135200000Y-107540000D01*
X136400000Y-104900000D02*
X138430000Y-102870000D01*
X136400000Y-106340000D02*
X136400000Y-104900000D01*
X135200000Y-107540000D02*
X136400000Y-106340000D01*
X135200000Y-111030000D02*
X135200000Y-114520000D01*
X135200000Y-114520000D02*
X136800000Y-116120000D01*
X100410000Y-32450000D02*
X100410000Y-32430000D01*
X67510000Y-28300000D02*
X67480000Y-28270000D01*
X96280000Y-28300000D02*
X67510000Y-28300000D01*
X116010000Y-32470000D02*
X116010000Y-32720000D01*
X116010000Y-32720000D02*
X114670000Y-34060000D01*
X106430000Y-36230000D02*
X90070000Y-36230000D01*
X108600000Y-34060000D02*
X106430000Y-36230000D01*
X114670000Y-34060000D02*
X108600000Y-34060000D01*
X117380000Y-31100000D02*
X116010000Y-32470000D01*
X191080000Y-55570000D02*
X165790000Y-55570000D01*
X160750000Y-50540000D02*
X160750000Y-48830000D01*
X165790000Y-55570000D02*
X160750000Y-50540000D01*
X189270000Y-82280000D02*
X189270000Y-82470000D01*
X193480000Y-86680000D02*
X193480000Y-87510000D01*
X189270000Y-82470000D02*
X193480000Y-86680000D01*
X199370000Y-82910000D02*
X198080000Y-82910000D01*
X198080000Y-82910000D02*
X193480000Y-87510000D01*
X191080000Y-55800000D02*
X191080000Y-55570000D01*
X189270000Y-57610000D02*
X191080000Y-55800000D01*
X189270000Y-82290000D02*
X189270000Y-82280000D01*
X189270000Y-82280000D02*
X189270000Y-57610000D01*
X160990000Y-93910000D02*
X158810000Y-93910000D01*
X158810000Y-93910000D02*
X158560000Y-94160000D01*
X179070000Y-90170000D02*
X169450000Y-90170000D01*
X159920000Y-93910000D02*
X159900000Y-93930000D01*
X165710000Y-93910000D02*
X160990000Y-93910000D01*
X160990000Y-93910000D02*
X159920000Y-93910000D01*
X169450000Y-90170000D02*
X165710000Y-93910000D01*
X190940000Y-50010000D02*
X191820000Y-50010000D01*
X191820000Y-50010000D02*
X197740000Y-44090000D01*
X203240000Y-50770000D02*
X191700000Y-50770000D01*
X191700000Y-50770000D02*
X190940000Y-50010000D01*
X90250000Y-32450000D02*
X90250000Y-34300000D01*
X90250000Y-34300000D02*
X90250000Y-37530000D01*
X90250000Y-37530000D02*
X92790000Y-40070000D01*
X97870000Y-40070000D02*
X97870000Y-40300000D01*
X97870000Y-40300000D02*
X96740000Y-41430000D01*
X96740000Y-41430000D02*
X94150000Y-41430000D01*
X94150000Y-41430000D02*
X92790000Y-40070000D01*
X100410000Y-32450000D02*
X101960000Y-30900000D01*
X101840000Y-30900000D02*
X109490000Y-30900000D01*
X109490000Y-30900000D02*
X111390000Y-32800000D01*
X101960000Y-30900000D02*
X101880000Y-30900000D01*
X101880000Y-30900000D02*
X101840000Y-30940000D01*
X101840000Y-30940000D02*
X101840000Y-30900000D01*
X116010000Y-32470000D02*
X110830000Y-32470000D01*
X110830000Y-32470000D02*
X111160000Y-32800000D01*
X111160000Y-32800000D02*
X111390000Y-32800000D01*
X33240000Y-78110000D02*
X33240000Y-81640000D01*
X33240000Y-81640000D02*
X33000000Y-81880000D01*
X47000000Y-77450000D02*
X47000000Y-81720000D01*
X47000000Y-81720000D02*
X46910000Y-81810000D01*
X90250000Y-32450000D02*
X86600000Y-32450000D01*
X86600000Y-32450000D02*
X86560000Y-32410000D01*
X66550000Y-34980000D02*
X66550000Y-38590000D01*
X66550000Y-38590000D02*
X66610000Y-38650000D01*
X144280000Y-41870000D02*
X141360000Y-41870000D01*
X141360000Y-41870000D02*
X139390000Y-43840000D01*
X82800000Y-100950000D02*
X82880000Y-101030000D01*
X82880000Y-101030000D02*
X82870000Y-113690000D01*
X82870000Y-113690000D02*
X82870000Y-113770000D01*
X93610000Y-115030000D02*
X93540000Y-115100000D01*
X77030000Y-97880000D02*
X78380000Y-97880000D01*
X78380000Y-97880000D02*
X79030000Y-97230000D01*
X79030000Y-97230000D02*
X80240000Y-97230000D01*
X146240000Y-106510000D02*
X141660000Y-106510000D01*
X147950000Y-104730000D02*
X146240000Y-106510000D01*
X183680000Y-137800000D02*
X187030000Y-137800000D01*
X191140000Y-116880000D02*
X189880000Y-115620000D01*
X191140000Y-133690000D02*
X191140000Y-116880000D01*
X187030000Y-137800000D02*
X191140000Y-133690000D01*
X183680000Y-137800000D02*
X171030000Y-137800000D01*
X171030000Y-137800000D02*
X170690000Y-138140000D01*
X182460000Y-89190000D02*
X180050000Y-89190000D01*
X180050000Y-89190000D02*
X179070000Y-90170000D01*
X201020000Y-82910000D02*
X199370000Y-82910000D01*
X199370000Y-82910000D02*
X198940000Y-82910000D01*
X201020000Y-82910000D02*
X200860000Y-82910000D01*
X200860000Y-82910000D02*
X197400000Y-86370000D01*
X197400000Y-86370000D02*
X197400000Y-88540000D01*
X201020000Y-82910000D02*
X201020000Y-83290000D01*
X129540000Y-62230000D02*
X128210000Y-62230000D01*
X115410000Y-64000000D02*
X115410000Y-63670000D01*
X116620000Y-65210000D02*
X115410000Y-64000000D01*
X126310000Y-65210000D02*
X116620000Y-65210000D01*
X127000000Y-64520000D02*
X126310000Y-65210000D01*
X127000000Y-63440000D02*
X127000000Y-64520000D01*
X128210000Y-62230000D02*
X127000000Y-63440000D01*
X106410000Y-62530000D02*
X102640000Y-62530000D01*
X107370000Y-63490000D02*
X106410000Y-62530000D01*
X102640000Y-62530000D02*
X102470000Y-62360000D01*
X138430000Y-87630000D02*
X135290000Y-87630000D01*
X135290000Y-87630000D02*
X135150000Y-87770000D01*
X132810000Y-62060000D02*
X129710000Y-62060000D01*
X129710000Y-62060000D02*
X129540000Y-62230000D01*
X126680000Y-120030000D02*
X126940000Y-120290000D01*
X153470000Y-120170000D02*
X152190000Y-120170000D01*
X152190000Y-120170000D02*
X150290000Y-118270000D01*
X195330000Y-108590000D02*
X194750000Y-108590000D01*
X195330000Y-108590000D02*
X195010000Y-108590000D01*
X195010000Y-108590000D02*
X193410000Y-106990000D01*
X193410000Y-106990000D02*
X193410000Y-102890000D01*
X193410000Y-102890000D02*
X195330000Y-100970000D01*
X199900000Y-88540000D02*
X199900000Y-86230000D01*
X205690000Y-80370000D02*
X208640000Y-80370000D01*
X201130000Y-84930000D02*
X205690000Y-80370000D01*
X201130000Y-85000000D02*
X201130000Y-84930000D01*
X199900000Y-86230000D02*
X201130000Y-85000000D01*
X209210000Y-88470000D02*
X209210000Y-86940000D01*
X211530000Y-78180000D02*
X208640000Y-75290000D01*
X211530000Y-84620000D02*
X211530000Y-78180000D01*
X209210000Y-86940000D02*
X211530000Y-84620000D01*
X211710000Y-88470000D02*
X211710000Y-87450000D01*
X212790000Y-76900000D02*
X208640000Y-72750000D01*
X212790000Y-86370000D02*
X212790000Y-76900000D01*
X211710000Y-87450000D02*
X212790000Y-86370000D01*
X208640000Y-82910000D02*
X206650000Y-82910000D01*
X203300000Y-86260000D02*
X203300000Y-88510000D01*
X206650000Y-82910000D02*
X203300000Y-86260000D01*
X205800000Y-88510000D02*
X205800000Y-86470000D01*
X210200000Y-79390000D02*
X208640000Y-77830000D01*
X210200000Y-84240000D02*
X210200000Y-79390000D01*
X209480000Y-84960000D02*
X210200000Y-84240000D01*
X207310000Y-84960000D02*
X209480000Y-84960000D01*
X205800000Y-86470000D02*
X207310000Y-84960000D01*
X215700000Y-111670000D02*
X215700000Y-110260000D01*
X208760000Y-108440000D02*
X207430000Y-109770000D01*
X213880000Y-108440000D02*
X208760000Y-108440000D01*
X215700000Y-110260000D02*
X213880000Y-108440000D01*
X207430000Y-109770000D02*
X207430000Y-110090000D01*
X207430000Y-110090000D02*
X202290000Y-110090000D01*
X202290000Y-110090000D02*
X201930000Y-109730000D01*
X201930000Y-109730000D02*
X201930000Y-109800000D01*
X201930000Y-109800000D02*
X200600000Y-111130000D01*
X200600000Y-111130000D02*
X195330000Y-111130000D01*
X195330000Y-103510000D02*
X195330000Y-106050000D01*
X215700000Y-104050000D02*
X215700000Y-105830000D01*
X209240000Y-107070000D02*
X207370000Y-105200000D01*
X214460000Y-107070000D02*
X209240000Y-107070000D01*
X215700000Y-105830000D02*
X214460000Y-107070000D01*
X207370000Y-105200000D02*
X202280000Y-105200000D01*
X202280000Y-105200000D02*
X201930000Y-104850000D01*
X195330000Y-106050000D02*
X200730000Y-106050000D01*
X200730000Y-106050000D02*
X201930000Y-104850000D01*
X89120000Y-43660000D02*
X89120000Y-41200000D01*
X89120000Y-41200000D02*
X90250000Y-40070000D01*
X90250000Y-40070000D02*
X86230000Y-40070000D01*
X86230000Y-40070000D02*
X85990000Y-40310000D01*
X185860000Y-50010000D02*
X185130000Y-50010000D01*
X185130000Y-50010000D02*
X184290000Y-50850000D01*
X184290000Y-50850000D02*
X174790000Y-50850000D01*
X174790000Y-50850000D02*
X174070000Y-50130000D01*
X174070000Y-50130000D02*
X174070000Y-48540000D01*
X174070000Y-48540000D02*
X174070000Y-42130000D01*
X174070000Y-42130000D02*
X174420000Y-41780000D01*
X42080000Y-58970000D02*
X38750000Y-58970000D01*
X38750000Y-58970000D02*
X38650000Y-58870000D01*
X40920000Y-48080000D02*
X40920000Y-48810000D01*
X40920000Y-48810000D02*
X40210000Y-49520000D01*
X40210000Y-49520000D02*
X40210000Y-57100000D01*
X40210000Y-57100000D02*
X42080000Y-58970000D01*
X104810000Y-47850000D02*
X100790000Y-47850000D01*
X100790000Y-47850000D02*
X100220000Y-48420000D01*
X102250000Y-43590000D02*
X102250000Y-45290000D01*
X102250000Y-45290000D02*
X104810000Y-47850000D01*
X102250000Y-43590000D02*
X101600000Y-43590000D01*
X101600000Y-43590000D02*
X100120000Y-45070000D01*
X100410000Y-40070000D02*
X100410000Y-41750000D01*
X100410000Y-41750000D02*
X102250000Y-43590000D01*
X102950000Y-40070000D02*
X102950000Y-40710000D01*
X102950000Y-40710000D02*
X105830000Y-43590000D01*
X105830000Y-43590000D02*
X109870000Y-43590000D01*
X112110000Y-43460000D02*
X110000000Y-43460000D01*
X110000000Y-43460000D02*
X109870000Y-43590000D01*
X109870000Y-43590000D02*
X109870000Y-47670000D01*
X109870000Y-47670000D02*
X109690000Y-47850000D01*
X40920000Y-39090000D02*
X38220000Y-39090000D01*
X38220000Y-39090000D02*
X38050000Y-39260000D01*
X40930000Y-34870000D02*
X40930000Y-39080000D01*
X40930000Y-39080000D02*
X40920000Y-39090000D01*
X72690000Y-99670000D02*
X72690000Y-98900000D01*
X75590000Y-76460000D02*
X77030000Y-75020000D01*
X75590000Y-85430000D02*
X75590000Y-76460000D01*
X73560000Y-87460000D02*
X75590000Y-85430000D01*
X73560000Y-98030000D02*
X73560000Y-87460000D01*
X72690000Y-98900000D02*
X73560000Y-98030000D01*
X106030000Y-113270000D02*
X106030000Y-131140000D01*
X106030000Y-131140000D02*
X107070000Y-132180000D01*
X165000000Y-86360000D02*
X166240000Y-86360000D01*
X170690000Y-99050000D02*
X170690000Y-99020000D01*
X170660000Y-99020000D02*
X170690000Y-99050000D01*
X170300000Y-99020000D02*
X170660000Y-99020000D01*
X167640000Y-97450000D02*
X170300000Y-99020000D01*
X167500000Y-87620000D02*
X167500000Y-90750000D01*
X166240000Y-86360000D02*
X167500000Y-87620000D01*
X72690000Y-99670000D02*
X72690000Y-108870000D01*
X72690000Y-108870000D02*
X67140000Y-114420000D01*
X67140000Y-114420000D02*
X67140000Y-121620000D01*
X67140000Y-121620000D02*
X77700000Y-132180000D01*
X77700000Y-132180000D02*
X107070000Y-132180000D01*
X107070000Y-132180000D02*
X107900000Y-132180000D01*
X77030000Y-75020000D02*
X77030000Y-75170000D01*
X107900000Y-132180000D02*
X124950000Y-132180000D01*
X169460000Y-134810000D02*
X169930000Y-134340000D01*
X127750000Y-134810000D02*
X169460000Y-134810000D01*
X127690000Y-134870000D02*
X127750000Y-134810000D01*
X175630000Y-120210000D02*
X175630000Y-126710000D01*
X175630000Y-120210000D02*
X175630000Y-118540000D01*
X183090000Y-111540000D02*
X183090000Y-98430000D01*
X180440000Y-114190000D02*
X183090000Y-111540000D01*
X179980000Y-114190000D02*
X180440000Y-114190000D01*
X175630000Y-118540000D02*
X179980000Y-114190000D01*
X173400000Y-129810000D02*
X173400000Y-128940000D01*
X173400000Y-128940000D02*
X175630000Y-126710000D01*
X173400000Y-129810000D02*
X171400000Y-129810000D01*
X171400000Y-129810000D02*
X170690000Y-130520000D01*
X162000000Y-80140000D02*
X162040000Y-80140000D01*
X162000000Y-85930000D02*
X162000000Y-80140000D01*
X162400000Y-86360000D02*
X162000000Y-85930000D01*
X165000000Y-86360000D02*
X162400000Y-86360000D01*
X161800000Y-64260000D02*
X163830000Y-62230000D01*
X161800000Y-76350000D02*
X161800000Y-64260000D01*
X161870000Y-76420000D02*
X161800000Y-76350000D01*
X162040000Y-80140000D02*
X162010000Y-78700000D01*
X187710000Y-98430000D02*
X183090000Y-98430000D01*
X183090000Y-98430000D02*
X181190000Y-98430000D01*
X180600000Y-99020000D02*
X170690000Y-99020000D01*
X181190000Y-98430000D02*
X180600000Y-99020000D01*
X157480000Y-116130000D02*
X156520000Y-115170000D01*
X172320000Y-116130000D02*
X157480000Y-116130000D01*
X174640000Y-118450000D02*
X172320000Y-116130000D01*
X183930000Y-120150000D02*
X183930000Y-126650000D01*
X181020000Y-129810000D02*
X183310000Y-129810000D01*
X183310000Y-129810000D02*
X183680000Y-130180000D01*
X183930000Y-126650000D02*
X183930000Y-129930000D01*
X183930000Y-129930000D02*
X183680000Y-130180000D01*
X183820000Y-130040000D02*
X183680000Y-130180000D01*
X181150000Y-129680000D02*
X181020000Y-129810000D01*
X205220000Y-39000000D02*
X205220000Y-43950000D01*
X205220000Y-43950000D02*
X205360000Y-44090000D01*
X109310000Y-107710000D02*
X107610000Y-107710000D01*
X105870000Y-102270000D02*
X104770000Y-101170000D01*
X105870000Y-105970000D02*
X105870000Y-102270000D01*
X107610000Y-107710000D02*
X105870000Y-105970000D01*
X40900000Y-45090000D02*
X43230000Y-45090000D01*
X46220000Y-48080000D02*
X48540000Y-48080000D01*
X43230000Y-45090000D02*
X46220000Y-48080000D01*
X40990000Y-41970000D02*
X42690000Y-41970000D01*
X45570000Y-39090000D02*
X48540000Y-39090000D01*
X42690000Y-41970000D02*
X45570000Y-39090000D01*
X113650000Y-112000000D02*
X113650000Y-107920000D01*
X113650000Y-107920000D02*
X116580000Y-104990000D01*
X39290000Y-81810000D02*
X43030000Y-81810000D01*
X44000000Y-82780000D02*
X44000000Y-82740000D01*
X43030000Y-81810000D02*
X44000000Y-82780000D01*
X44270000Y-83990000D02*
X45895000Y-85615000D01*
X44270000Y-83010000D02*
X44270000Y-83990000D01*
X44000000Y-82740000D02*
X44270000Y-83010000D01*
X116580000Y-104990000D02*
X116380000Y-105190000D01*
X52290000Y-78860000D02*
X51980000Y-78880000D01*
X62380000Y-78860000D02*
X52290000Y-78860000D01*
X64130000Y-77110000D02*
X62380000Y-78860000D01*
X72410000Y-77110000D02*
X64130000Y-77110000D01*
X72700000Y-77400000D02*
X72410000Y-77110000D01*
X45910000Y-85630000D02*
X45895000Y-85615000D01*
X47870000Y-85630000D02*
X45910000Y-85630000D01*
X48970000Y-84530000D02*
X47870000Y-85630000D01*
X48970000Y-81660000D02*
X48970000Y-84530000D01*
X51980000Y-78880000D02*
X48970000Y-81660000D01*
X77030000Y-80100000D02*
X76580000Y-80100000D01*
X39290000Y-81810000D02*
X39290000Y-81470000D01*
X87230000Y-90300000D02*
X83150000Y-90300000D01*
X83150000Y-90300000D02*
X80270000Y-87790000D01*
X80270000Y-87790000D02*
X80270000Y-85260000D01*
X80270000Y-85260000D02*
X79570000Y-84190000D01*
X79570000Y-84190000D02*
X79570000Y-82640000D01*
X79570000Y-82640000D02*
X77030000Y-80100000D01*
X92960585Y-94147234D02*
X92167234Y-94057234D01*
X88590000Y-90480000D02*
X88360000Y-90480000D01*
X92167234Y-94057234D02*
X88590000Y-90480000D01*
X77340000Y-80100000D02*
X77030000Y-80100000D01*
X168230000Y-111930000D02*
X168230000Y-113440000D01*
X169670000Y-110490000D02*
X168230000Y-111930000D01*
X166770000Y-114470000D02*
X161220000Y-114470000D01*
X161220000Y-114470000D02*
X159400000Y-113690000D01*
X159400000Y-113690000D02*
X152550000Y-113690000D01*
X152550000Y-113690000D02*
X150950000Y-112090000D01*
X150950000Y-112090000D02*
X150950000Y-111020000D01*
X150950000Y-111020000D02*
X149320000Y-108880000D01*
X149320000Y-108880000D02*
X149320000Y-103850000D01*
X149320000Y-103850000D02*
X147030000Y-102070000D01*
X147030000Y-102070000D02*
X141790000Y-102070000D01*
X141790000Y-102070000D02*
X139720000Y-100000000D01*
X139720000Y-100000000D02*
X139720000Y-99730000D01*
X138430000Y-98440000D02*
X139720000Y-99730000D01*
X169670000Y-110490000D02*
X179070000Y-110490000D01*
X167200000Y-114470000D02*
X166770000Y-114470000D01*
X168230000Y-113440000D02*
X167200000Y-114470000D01*
X138430000Y-98440000D02*
X138430000Y-97790000D01*
X111110000Y-95280000D02*
X109320000Y-94090000D01*
X109320000Y-94090000D02*
X92960585Y-94147234D01*
X88360000Y-90480000D02*
X88180000Y-90300000D01*
X88180000Y-90300000D02*
X87230000Y-90300000D01*
X138430000Y-97790000D02*
X133880000Y-97790000D01*
X126220000Y-99960000D02*
X116540000Y-99960000D01*
X126770000Y-100680000D02*
X126220000Y-99960000D01*
X126770000Y-101860000D02*
X126770000Y-100680000D01*
X128380000Y-103740000D02*
X126770000Y-101860000D01*
X131660000Y-103740000D02*
X128380000Y-103740000D01*
X132950000Y-102130000D02*
X131660000Y-103740000D01*
X132950000Y-98400000D02*
X132950000Y-102130000D01*
X133880000Y-97790000D02*
X132950000Y-98400000D01*
X88250000Y-105130000D02*
X88250000Y-112000000D01*
X76000000Y-99170000D02*
X75840000Y-99170000D01*
X74190000Y-88020000D02*
X77030000Y-85180000D01*
X74190000Y-97520000D02*
X74190000Y-88020000D01*
X75840000Y-99170000D02*
X74190000Y-97520000D01*
X83770000Y-100640000D02*
X83770000Y-100650000D01*
X83770000Y-100650000D02*
X88250000Y-105130000D01*
X83900000Y-100770000D02*
X83770000Y-100640000D01*
X83770000Y-100640000D02*
X81550000Y-98420000D01*
X81550000Y-98420000D02*
X79090000Y-98420000D01*
X79090000Y-98420000D02*
X78400000Y-99170000D01*
X78400000Y-99170000D02*
X76000000Y-99170000D01*
X50170000Y-84490000D02*
X50170000Y-83020000D01*
X59570000Y-83180000D02*
X60240000Y-83850000D01*
X59570000Y-82030000D02*
X59570000Y-83180000D01*
X58530000Y-80420000D02*
X59570000Y-82030000D01*
X52400000Y-80420000D02*
X58530000Y-80420000D01*
X50170000Y-83020000D02*
X52400000Y-80420000D01*
X33000000Y-86960000D02*
X39220000Y-86960000D01*
X39220000Y-86960000D02*
X39290000Y-86890000D01*
X61940000Y-83910000D02*
X60240000Y-83850000D01*
X61970000Y-83880000D02*
X61940000Y-83910000D01*
X70470000Y-83880000D02*
X61970000Y-83880000D01*
X71340000Y-84710000D02*
X70470000Y-83880000D01*
X41870000Y-86890000D02*
X39290000Y-86890000D01*
X45670000Y-90690000D02*
X41870000Y-86890000D01*
X48060000Y-90690000D02*
X45670000Y-90690000D01*
X48420000Y-90330000D02*
X48060000Y-90690000D01*
X48420000Y-89410000D02*
X48420000Y-90330000D01*
X50170000Y-87660000D02*
X48420000Y-89410000D01*
X50170000Y-84490000D02*
X50170000Y-87660000D01*
X39820000Y-87420000D02*
X39290000Y-86890000D01*
X76520000Y-85180000D02*
X77030000Y-85180000D01*
X102470000Y-95380000D02*
X92360000Y-95380000D01*
X79460000Y-87980000D02*
X79460000Y-86190000D01*
X83240000Y-91540000D02*
X79460000Y-87980000D01*
X88560000Y-91540000D02*
X83240000Y-91540000D01*
X92360000Y-95380000D02*
X88560000Y-91540000D01*
X179070000Y-107950000D02*
X168580000Y-107950000D01*
X143670000Y-100050000D02*
X142810000Y-99840000D01*
X147790000Y-100050000D02*
X143670000Y-100050000D01*
X150650000Y-102850000D02*
X147790000Y-100050000D01*
X150650000Y-106540000D02*
X150650000Y-102850000D01*
X152460000Y-109200000D02*
X150650000Y-106540000D01*
X160100000Y-109230000D02*
X152460000Y-109200000D01*
X160590000Y-109720000D02*
X160100000Y-109230000D01*
X160590000Y-111440000D02*
X160590000Y-109720000D01*
X162420000Y-113270000D02*
X160590000Y-111440000D01*
X165550000Y-113270000D02*
X162420000Y-113270000D01*
X166380000Y-112440000D02*
X165550000Y-113270000D01*
X166380000Y-110150000D02*
X166380000Y-112440000D01*
X168580000Y-107950000D02*
X166380000Y-110150000D01*
X102470000Y-95380000D02*
X109020000Y-95380000D01*
X112710000Y-102380000D02*
X125840000Y-102380000D01*
X111240000Y-100860000D02*
X112710000Y-102380000D01*
X111240000Y-97550000D02*
X111240000Y-100860000D01*
X109020000Y-95380000D02*
X111240000Y-97550000D01*
X138430000Y-80010000D02*
X139470000Y-80010000D01*
X131210000Y-98660000D02*
X129540000Y-100330000D01*
X131210000Y-89630000D02*
X131210000Y-98660000D01*
X132220000Y-88560000D02*
X131210000Y-89630000D01*
X132220000Y-85280000D02*
X132220000Y-88560000D01*
X133720000Y-83800000D02*
X132220000Y-85280000D01*
X139400000Y-83800000D02*
X133720000Y-83800000D01*
X139840000Y-83050000D02*
X139400000Y-83800000D01*
X139840000Y-80730000D02*
X139840000Y-83050000D01*
X139470000Y-80010000D02*
X139840000Y-80730000D01*
X90790000Y-112000000D02*
X90790000Y-104160000D01*
X89250000Y-102620000D02*
X89250000Y-102600000D01*
X90790000Y-104160000D02*
X89250000Y-102620000D01*
X64150000Y-90230000D02*
X62916902Y-88996902D01*
X70810000Y-90230000D02*
X64150000Y-90230000D01*
X70840000Y-90260000D02*
X70810000Y-90230000D01*
X77030000Y-90260000D02*
X77030000Y-90390000D01*
X77030000Y-90390000D02*
X75550000Y-91870000D01*
X75550000Y-93230000D02*
X76380000Y-94060000D01*
X75550000Y-91870000D02*
X75550000Y-93230000D01*
X85037118Y-98412444D02*
X85062444Y-98412444D01*
X85062444Y-98412444D02*
X89250000Y-102600000D01*
X42250000Y-91970000D02*
X39290000Y-91970000D01*
X62250000Y-89000000D02*
X62916902Y-88996902D01*
X55180000Y-89000000D02*
X55090000Y-89090000D01*
X55090000Y-89090000D02*
X50970000Y-89050000D01*
X50970000Y-89050000D02*
X50940000Y-89020000D01*
X45710000Y-95770000D02*
X43270000Y-93330000D01*
X48170000Y-95770000D02*
X45710000Y-95770000D01*
X48830000Y-95110000D02*
X48170000Y-95770000D01*
X48830000Y-93690000D02*
X48830000Y-95110000D01*
X49900000Y-92620000D02*
X48830000Y-93690000D01*
X49900000Y-90060000D02*
X49900000Y-92620000D01*
X50940000Y-89020000D02*
X50900000Y-89060000D01*
X50900000Y-89060000D02*
X49900000Y-90060000D01*
X62250000Y-89000000D02*
X55180000Y-89000000D01*
X43270000Y-93330000D02*
X43270000Y-92990000D01*
X43270000Y-92990000D02*
X42250000Y-91970000D01*
X39290000Y-91970000D02*
X38080000Y-91970000D01*
X38080000Y-91970000D02*
X36780000Y-93310000D01*
X36780000Y-93310000D02*
X29110000Y-93310000D01*
X29110000Y-93310000D02*
X25380000Y-89500000D01*
X80660000Y-94060000D02*
X76380000Y-94060000D01*
X85120000Y-98494859D02*
X85037118Y-98412444D01*
X85037118Y-98412444D02*
X80660000Y-94060000D01*
X77030000Y-90260000D02*
X77030000Y-90330000D01*
X102470000Y-90300000D02*
X93590000Y-90300000D01*
X83330000Y-86490000D02*
X82420000Y-86780000D01*
X89830000Y-86490000D02*
X83330000Y-86490000D01*
X93590000Y-90300000D02*
X89830000Y-86490000D01*
X142040000Y-98740000D02*
X142240000Y-98940000D01*
X142240000Y-98940000D02*
X147750000Y-98910000D01*
X170050000Y-105410000D02*
X179070000Y-105410000D01*
X151260000Y-102340000D02*
X147750000Y-98910000D01*
X151260000Y-105460000D02*
X151260000Y-102340000D01*
X152340000Y-106620000D02*
X151260000Y-105460000D01*
X160410000Y-106620000D02*
X152340000Y-106620000D01*
X161440000Y-107650000D02*
X160410000Y-106620000D01*
X161440000Y-111230000D02*
X161440000Y-107650000D01*
X162610000Y-112400000D02*
X161440000Y-111230000D01*
X165040000Y-112400000D02*
X162610000Y-112400000D01*
X165430000Y-112010000D02*
X165040000Y-112400000D01*
X165430000Y-110030000D02*
X165430000Y-112010000D01*
X170050000Y-105410000D02*
X165430000Y-110030000D01*
X102470000Y-90300000D02*
X104430000Y-90300000D01*
X126820000Y-91830000D02*
X126820000Y-93910000D01*
X126410000Y-91420000D02*
X126820000Y-91830000D01*
X105550000Y-91420000D02*
X126410000Y-91420000D01*
X104430000Y-90300000D02*
X105550000Y-91420000D01*
X138430000Y-82550000D02*
X132060000Y-82550000D01*
X128240002Y-93950002D02*
X129540000Y-95250000D01*
X128240002Y-89429998D02*
X128240002Y-93950002D01*
X128810000Y-88860000D02*
X128240002Y-89429998D01*
X130890000Y-88860000D02*
X128810000Y-88860000D01*
X131610000Y-88100000D02*
X130890000Y-88860000D01*
X131610000Y-82960000D02*
X131610000Y-88100000D01*
X132060000Y-82550000D02*
X131610000Y-82960000D01*
X93330000Y-112000000D02*
X93330000Y-104550000D01*
X93330000Y-104550000D02*
X90710000Y-101930000D01*
X86285000Y-97445000D02*
X86285000Y-97505000D01*
X86285000Y-97505000D02*
X90710000Y-101930000D01*
X93330000Y-112000000D02*
X93330000Y-111700000D01*
X51330000Y-98310000D02*
X51250000Y-98310000D01*
X50540000Y-99020000D02*
X48390000Y-101170000D01*
X48390000Y-101170000D02*
X45690000Y-101170000D01*
X45690000Y-101170000D02*
X41570000Y-97050000D01*
X39290000Y-97050000D02*
X41570000Y-97050000D01*
X52080000Y-94120000D02*
X51330000Y-94870000D01*
X55050000Y-94120000D02*
X52080000Y-94120000D01*
X55090000Y-94080000D02*
X55050000Y-94120000D01*
X70510000Y-94080000D02*
X55090000Y-94080000D01*
X70840000Y-94410000D02*
X70510000Y-94080000D01*
X51330000Y-98310000D02*
X51330000Y-94870000D01*
X51250000Y-98310000D02*
X50540000Y-99020000D01*
X39290000Y-97050000D02*
X39230000Y-97050000D01*
X39230000Y-97050000D02*
X37890000Y-98390000D01*
X29190000Y-98390000D02*
X25380000Y-94580000D01*
X37890000Y-98390000D02*
X29190000Y-98390000D01*
X86360000Y-97520000D02*
X86285000Y-97445000D01*
X86285000Y-97445000D02*
X83490000Y-94650000D01*
X102470000Y-85220000D02*
X101230000Y-85220000D01*
X99430000Y-83420000D02*
X90270000Y-83420000D01*
X101230000Y-85220000D02*
X99430000Y-83420000D01*
X179070000Y-102870000D02*
X180030000Y-102870000D01*
X140200000Y-98790000D02*
X140180000Y-98790000D01*
X142550000Y-101140000D02*
X140200000Y-98790000D01*
X147310000Y-101140000D02*
X142550000Y-101140000D01*
X150000000Y-103340000D02*
X147310000Y-101140000D01*
X150000000Y-107410000D02*
X150000000Y-103340000D01*
X152060000Y-109960000D02*
X150000000Y-107410000D01*
X152060000Y-110950000D02*
X152060000Y-109960000D01*
X153660000Y-112550000D02*
X152060000Y-110950000D01*
X159830000Y-112550000D02*
X153660000Y-112550000D01*
X161660000Y-113890000D02*
X159830000Y-112550000D01*
X166120000Y-113890000D02*
X161660000Y-113890000D01*
X167380000Y-113260000D02*
X166120000Y-113890000D01*
X167380000Y-110720000D02*
X167380000Y-113260000D01*
X168840000Y-109260000D02*
X167380000Y-110720000D01*
X179870000Y-109260000D02*
X168840000Y-109260000D01*
X181010000Y-108120000D02*
X179870000Y-109260000D01*
X181010000Y-103850000D02*
X181010000Y-108120000D01*
X180030000Y-102870000D02*
X181010000Y-103850000D01*
X102470000Y-85220000D02*
X109260000Y-85220000D01*
X116840000Y-89510000D02*
X126720000Y-89510000D01*
X116090000Y-88760000D02*
X116840000Y-89510000D01*
X116090000Y-87200000D02*
X116090000Y-88760000D01*
X115230000Y-86350000D02*
X116090000Y-87200000D01*
X110380000Y-86350000D02*
X115230000Y-86350000D01*
X109260000Y-85220000D02*
X110380000Y-86350000D01*
X134690000Y-92710000D02*
X138430000Y-92710000D01*
X132660000Y-90410000D02*
X134690000Y-92710000D01*
X163830000Y-69850000D02*
X164430000Y-69850000D01*
X164430000Y-69850000D02*
X168260000Y-73680000D01*
X168260000Y-73680000D02*
X175690000Y-73680000D01*
X135200000Y-103410000D02*
X135200000Y-105350000D01*
X133340000Y-107210000D02*
X130610000Y-107210000D01*
X135200000Y-105350000D02*
X133340000Y-107210000D01*
X135200000Y-103410000D02*
X135350000Y-103410000D01*
X135350000Y-103410000D02*
X138430000Y-100330000D01*
X169070000Y-113760000D02*
X169020000Y-113760000D01*
X167320000Y-115120000D02*
X167320000Y-115100000D01*
X167660000Y-115120000D02*
X167320000Y-115120000D01*
X169020000Y-113760000D02*
X167660000Y-115120000D01*
X179070000Y-100330000D02*
X181810000Y-103070000D01*
X181810000Y-111200000D02*
X181810000Y-103070000D01*
X180470000Y-112540000D02*
X181810000Y-111200000D01*
X170290000Y-112540000D02*
X180470000Y-112540000D01*
X169060000Y-113770000D02*
X169070000Y-113760000D01*
X169070000Y-113760000D02*
X170290000Y-112540000D01*
X138430000Y-100330000D02*
X138430000Y-100460000D01*
X138430000Y-100460000D02*
X141040000Y-103070000D01*
X160810000Y-115100000D02*
X167320000Y-115100000D01*
X158910000Y-114490000D02*
X160810000Y-115100000D01*
X151670000Y-114490000D02*
X158910000Y-114490000D01*
X150000000Y-112820000D02*
X151670000Y-114490000D01*
X150000000Y-111250000D02*
X150000000Y-112820000D01*
X148700000Y-109220000D02*
X150000000Y-111250000D01*
X148700000Y-104330000D02*
X148700000Y-109220000D01*
X146710000Y-103070000D02*
X148700000Y-104330000D01*
X141040000Y-103070000D02*
X146710000Y-103070000D01*
X167320000Y-115100000D02*
X167510000Y-115100000D01*
X163830000Y-74930000D02*
X164560000Y-74930000D01*
X164560000Y-74930000D02*
X165320000Y-75690000D01*
X165320000Y-75690000D02*
X173260000Y-75690000D01*
X173260000Y-75690000D02*
X176360000Y-78790000D01*
X176360000Y-78790000D02*
X177840000Y-78790000D01*
X82910000Y-26580000D02*
X83090000Y-26580000D01*
X152590000Y-29150000D02*
X125810000Y-29150000D01*
X164900000Y-42300000D02*
X152590000Y-29150000D01*
X164900000Y-49150000D02*
X164900000Y-42300000D01*
X169980000Y-54230000D02*
X164900000Y-49150000D01*
X208010000Y-54230000D02*
X169980000Y-54230000D01*
X210440000Y-56660000D02*
X208010000Y-54230000D01*
X210440000Y-60250000D02*
X210440000Y-56660000D01*
X214310000Y-64120000D02*
X210440000Y-60250000D01*
X219450000Y-64120000D02*
X214310000Y-64120000D01*
X224740000Y-69410000D02*
X219450000Y-64120000D01*
X224740000Y-90410000D02*
X224740000Y-70790000D01*
X221270000Y-93880000D02*
X224740000Y-90410000D01*
X202623489Y-93841836D02*
X221270000Y-93880000D01*
X198683489Y-98331836D02*
X202623489Y-93841836D01*
X224740000Y-70790000D02*
X224740000Y-69410000D01*
X123353588Y-26693588D02*
X125810000Y-29150000D01*
X83203588Y-26693588D02*
X123353588Y-26693588D01*
X83090000Y-26580000D02*
X83203588Y-26693588D01*
X187230000Y-91360000D02*
X187230000Y-91260000D01*
X178230000Y-86390000D02*
X176800000Y-84960000D01*
X179960000Y-86390000D02*
X178230000Y-86390000D01*
X181500000Y-87930000D02*
X179960000Y-86390000D01*
X183900000Y-87930000D02*
X181500000Y-87930000D01*
X187230000Y-91260000D02*
X183900000Y-87930000D01*
X179070000Y-62230000D02*
X177840000Y-62230000D01*
X176940000Y-75840000D02*
X179070000Y-77470000D01*
X176940000Y-62790000D02*
X176940000Y-75840000D01*
X177840000Y-62230000D02*
X176940000Y-62790000D01*
X179070000Y-77470000D02*
X179070000Y-80010000D01*
X163830000Y-80010000D02*
X163830000Y-77470000D01*
X163830000Y-77470000D02*
X160440000Y-77470000D01*
X151430000Y-76110000D02*
X159080000Y-76110000D01*
X150530000Y-75210000D02*
X151430000Y-76110000D01*
X142390000Y-75210000D02*
X150530000Y-75210000D01*
X142250000Y-75350000D02*
X142390000Y-75210000D01*
X160440000Y-77470000D02*
X159080000Y-76110000D01*
X179070000Y-80010000D02*
X163830000Y-80010000D01*
X195330000Y-98430000D02*
X194300000Y-98430000D01*
X176800000Y-82280000D02*
X179070000Y-80010000D01*
X176800000Y-84960000D02*
X176800000Y-82280000D01*
X194300000Y-98430000D02*
X187230000Y-91360000D01*
X153670000Y-95250000D02*
X156910000Y-95250000D01*
X156910000Y-95250000D02*
X158160000Y-96500000D01*
X168950000Y-92710000D02*
X179070000Y-92710000D01*
X165160000Y-96500000D02*
X168950000Y-92710000D01*
X158160000Y-96500000D02*
X165160000Y-96500000D01*
X163830000Y-82550000D02*
X164720000Y-82550000D01*
X165910000Y-83740000D02*
X175940000Y-83740000D01*
X164720000Y-82550000D02*
X165910000Y-83740000D01*
X179070000Y-82550000D02*
X182890000Y-82550000D01*
X182890000Y-82550000D02*
X184680000Y-80760000D01*
X158550000Y-120170000D02*
X158550000Y-119960000D01*
X158550000Y-119960000D02*
X153960000Y-115370000D01*
X153960000Y-115370000D02*
X153960000Y-115300000D01*
X165030000Y-90170000D02*
X163830000Y-90170000D01*
X165930000Y-91070000D02*
X165030000Y-90170000D01*
X153670000Y-110490000D02*
X157030000Y-110490000D01*
X157030000Y-110490000D02*
X157200000Y-110320000D01*
X158550000Y-120170000D02*
X158460000Y-120170000D01*
X108460000Y-103600000D02*
X111730000Y-106870000D01*
X111730000Y-106870000D02*
X111730000Y-109390000D01*
X111730000Y-109390000D02*
X109840000Y-111280000D01*
X109840000Y-111280000D02*
X109840000Y-112000000D01*
X108460000Y-103070000D02*
X108460000Y-103600000D01*
X61790000Y-80100000D02*
X62300000Y-80100000D01*
X62300000Y-80100000D02*
X64290000Y-78110000D01*
X72630000Y-78110000D02*
X72750000Y-78230000D01*
X64290000Y-78110000D02*
X72630000Y-78110000D01*
X87230000Y-82680000D02*
X81560000Y-82680000D01*
X81560000Y-82680000D02*
X81440000Y-82560000D01*
X87230000Y-82680000D02*
X99580000Y-82680000D01*
X99580000Y-82680000D02*
X100900000Y-83960000D01*
X109240000Y-83960000D02*
X109300000Y-84020000D01*
X100900000Y-83960000D02*
X109240000Y-83960000D01*
X110780000Y-83470000D02*
X110780000Y-83410000D01*
X111340000Y-84030000D02*
X110780000Y-83470000D01*
X157070000Y-54710000D02*
X157080000Y-54710000D01*
X111290000Y-54710000D02*
X157070000Y-54710000D01*
X108730000Y-57860000D02*
X111290000Y-54710000D01*
X108730000Y-78880000D02*
X108730000Y-57860000D01*
X110780000Y-81560000D02*
X108730000Y-78880000D01*
X110780000Y-83410000D02*
X110780000Y-81560000D01*
X159330000Y-56960000D02*
X159330000Y-69740000D01*
X159330000Y-69740000D02*
X158760000Y-70310000D01*
X158760000Y-70310000D02*
X158760000Y-74700000D01*
X158760000Y-74700000D02*
X158030000Y-75430000D01*
X157080000Y-54710000D02*
X159330000Y-56960000D01*
X153670000Y-85090000D02*
X153670000Y-85100000D01*
X153670000Y-85100000D02*
X156650002Y-88080002D01*
X157440000Y-92710000D02*
X163830000Y-92710000D01*
X156650002Y-91920002D02*
X157440000Y-92710000D01*
X156650002Y-88080002D02*
X156650002Y-91920002D01*
X114300000Y-87630000D02*
X114130000Y-87630000D01*
X111110000Y-112000000D02*
X111110000Y-111340000D01*
X111110000Y-111340000D02*
X112450000Y-110000000D01*
X112450000Y-110000000D02*
X112450000Y-106290000D01*
X112450000Y-106290000D02*
X110580000Y-104420000D01*
X61790000Y-82640000D02*
X70890000Y-82640000D01*
X70890000Y-82640000D02*
X72100000Y-83850000D01*
X85806388Y-85447383D02*
X85020000Y-85420000D01*
X85020000Y-85420000D02*
X81880000Y-85420000D01*
X85806388Y-85447383D02*
X87230000Y-85220000D01*
X102130000Y-89040000D02*
X94020000Y-89040000D01*
X94020000Y-89040000D02*
X90200000Y-85220000D01*
X87230000Y-85220000D02*
X90200000Y-85220000D01*
X110280000Y-84290000D02*
X110229998Y-84290000D01*
X110229998Y-84340002D02*
X110280000Y-84290000D01*
X110229998Y-84389998D02*
X110229998Y-84340002D01*
X110960000Y-85120000D02*
X110229998Y-84389998D01*
X110229998Y-84290000D02*
X110229998Y-83890000D01*
X110229998Y-83890000D02*
X110229998Y-82439998D01*
X110229998Y-82439998D02*
X108130000Y-79490000D01*
X108130000Y-79490000D02*
X108130000Y-57330000D01*
X108130000Y-57330000D02*
X110690000Y-54100000D01*
X110690000Y-54100000D02*
X157470000Y-54100000D01*
X157470000Y-54100000D02*
X160070000Y-56700000D01*
X160070000Y-56700000D02*
X160070000Y-70100000D01*
X160070000Y-70100000D02*
X159560000Y-70610000D01*
X159560000Y-70610000D02*
X159560000Y-74950000D01*
X159560000Y-74950000D02*
X159090000Y-75420000D01*
X112130000Y-89040000D02*
X112720000Y-89630000D01*
X102130000Y-89040000D02*
X112130000Y-89040000D01*
X153670000Y-87630000D02*
X154570000Y-87630000D01*
X158090000Y-95250000D02*
X163830000Y-95250000D01*
X156100000Y-93260000D02*
X158090000Y-95250000D01*
X156100000Y-89160000D02*
X156100000Y-93260000D01*
X154570000Y-87630000D02*
X156100000Y-89160000D01*
X114300000Y-90170000D02*
X113260000Y-90170000D01*
X113260000Y-90170000D02*
X112720000Y-89630000D01*
X179070000Y-74930000D02*
X179070000Y-75140000D01*
X179070000Y-75140000D02*
X182150000Y-78220000D01*
X182150000Y-78220000D02*
X184680000Y-78220000D01*
X155770000Y-48040000D02*
X155770000Y-47220000D01*
X146820000Y-44510000D02*
X146820000Y-41870000D01*
X148210000Y-45900000D02*
X146820000Y-44510000D01*
X154450000Y-45900000D02*
X148210000Y-45900000D01*
X155770000Y-47220000D02*
X154450000Y-45900000D01*
X155770000Y-48090000D02*
X155770000Y-48040000D01*
X155770000Y-48040000D02*
X155770000Y-48000000D01*
X155770000Y-48000000D02*
X155770000Y-47870000D01*
X155770000Y-48090000D02*
X155690000Y-48530000D01*
X161740000Y-91390000D02*
X160680000Y-90330000D01*
X160680000Y-90330000D02*
X160680000Y-78930000D01*
X160660000Y-75890000D02*
X160930000Y-75620000D01*
X160930000Y-75620000D02*
X160930000Y-56320000D01*
X160930000Y-56320000D02*
X155690000Y-51150000D01*
X155690000Y-51150000D02*
X155690000Y-48530000D01*
X179070000Y-72390000D02*
X180350000Y-72390000D01*
X182140000Y-70600000D02*
X184680000Y-70600000D01*
X180350000Y-72390000D02*
X182140000Y-70600000D01*
X150785000Y-115345000D02*
X152525000Y-115345000D01*
X156010000Y-118830000D02*
X156010000Y-120170000D01*
X152525000Y-115345000D02*
X156010000Y-118830000D01*
X163630000Y-120170000D02*
X163630000Y-121380000D01*
X163630000Y-121380000D02*
X163070000Y-121940000D01*
X163070000Y-121940000D02*
X157780000Y-121940000D01*
X157780000Y-121940000D02*
X156010000Y-120170000D01*
X156010000Y-120170000D02*
X155610000Y-120170000D01*
X150785000Y-115345000D02*
X145800000Y-110360000D01*
X145800000Y-110360000D02*
X142350000Y-110350000D01*
X184680000Y-75680000D02*
X184200000Y-75680000D01*
X184200000Y-75680000D02*
X182250000Y-73730000D01*
X182250000Y-73730000D02*
X178200000Y-73730000D01*
X178200000Y-73730000D02*
X177490002Y-73020002D01*
X177490002Y-73020002D02*
X177490002Y-70679998D01*
X177490002Y-70679998D02*
X178320000Y-69850000D01*
X178320000Y-69850000D02*
X179070000Y-69850000D01*
X92060000Y-111450000D02*
X92060000Y-104260000D01*
X92060000Y-104260000D02*
X90070000Y-102270000D01*
X85680000Y-97890000D02*
X85690000Y-97890000D01*
X92060000Y-111450000D02*
X92060000Y-112000000D01*
X85690000Y-97890000D02*
X90070000Y-102270000D01*
X48310000Y-98310000D02*
X50060000Y-98260000D01*
X50640000Y-97680000D02*
X50640000Y-95890000D01*
X50060000Y-98260000D02*
X50640000Y-97680000D01*
X52840000Y-91600000D02*
X54960000Y-91650000D01*
X70940000Y-91940000D02*
X70450000Y-91540000D01*
X70450000Y-91540000D02*
X55070000Y-91540000D01*
X54960000Y-91650000D02*
X55070000Y-91540000D01*
X48310000Y-98310000D02*
X44980000Y-98310000D01*
X44980000Y-98310000D02*
X41230000Y-94510000D01*
X39290000Y-94510000D02*
X41230000Y-94510000D01*
X50640000Y-93800000D02*
X52840000Y-91600000D01*
X50640000Y-95890000D02*
X50640000Y-93800000D01*
X52840000Y-91600000D02*
X52855000Y-91585000D01*
X39290000Y-94510000D02*
X38930000Y-94510000D01*
X38930000Y-94510000D02*
X37610000Y-95860000D01*
X29950000Y-95860000D02*
X26160000Y-92040000D01*
X37610000Y-95860000D02*
X29950000Y-95860000D01*
X26160000Y-92040000D02*
X25380000Y-92040000D01*
X80590000Y-92800000D02*
X77030000Y-92800000D01*
X85730000Y-97940000D02*
X85680000Y-97890000D01*
X85680000Y-97890000D02*
X80590000Y-92800000D01*
X102470000Y-87760000D02*
X94810000Y-87760000D01*
X94810000Y-87760000D02*
X91640000Y-84590000D01*
X91640000Y-84590000D02*
X89730000Y-84590000D01*
X89730000Y-84590000D02*
X88980000Y-83960000D01*
X88980000Y-83960000D02*
X84590000Y-83960000D01*
X84590000Y-83960000D02*
X83170000Y-84470000D01*
X142480000Y-97010000D02*
X141150000Y-97010000D01*
X141150000Y-97010000D02*
X140900000Y-96760000D01*
X163830000Y-102870000D02*
X162790000Y-102870000D01*
X148440000Y-97010000D02*
X142480000Y-97010000D01*
X142480000Y-97010000D02*
X142330000Y-97010000D01*
X149780000Y-98350000D02*
X148440000Y-97010000D01*
X150670000Y-98350000D02*
X149780000Y-98350000D01*
X151790000Y-99470000D02*
X150670000Y-98350000D01*
X151790000Y-100380000D02*
X151790000Y-99470000D01*
X152990000Y-101580000D02*
X151790000Y-100380000D01*
X161500000Y-101580000D02*
X152990000Y-101580000D01*
X162790000Y-102870000D02*
X161500000Y-101580000D01*
X116620000Y-90620000D02*
X126460000Y-90620000D01*
X114900000Y-88900000D02*
X116620000Y-90620000D01*
X112840000Y-88900000D02*
X114900000Y-88900000D01*
X111700000Y-87760000D02*
X112840000Y-88900000D01*
X102470000Y-87760000D02*
X111700000Y-87760000D01*
X138430000Y-85090000D02*
X134440000Y-85090000D01*
X134440000Y-85090000D02*
X132840000Y-86720000D01*
X132840000Y-86720000D02*
X132850000Y-88800000D01*
X132850000Y-88800000D02*
X131900000Y-89830000D01*
X131900000Y-89830000D02*
X131900000Y-92180000D01*
X185420000Y-61920000D02*
X184930000Y-61920000D01*
X184930000Y-61920000D02*
X179540000Y-67310000D01*
X179540000Y-67310000D02*
X179070000Y-67310000D01*
X184680000Y-73140000D02*
X185390000Y-73140000D01*
X185390000Y-73140000D02*
X186330000Y-72200000D01*
X186330000Y-72200000D02*
X186330000Y-69930000D01*
X186330000Y-69930000D02*
X185710000Y-69310000D01*
X185710000Y-69310000D02*
X181070000Y-69310000D01*
X181070000Y-69310000D02*
X179070000Y-67310000D01*
X89520000Y-112000000D02*
X89520000Y-105190000D01*
X89520000Y-105190000D02*
X88920000Y-104590000D01*
X76220000Y-96610000D02*
X76100000Y-96610000D01*
X74860000Y-89890000D02*
X77030000Y-87720000D01*
X74860000Y-95370000D02*
X74860000Y-89890000D01*
X76100000Y-96610000D02*
X74860000Y-95370000D01*
X70640000Y-86440000D02*
X56090000Y-86440000D01*
X71030000Y-86450000D02*
X70640000Y-86440000D01*
X84390000Y-99940000D02*
X84390000Y-99970000D01*
X84390000Y-99970000D02*
X88920000Y-104500000D01*
X88920000Y-104500000D02*
X88920000Y-104590000D01*
X82150000Y-97700000D02*
X82150000Y-96720000D01*
X82150000Y-96720000D02*
X80810000Y-95380000D01*
X80810000Y-95380000D02*
X79530000Y-95380000D01*
X79530000Y-95380000D02*
X78350000Y-96610000D01*
X78350000Y-96610000D02*
X76220000Y-96610000D01*
X84510000Y-100060000D02*
X84390000Y-99940000D01*
X84390000Y-99940000D02*
X82150000Y-97700000D01*
X51200000Y-86530000D02*
X50900000Y-86840000D01*
X55470000Y-86530000D02*
X51200000Y-86530000D01*
X55560000Y-86440000D02*
X55470000Y-86530000D01*
X56090000Y-86440000D02*
X55560000Y-86440000D01*
X50900000Y-86840000D02*
X50900000Y-87960000D01*
X39290000Y-89430000D02*
X38280000Y-89430000D01*
X29170000Y-90770000D02*
X25380000Y-86960000D01*
X36960000Y-90770000D02*
X29170000Y-90770000D01*
X38280000Y-89430000D02*
X36960000Y-90770000D01*
X42950000Y-89430000D02*
X39290000Y-89430000D01*
X50900000Y-87960000D02*
X49140000Y-89720000D01*
X49140000Y-89720000D02*
X49140000Y-91970000D01*
X49140000Y-91970000D02*
X47860000Y-93250000D01*
X47860000Y-93250000D02*
X45900000Y-93250000D01*
X45900000Y-93250000D02*
X44030000Y-91380000D01*
X44030000Y-91380000D02*
X44030000Y-90510000D01*
X44030000Y-90510000D02*
X42950000Y-89430000D01*
X50900000Y-86820000D02*
X50900000Y-86840000D01*
X56090000Y-86440000D02*
X56000000Y-86440000D01*
X102470000Y-92840000D02*
X92680000Y-92840000D01*
X83200000Y-89030000D02*
X81310000Y-87690000D01*
X88910000Y-89030000D02*
X83200000Y-89030000D01*
X92680000Y-92840000D02*
X88910000Y-89030000D01*
X163830000Y-105410000D02*
X162240000Y-105410000D01*
X134110000Y-96540000D02*
X133170000Y-96970000D01*
X139270000Y-96540000D02*
X134110000Y-96540000D01*
X140710000Y-97980000D02*
X139270000Y-96540000D01*
X148250000Y-97980000D02*
X140710000Y-97980000D01*
X151020000Y-100750000D02*
X148250000Y-97980000D01*
X151020000Y-101010000D02*
X151020000Y-100750000D01*
X151850000Y-101840000D02*
X151020000Y-101010000D01*
X151850000Y-103570000D02*
X151850000Y-101840000D01*
X152500000Y-104220000D02*
X151850000Y-103570000D01*
X161050000Y-104220000D02*
X152500000Y-104220000D01*
X162240000Y-105410000D02*
X161050000Y-104220000D01*
X102470000Y-92840000D02*
X103160000Y-92840000D01*
X103160000Y-92840000D02*
X103670000Y-93350000D01*
X103670000Y-93350000D02*
X111150000Y-93350000D01*
X111150000Y-93350000D02*
X111920000Y-94120000D01*
X111920000Y-94120000D02*
X111920000Y-100500000D01*
X111920000Y-100500000D02*
X112980000Y-101560000D01*
X112980000Y-101560000D02*
X125030000Y-101560000D01*
X125030000Y-101560000D02*
X125790000Y-100800000D01*
X134600000Y-79740000D02*
X136580000Y-79740000D01*
X136580000Y-79740000D02*
X136670000Y-79650000D01*
X127690000Y-95940000D02*
X129540000Y-97790000D01*
X127690000Y-86800000D02*
X127690000Y-95940000D01*
X128150000Y-86330000D02*
X127690000Y-86800000D01*
X130210000Y-86330000D02*
X128150000Y-86330000D01*
X130990000Y-85560000D02*
X130210000Y-86330000D01*
X130990000Y-81860000D02*
X130990000Y-85560000D01*
X133110000Y-79740000D02*
X130990000Y-81860000D01*
X134780000Y-79740000D02*
X134600000Y-79740000D01*
X134600000Y-79740000D02*
X133110000Y-79740000D01*
X114920000Y-111549998D02*
X114200002Y-110830000D01*
X117670000Y-104870000D02*
X117900000Y-104870000D01*
X114200002Y-108339998D02*
X117670000Y-104870000D01*
X114200002Y-110830000D02*
X114200002Y-108339998D01*
X114920000Y-112000000D02*
X114920000Y-111549998D01*
X49820000Y-82040000D02*
X49820000Y-82030000D01*
X58820000Y-79760000D02*
X60600000Y-81370000D01*
X52050000Y-79760000D02*
X58820000Y-79760000D01*
X49820000Y-82030000D02*
X52050000Y-79760000D01*
X161525000Y-100295000D02*
X156825000Y-100295000D01*
X156825000Y-100295000D02*
X155550000Y-99020000D01*
X117770000Y-98320000D02*
X117810000Y-98360000D01*
X117770000Y-97790000D02*
X117770000Y-98320000D01*
X117900000Y-104870000D02*
X117920000Y-104890000D01*
X42010000Y-84350000D02*
X39290000Y-84350000D01*
X45800000Y-88140000D02*
X42010000Y-84350000D01*
X48450000Y-88140000D02*
X45800000Y-88140000D01*
X49560000Y-87030000D02*
X48450000Y-88140000D01*
X49560000Y-82300000D02*
X49560000Y-87030000D01*
X49820000Y-82040000D02*
X49560000Y-82300000D01*
X62850000Y-81370000D02*
X60600000Y-81370000D01*
X65020000Y-79170000D02*
X62850000Y-81370000D01*
X72150000Y-79170000D02*
X65020000Y-79170000D01*
X72700000Y-79720000D02*
X72150000Y-79170000D01*
X39820000Y-84350000D02*
X39290000Y-84350000D01*
X87230000Y-92840000D02*
X82840000Y-92840000D01*
X78760000Y-83980000D02*
X77420000Y-82640000D01*
X78760000Y-88760000D02*
X78760000Y-83980000D01*
X82840000Y-92840000D02*
X78760000Y-88760000D01*
X77420000Y-82640000D02*
X77030000Y-82640000D01*
X105350000Y-96640000D02*
X108620000Y-96580000D01*
X108620000Y-96580000D02*
X110470000Y-98050000D01*
X140920000Y-96010000D02*
X140020000Y-96010000D01*
X140020000Y-96010000D02*
X140000000Y-95990000D01*
X163830000Y-107950000D02*
X164850000Y-107950000D01*
X148360000Y-96010000D02*
X140920000Y-96010000D01*
X140920000Y-96010000D02*
X140890000Y-96010000D01*
X149810000Y-97460000D02*
X148360000Y-96010000D01*
X151220000Y-97460000D02*
X149810000Y-97460000D01*
X152780000Y-99020000D02*
X151220000Y-97460000D01*
X155550000Y-99020000D02*
X152780000Y-99020000D01*
X162850000Y-101620000D02*
X161525000Y-100295000D01*
X165020000Y-101620000D02*
X162850000Y-101620000D01*
X165300000Y-101900000D02*
X165020000Y-101620000D01*
X165300000Y-107500000D02*
X165300000Y-101900000D01*
X164850000Y-107950000D02*
X165300000Y-107500000D01*
X92700000Y-96640000D02*
X89940000Y-96580000D01*
X88760000Y-94370000D02*
X87230000Y-92840000D01*
X88760000Y-95400000D02*
X88760000Y-94370000D01*
X89940000Y-96580000D02*
X88760000Y-95400000D01*
X105350000Y-96640000D02*
X92700000Y-96640000D01*
X138430000Y-90170000D02*
X138700000Y-90170000D01*
X138700000Y-90170000D02*
X139860000Y-91330000D01*
X139860000Y-91330000D02*
X139860000Y-93580000D01*
X139860000Y-93580000D02*
X139480000Y-93960000D01*
X139480000Y-93960000D02*
X133380000Y-93960000D01*
X133380000Y-93960000D02*
X131780000Y-95070000D01*
X131780000Y-95070000D02*
X131780000Y-100920000D01*
X131780000Y-100920000D02*
X130990000Y-102200000D01*
X130990000Y-102200000D02*
X129300000Y-102200000D01*
X129300000Y-102200000D02*
X128080000Y-100980000D01*
X128080000Y-100980000D02*
X128080000Y-99140000D01*
X128080000Y-99140000D02*
X126730000Y-97790000D01*
X126730000Y-97790000D02*
X117770000Y-97790000D01*
X117770000Y-97790000D02*
X114300000Y-97790000D01*
X112380000Y-112000000D02*
X112380000Y-111479998D01*
X112380000Y-111479998D02*
X113099998Y-110760000D01*
X113099998Y-110760000D02*
X113099998Y-105619998D01*
X113099998Y-105619998D02*
X112610000Y-105130000D01*
X112620000Y-99780000D02*
X112620000Y-98170000D01*
X46910000Y-84350000D02*
X47490000Y-84350000D01*
X47490000Y-84350000D02*
X48160000Y-83680000D01*
X59060000Y-78280000D02*
X60530000Y-76290000D01*
X51420000Y-78290000D02*
X59060000Y-78280000D01*
X48110000Y-81380000D02*
X51420000Y-78290000D01*
X48160000Y-83680000D02*
X48110000Y-81380000D01*
X163190000Y-99130000D02*
X157370000Y-99130000D01*
X157370000Y-99130000D02*
X154680000Y-96440000D01*
X41760000Y-80090000D02*
X42610000Y-80100000D01*
X45870000Y-84350000D02*
X46910000Y-84350000D01*
X44970000Y-83450000D02*
X45870000Y-84350000D01*
X44970000Y-82460000D02*
X44970000Y-83450000D01*
X42610000Y-80100000D02*
X44970000Y-82460000D01*
X72080000Y-76390000D02*
X71980000Y-76290000D01*
X71980000Y-76290000D02*
X60530000Y-76290000D01*
X77030000Y-77560000D02*
X76640000Y-77560000D01*
X82540000Y-87730000D02*
X81630000Y-87050000D01*
X83520000Y-87760000D02*
X82540000Y-87730000D01*
X80270000Y-81860000D02*
X78660000Y-80250000D01*
X78660000Y-80250000D02*
X78660000Y-79190000D01*
X77030000Y-77560000D02*
X78660000Y-79190000D01*
X83520000Y-87760000D02*
X87230000Y-87760000D01*
X81550000Y-86970000D02*
X80880000Y-86380000D01*
X80880000Y-86380000D02*
X80880000Y-84530000D01*
X80880000Y-84530000D02*
X80270000Y-83920000D01*
X80270000Y-83920000D02*
X80270000Y-81860000D01*
X81630000Y-87050000D02*
X81550000Y-86970000D01*
X101900000Y-91580000D02*
X93110000Y-91550000D01*
X93110000Y-91550000D02*
X89320000Y-87760000D01*
X87230000Y-87760000D02*
X89320000Y-87760000D01*
X163830000Y-110490000D02*
X163830000Y-110430000D01*
X163830000Y-110430000D02*
X165910000Y-108350000D01*
X165910000Y-108350000D02*
X165910000Y-99740000D01*
X165910000Y-99740000D02*
X165300000Y-99130000D01*
X165300000Y-99130000D02*
X163190000Y-99130000D01*
X154680000Y-96440000D02*
X149720000Y-96440000D01*
X149720000Y-96440000D02*
X148530000Y-95250000D01*
X148530000Y-95250000D02*
X138430000Y-95250000D01*
X114300000Y-92710000D02*
X104790000Y-92710000D01*
X103640000Y-91580000D02*
X101900000Y-91580000D01*
X104790000Y-92710000D02*
X103640000Y-91580000D01*
X87590000Y-87760000D02*
X87230000Y-87760000D01*
X138430000Y-95250000D02*
X133350000Y-95250000D01*
X112620000Y-94390000D02*
X114300000Y-92710000D01*
X112620000Y-98520000D02*
X112620000Y-98170000D01*
X112620000Y-98170000D02*
X112620000Y-94390000D01*
X113170000Y-99070000D02*
X112620000Y-98520000D01*
X126840000Y-99070000D02*
X113170000Y-99070000D01*
X127460000Y-99690000D02*
X126840000Y-99070000D01*
X127460000Y-101650000D02*
X127460000Y-99690000D01*
X128820000Y-103010000D02*
X127460000Y-101650000D01*
X131310000Y-103010000D02*
X128820000Y-103010000D01*
X132350000Y-101880000D02*
X131310000Y-103010000D01*
X132350000Y-96160000D02*
X132350000Y-101880000D01*
X133350000Y-95250000D02*
X132350000Y-96160000D01*
X129540000Y-80010000D02*
X116850000Y-80010000D01*
X115580000Y-78770000D02*
X116850000Y-80010000D01*
X104140000Y-75270000D02*
X102670000Y-75260000D01*
X107400000Y-77240000D02*
X104140000Y-75270000D01*
X102670000Y-75260000D02*
X102470000Y-75060000D01*
X130963354Y-76192124D02*
X130963354Y-78586646D01*
X130963354Y-78586646D02*
X129540000Y-80010000D01*
X138430000Y-62230000D02*
X140520000Y-62230000D01*
X134180000Y-73730000D02*
X130963354Y-76192124D01*
X130963354Y-76192124D02*
X130940000Y-76210000D01*
X140010000Y-73730000D02*
X134180000Y-73730000D01*
X140960000Y-71790000D02*
X140010000Y-73730000D01*
X140960000Y-63740000D02*
X140960000Y-71790000D01*
X140520000Y-62230000D02*
X140960000Y-63740000D01*
X128749917Y-63520875D02*
X128380000Y-63620000D01*
X126710000Y-66080000D02*
X123810000Y-66080000D01*
X127670000Y-65120000D02*
X126710000Y-66080000D01*
X127670000Y-64130000D02*
X127670000Y-65120000D01*
X128380000Y-63620000D02*
X127670000Y-64130000D01*
X113450000Y-66080000D02*
X123810000Y-66080000D01*
X87230000Y-64900000D02*
X99410000Y-64900000D01*
X112860002Y-66070000D02*
X112870000Y-66070000D01*
X113440000Y-66070000D02*
X112860002Y-66070000D01*
X113450000Y-66080000D02*
X113440000Y-66070000D01*
X105430000Y-65780000D02*
X107410000Y-65780000D01*
X103280000Y-63630000D02*
X105430000Y-65780000D01*
X100680000Y-63630000D02*
X103280000Y-63630000D01*
X99410000Y-64900000D02*
X100680000Y-63630000D01*
X112870000Y-68090000D02*
X114300000Y-69850000D01*
X112870000Y-66070000D02*
X112870000Y-68090000D01*
X135420000Y-63530000D02*
X128749917Y-63520875D01*
X136740000Y-64770000D02*
X135420000Y-63530000D01*
X138430000Y-64770000D02*
X136740000Y-64770000D01*
X159250000Y-117770000D02*
X164890000Y-117770000D01*
X166170000Y-119050000D02*
X166170000Y-120170000D01*
X164890000Y-117770000D02*
X166170000Y-119050000D01*
X159250000Y-117770000D02*
X157610000Y-117770000D01*
X157610000Y-117770000D02*
X155540000Y-115700000D01*
X102470000Y-67440000D02*
X102880000Y-67440000D01*
X102880000Y-67440000D02*
X106320000Y-70880000D01*
X106320000Y-70880000D02*
X107370000Y-70880000D01*
X115300000Y-71120000D02*
X116570000Y-72390000D01*
X116570000Y-72390000D02*
X129540000Y-72390000D01*
X129540000Y-72390000D02*
X129540000Y-72210000D01*
X129540000Y-72210000D02*
X130640000Y-71110000D01*
X130640000Y-71110000D02*
X139080000Y-71110000D01*
X139080000Y-71110000D02*
X139720000Y-70320000D01*
X139720000Y-70320000D02*
X139720000Y-68750000D01*
X139720000Y-68750000D02*
X138430000Y-67310000D01*
X140800000Y-111150000D02*
X140800000Y-115040000D01*
X140800000Y-115040000D02*
X141880000Y-116120000D01*
X144960000Y-104360000D02*
X144960000Y-103920000D01*
X143780000Y-105540000D02*
X144960000Y-104360000D01*
X141310000Y-105540000D02*
X143780000Y-105540000D01*
X140800000Y-106050000D02*
X141310000Y-105540000D01*
X140800000Y-111150000D02*
X140800000Y-106050000D01*
X144870000Y-104010000D02*
X144960000Y-103920000D01*
X87230000Y-62360000D02*
X87700000Y-62360000D01*
X87700000Y-62360000D02*
X89930000Y-60130000D01*
X89930000Y-60130000D02*
X107370000Y-60130000D01*
X138430000Y-69850000D02*
X136640000Y-69850000D01*
X125030000Y-67310000D02*
X114300000Y-67310000D01*
X126250000Y-68570000D02*
X125030000Y-67310000D01*
X135320000Y-68570000D02*
X126250000Y-68570000D01*
X136640000Y-69850000D02*
X135320000Y-68570000D01*
X140150000Y-111720000D02*
X140150000Y-112200000D01*
X138030000Y-119360000D02*
X137100000Y-120290000D01*
X138030000Y-114320000D02*
X138030000Y-119360000D01*
X140150000Y-112200000D02*
X138030000Y-114320000D01*
X140150000Y-111720000D02*
X140150000Y-105500000D01*
X143080000Y-104830000D02*
X143930000Y-103980000D01*
X140820000Y-104830000D02*
X143080000Y-104830000D01*
X140150000Y-105500000D02*
X140820000Y-104830000D01*
X139220000Y-72390000D02*
X140320000Y-71060000D01*
X138430000Y-72390000D02*
X139220000Y-72390000D01*
X140320000Y-71060000D02*
X140320000Y-66930000D01*
X131990000Y-64770000D02*
X129540000Y-64770000D01*
X133240000Y-66020000D02*
X131990000Y-64770000D01*
X139500000Y-66020000D02*
X133240000Y-66020000D01*
X140320000Y-66930000D02*
X139500000Y-66020000D01*
X107210000Y-103460000D02*
X111170000Y-107420000D01*
X111170000Y-107420000D02*
X111170000Y-108320000D01*
X111170000Y-108320000D02*
X108570000Y-110920000D01*
X108570000Y-110920000D02*
X108570000Y-112000000D01*
X107210000Y-101530000D02*
X107210000Y-103460000D01*
X87230000Y-80140000D02*
X89370000Y-80140000D01*
X107700000Y-81420000D02*
X109160000Y-82890000D01*
X90660000Y-81420000D02*
X107700000Y-81420000D01*
X89370000Y-80140000D02*
X90660000Y-81420000D01*
X158690000Y-57520000D02*
X158690000Y-69300000D01*
X157890000Y-74530000D02*
X157150000Y-75270000D01*
X157890000Y-70100000D02*
X157890000Y-74530000D01*
X158690000Y-69300000D02*
X157890000Y-70100000D01*
X114300000Y-85090000D02*
X113530000Y-85090000D01*
X113530000Y-85090000D02*
X111430000Y-82970000D01*
X111430000Y-82970000D02*
X111430000Y-80590000D01*
X111430000Y-80590000D02*
X109300000Y-78050000D01*
X109300000Y-78050000D02*
X109300000Y-58190000D01*
X109300000Y-58190000D02*
X111550000Y-55280000D01*
X111550000Y-55280000D02*
X156660000Y-55280000D01*
X156660000Y-55280000D02*
X158690000Y-57520000D01*
X145250000Y-56060000D02*
X144570000Y-55860000D01*
X144570000Y-55860000D02*
X144370000Y-56060000D01*
X114300000Y-82550000D02*
X114300000Y-82470000D01*
X114300000Y-82470000D02*
X112043571Y-80213571D01*
X112043571Y-80213571D02*
X112043571Y-80213565D01*
X87230000Y-77600000D02*
X100340000Y-77600000D01*
X106630000Y-78850000D02*
X107350000Y-79400000D01*
X101590000Y-78850000D02*
X106630000Y-78850000D01*
X100340000Y-77600000D02*
X101590000Y-78850000D01*
X158090000Y-57950000D02*
X158090000Y-69020000D01*
X157120000Y-74280000D02*
X156100000Y-75300000D01*
X157120000Y-69990000D02*
X157120000Y-74280000D01*
X158090000Y-69020000D02*
X157120000Y-69990000D01*
X114300000Y-82550000D02*
X114100000Y-82550000D01*
X112043571Y-80213565D02*
X112030000Y-80010000D01*
X112030000Y-80010000D02*
X109890000Y-77480000D01*
X109890000Y-77480000D02*
X109890000Y-58550000D01*
X109890000Y-58550000D02*
X111780000Y-56060000D01*
X111780000Y-56060000D02*
X145250000Y-56060000D01*
X145250000Y-56060000D02*
X156430000Y-56060000D01*
X156430000Y-56060000D02*
X158090000Y-57950000D01*
X148060000Y-56750000D02*
X147230000Y-56750000D01*
X87230000Y-75060000D02*
X99200000Y-75060000D01*
X99200000Y-75060000D02*
X100430000Y-76340000D01*
X100430000Y-76340000D02*
X104190000Y-76320000D01*
X104190000Y-76320000D02*
X107350000Y-78390000D01*
X156430000Y-70020000D02*
X156430000Y-69580000D01*
X156430000Y-69580000D02*
X157480000Y-68530000D01*
X157480000Y-67920000D02*
X157480000Y-68530000D01*
X156430000Y-70020000D02*
X156430000Y-74010000D01*
X156430000Y-74010000D02*
X155200000Y-75060000D01*
X156430000Y-69870000D02*
X156430000Y-70020000D01*
X114300000Y-80010000D02*
X114030000Y-80010000D01*
X114030000Y-80010000D02*
X110460000Y-76440000D01*
X110460000Y-76440000D02*
X110460000Y-58970000D01*
X110460000Y-58970000D02*
X112250000Y-56750000D01*
X112250000Y-56750000D02*
X148060000Y-56750000D01*
X148060000Y-56750000D02*
X156250000Y-56750000D01*
X156250000Y-56750000D02*
X157480000Y-58920000D01*
X157480000Y-58920000D02*
X157480000Y-67920000D01*
X157480000Y-67920000D02*
X157480000Y-68060000D01*
X111050000Y-74410000D02*
X111050000Y-75650000D01*
X112870000Y-77470000D02*
X114300000Y-77470000D01*
X111050000Y-75650000D02*
X112870000Y-77470000D01*
X151000000Y-57600000D02*
X149650000Y-57600000D01*
X149650000Y-57600000D02*
X149640000Y-57590000D01*
X87230000Y-72520000D02*
X87500000Y-72520000D01*
X87500000Y-72520000D02*
X88710000Y-73760000D01*
X103470000Y-73770000D02*
X107410000Y-76100000D01*
X88710000Y-73760000D02*
X103470000Y-73770000D01*
X156860000Y-67800000D02*
X156860000Y-67990000D01*
X155780000Y-70000000D02*
X155800000Y-70000000D01*
X155780000Y-69070000D02*
X155780000Y-70000000D01*
X156860000Y-67990000D02*
X155780000Y-69070000D01*
X156860000Y-59280000D02*
X156860000Y-67800000D01*
X155690000Y-57600000D02*
X156860000Y-59280000D01*
X112540000Y-57600000D02*
X151000000Y-57600000D01*
X151000000Y-57600000D02*
X155690000Y-57600000D01*
X111050000Y-59480000D02*
X112540000Y-57600000D01*
X111050000Y-74410000D02*
X111050000Y-59480000D01*
X155800000Y-72800000D02*
X153670000Y-74930000D01*
X155800000Y-70000000D02*
X155800000Y-72800000D01*
X114300000Y-77470000D02*
X114090000Y-77470000D01*
X105506538Y-72772716D02*
X105506538Y-72772717D01*
X107212716Y-72772716D02*
X105506538Y-72772716D01*
X107410000Y-72970000D02*
X107212716Y-72772716D01*
X152750000Y-58440000D02*
X152400000Y-58440000D01*
X87230000Y-69980000D02*
X88280000Y-69980000D01*
X104010000Y-71250000D02*
X105506538Y-72772717D01*
X89550000Y-71250000D02*
X104010000Y-71250000D01*
X88280000Y-69980000D02*
X89550000Y-71250000D01*
X155120000Y-70240000D02*
X155120000Y-68640000D01*
X155120000Y-68640000D02*
X156270000Y-67490000D01*
X114300000Y-74930000D02*
X113010000Y-74930000D01*
X155120000Y-70940000D02*
X153670000Y-72390000D01*
X155120000Y-70240000D02*
X155120000Y-70940000D01*
X156220000Y-59840000D02*
X156270000Y-67490000D01*
X155290000Y-58440000D02*
X156220000Y-59840000D01*
X112640000Y-58440000D02*
X152750000Y-58440000D01*
X152750000Y-58440000D02*
X155290000Y-58440000D01*
X111670000Y-60620000D02*
X112640000Y-58440000D01*
X111670000Y-72670000D02*
X111670000Y-60620000D01*
X113010000Y-74930000D02*
X111670000Y-72670000D01*
X154953334Y-59660131D02*
X154953334Y-59623334D01*
X154953334Y-59623334D02*
X154840000Y-59510000D01*
X87230000Y-67440000D02*
X100060000Y-67440000D01*
X104050000Y-66140000D02*
X107350000Y-69460000D01*
X101300000Y-66140000D02*
X104050000Y-66140000D01*
X100060000Y-67440000D02*
X101300000Y-66140000D01*
X114300000Y-72390000D02*
X114030000Y-72390000D01*
X114030000Y-72390000D02*
X112310000Y-69980000D01*
X113270000Y-59510000D02*
X154840000Y-59510000D01*
X112310000Y-61280000D02*
X113270000Y-59510000D01*
X112310000Y-69980000D02*
X112310000Y-61280000D01*
X154953334Y-59660131D02*
X155610000Y-60530000D01*
X155610000Y-60530000D02*
X155630000Y-66770000D01*
X155630000Y-66770000D02*
X153670000Y-69850000D01*
X127780000Y-60380000D02*
X127130000Y-60380000D01*
X125960000Y-61550000D02*
X125960000Y-64150000D01*
X127130000Y-60380000D02*
X125960000Y-61550000D01*
X105955000Y-71865000D02*
X107145000Y-71865000D01*
X107145000Y-71865000D02*
X107300000Y-72020000D01*
X102470000Y-69980000D02*
X104070000Y-69980000D01*
X116660000Y-74930000D02*
X129540000Y-74930000D01*
X115330000Y-73670000D02*
X116660000Y-74930000D01*
X104070000Y-69980000D02*
X105955000Y-71865000D01*
X155040000Y-65330000D02*
X153670000Y-67310000D01*
X155020000Y-61200000D02*
X155040000Y-65330000D01*
X154320000Y-60380000D02*
X155020000Y-61200000D01*
X127780000Y-60380000D02*
X154320000Y-60380000D01*
X156010000Y-127790000D02*
X156010000Y-126760000D01*
X156010000Y-126760000D02*
X156930000Y-125840000D01*
X148250000Y-116540000D02*
X151880000Y-116540000D01*
X151880000Y-116540000D02*
X154700000Y-119360000D01*
X154700000Y-119360000D02*
X154700000Y-123610000D01*
X154700000Y-123610000D02*
X156930000Y-125840000D01*
X142060000Y-111390000D02*
X143310000Y-111390000D01*
X141620000Y-109300000D02*
X141620000Y-111100000D01*
X141620000Y-111100000D02*
X142060000Y-111390000D01*
X148250000Y-116330000D02*
X148250000Y-116540000D01*
X143310000Y-111390000D02*
X148250000Y-116330000D01*
X161680000Y-125840000D02*
X163630000Y-127790000D01*
X156930000Y-125840000D02*
X161680000Y-125840000D01*
X141370000Y-109200000D02*
X141510000Y-109340000D01*
X129540000Y-77470000D02*
X117870000Y-77470000D01*
X103790000Y-72520000D02*
X102470000Y-72520000D01*
X104956117Y-73275110D02*
X103790000Y-72520000D01*
X105756466Y-73799859D02*
X104956117Y-73275110D01*
X106610000Y-74350000D02*
X105756466Y-73799859D01*
X107250000Y-74350000D02*
X106610000Y-74350000D01*
X107390000Y-74490000D02*
X107250000Y-74350000D01*
X112600000Y-76210000D02*
X112060000Y-75590000D01*
X116530000Y-76210000D02*
X112600000Y-76210000D01*
X117870000Y-77470000D02*
X116530000Y-76210000D01*
X140300000Y-76690000D02*
X140310000Y-76690000D01*
X140920000Y-75430000D02*
X142360000Y-73990000D01*
X140920000Y-76080000D02*
X140920000Y-75430000D01*
X140310000Y-76690000D02*
X140920000Y-76080000D01*
X137180000Y-78720000D02*
X133580000Y-78720000D01*
X133580000Y-78720000D02*
X132360000Y-77500000D01*
X153670000Y-64770000D02*
X145030000Y-64770000D01*
X142360000Y-66670000D02*
X142360000Y-73990000D01*
X145030000Y-64770000D02*
X142360000Y-66670000D01*
X139620000Y-78720000D02*
X137180000Y-78720000D01*
X140110000Y-78230000D02*
X139620000Y-78720000D01*
X140110000Y-76880000D02*
X140110000Y-78230000D01*
X140300000Y-76690000D02*
X140110000Y-76880000D01*
X127390000Y-83840000D02*
X127810000Y-83360000D01*
X113390000Y-83840000D02*
X127390000Y-83840000D01*
X113370000Y-83860000D02*
X113390000Y-83840000D01*
X102470000Y-80140000D02*
X106400000Y-80140000D01*
X106400000Y-80140000D02*
X106440000Y-80100000D01*
X153670000Y-62230000D02*
X143630000Y-62230000D01*
X143630000Y-62230000D02*
X141660000Y-64200000D01*
X141660000Y-64200000D02*
X141660000Y-73270000D01*
X141660000Y-73270000D02*
X140150000Y-74780000D01*
X140150000Y-74780000D02*
X140150000Y-75390000D01*
X140150000Y-75390000D02*
X139280000Y-76260000D01*
X139280000Y-76260000D02*
X132220000Y-76260000D01*
X132220000Y-76260000D02*
X131513356Y-76966644D01*
X131513356Y-76966644D02*
X131513356Y-79936644D01*
X131513356Y-79936644D02*
X130250000Y-81300000D01*
X128710000Y-81300000D02*
X128380000Y-81340000D01*
X130250000Y-81300000D02*
X128710000Y-81300000D01*
X128380000Y-81340000D02*
X127710000Y-81840000D01*
X127710000Y-81840000D02*
X127710000Y-83260000D01*
X127710000Y-83260000D02*
X127810000Y-83360000D01*
X127810000Y-83360000D02*
X129540000Y-85090000D01*
X129870000Y-85090000D02*
X129540000Y-85090000D01*
X208640000Y-65130000D02*
X208770000Y-65130000D01*
X208770000Y-65130000D02*
X213660000Y-70020000D01*
X213660000Y-70020000D02*
X218500000Y-70020000D01*
X208640000Y-67670000D02*
X209100000Y-67670000D01*
X209100000Y-67670000D02*
X214220000Y-72790000D01*
X214220000Y-72790000D02*
X218500000Y-72790000D01*
X218500000Y-75560000D02*
X218500000Y-75060000D01*
X218500000Y-75060000D02*
X219950000Y-73610000D01*
X219950000Y-73610000D02*
X219950000Y-70025000D01*
X219950000Y-70025000D02*
X221340000Y-68635000D01*
X201020000Y-77830000D02*
X202090000Y-77830000D01*
X222165000Y-71405000D02*
X221340000Y-71405000D01*
X223190000Y-72430000D02*
X222165000Y-71405000D01*
X223190000Y-78260000D02*
X223190000Y-72430000D01*
X221550000Y-79900000D02*
X223190000Y-78260000D01*
X218120000Y-79900000D02*
X221550000Y-79900000D01*
X209700000Y-71480000D02*
X218120000Y-79900000D01*
X206120000Y-71480000D02*
X209700000Y-71480000D01*
X204030000Y-73570000D02*
X206120000Y-71480000D01*
X204030000Y-75890000D02*
X204030000Y-73570000D01*
X202090000Y-77830000D02*
X204030000Y-75890000D01*
X94600000Y-112000000D02*
X94600000Y-108910000D01*
X96130000Y-107380000D02*
X96130000Y-107400000D01*
X94600000Y-108910000D02*
X96130000Y-107380000D01*
X132280000Y-53220000D02*
X133450000Y-52100000D01*
X149310000Y-39280000D02*
X151900000Y-41870000D01*
X139760000Y-39280000D02*
X149310000Y-39280000D01*
X136380000Y-42660000D02*
X139760000Y-39280000D01*
X136380000Y-49170000D02*
X136380000Y-42660000D01*
X133450000Y-52100000D02*
X136380000Y-49170000D01*
X100690000Y-53220000D02*
X132280000Y-53220000D01*
X99830000Y-53980000D02*
X100690000Y-53220000D01*
X99820000Y-58660000D02*
X99830000Y-53980000D01*
X99830000Y-58670000D02*
X99820000Y-58660000D01*
X98300000Y-105230000D02*
X98300000Y-97800000D01*
X95940000Y-107590000D02*
X96130000Y-107400000D01*
X96130000Y-107400000D02*
X98300000Y-105230000D01*
X94600000Y-113270000D02*
X94600000Y-121820000D01*
X91810000Y-124610000D02*
X83390000Y-124610000D01*
X94600000Y-121820000D02*
X91810000Y-124610000D01*
X83680000Y-124900000D02*
X83390000Y-124610000D01*
X57620000Y-107690000D02*
X57620000Y-105450000D01*
X99060000Y-133880000D02*
X75990000Y-133880000D01*
X65380000Y-123270000D02*
X57020000Y-123270000D01*
X75990000Y-133880000D02*
X65380000Y-123270000D01*
X56700000Y-123270000D02*
X54230000Y-120800000D01*
X54230000Y-120800000D02*
X54230000Y-111080000D01*
X57020000Y-123270000D02*
X56700000Y-123270000D01*
X54230000Y-111080000D02*
X57620000Y-107690000D01*
X57620000Y-105450000D02*
X58400000Y-104670000D01*
X97140000Y-113270000D02*
X97140000Y-129600000D01*
X97140000Y-129600000D02*
X98450000Y-130910000D01*
X61790000Y-72480000D02*
X56110000Y-72480000D01*
X78010000Y-37020000D02*
X73780000Y-37020000D01*
X73780000Y-37020000D02*
X72930000Y-37870000D01*
X72930000Y-37870000D02*
X72930000Y-39220000D01*
X72930000Y-39220000D02*
X71360000Y-40790000D01*
X71360000Y-40790000D02*
X67560000Y-40790000D01*
X79310000Y-38320000D02*
X78010000Y-37020000D01*
X56110000Y-72480000D02*
X52690000Y-69060000D01*
X52690000Y-69060000D02*
X52690000Y-55050000D01*
X52690000Y-55050000D02*
X63320000Y-44420000D01*
X63320000Y-44420000D02*
X63320000Y-42120000D01*
X63320000Y-42120000D02*
X64650000Y-40790000D01*
X64650000Y-40790000D02*
X67560000Y-40790000D01*
X79310000Y-38650000D02*
X79310000Y-38320000D01*
X100700000Y-133920000D02*
X99100000Y-133920000D01*
X98450000Y-130910000D02*
X98480000Y-130880000D01*
X99100000Y-133920000D02*
X99060000Y-133880000D01*
X100700000Y-133920000D02*
X101500000Y-133920000D01*
X101500000Y-133920000D02*
X157890000Y-133920000D01*
X58530000Y-108189998D02*
X58530000Y-106010000D01*
X58530000Y-106010000D02*
X60320000Y-104220000D01*
X60320000Y-104220000D02*
X63620000Y-104220000D01*
X56610000Y-121870000D02*
X56200000Y-121870000D01*
X55010000Y-111709998D02*
X58530000Y-108189998D01*
X55010000Y-120680000D02*
X55010000Y-111709998D01*
X56200000Y-121870000D02*
X55010000Y-120680000D01*
X63620000Y-104220000D02*
X69650000Y-104220000D01*
X69650000Y-104220000D02*
X71920000Y-101950000D01*
X71920000Y-101950000D02*
X71920000Y-98590000D01*
X71920000Y-98590000D02*
X72920000Y-97590000D01*
X72920000Y-97590000D02*
X72920000Y-87220000D01*
X72920000Y-87220000D02*
X74700000Y-85440000D01*
X74700000Y-85440000D02*
X74700000Y-74810000D01*
X74700000Y-74810000D02*
X77030000Y-72480000D01*
X98410000Y-113270000D02*
X98410000Y-129190000D01*
X98410000Y-129190000D02*
X99900000Y-130680000D01*
X76680000Y-132620000D02*
X76680000Y-132660000D01*
X76680000Y-132660000D02*
X77100000Y-133080000D01*
X68960000Y-53130000D02*
X68960000Y-52990000D01*
X68960000Y-52990000D02*
X66630000Y-50660000D01*
X77030000Y-72480000D02*
X81750000Y-72480000D01*
X79590000Y-53100000D02*
X79590000Y-53130000D01*
X82280000Y-53100000D02*
X79590000Y-53100000D01*
X83900000Y-54720000D02*
X82280000Y-53100000D01*
X83900000Y-70330000D02*
X83900000Y-54720000D01*
X81750000Y-72480000D02*
X83900000Y-70330000D01*
X79590000Y-53130000D02*
X68960000Y-53130000D01*
X60180000Y-121870000D02*
X56610000Y-121870000D01*
X56610000Y-121870000D02*
X56490000Y-121870000D01*
X65930000Y-121870000D02*
X60180000Y-121870000D01*
X76680000Y-132620000D02*
X65930000Y-121870000D01*
X103750000Y-133080000D02*
X102230000Y-133080000D01*
X99900000Y-130680000D02*
X99750000Y-130530000D01*
X126940000Y-132650000D02*
X126940000Y-127910000D01*
X126510000Y-133080000D02*
X126940000Y-132650000D01*
X77100000Y-133080000D02*
X103750000Y-133080000D01*
X103750000Y-133080000D02*
X126510000Y-133080000D01*
X126940000Y-127910000D02*
X127120000Y-127910000D01*
X127120000Y-127910000D02*
X129070000Y-125960000D01*
X129070000Y-125960000D02*
X144050000Y-125960000D01*
X144050000Y-125960000D02*
X148970000Y-130880000D01*
X148970000Y-130880000D02*
X166060000Y-130880000D01*
X166060000Y-130880000D02*
X167430000Y-129470000D01*
X167430000Y-129470000D02*
X167430000Y-122970000D01*
X167430000Y-122970000D02*
X168710000Y-121730000D01*
X168710000Y-121730000D02*
X168710000Y-120170000D01*
X99680000Y-113270000D02*
X99680000Y-115890000D01*
X89860000Y-127830000D02*
X83340000Y-127830000D01*
X95430000Y-122260000D02*
X89860000Y-127830000D01*
X95430000Y-116740000D02*
X95430000Y-122260000D01*
X95810000Y-116360000D02*
X95430000Y-116740000D01*
X99680000Y-115890000D02*
X99460000Y-116110000D01*
X109840000Y-113270000D02*
X109840000Y-114880000D01*
X122160000Y-115970000D02*
X122160000Y-113860000D01*
X120940000Y-117190000D02*
X122160000Y-115970000D01*
X112150000Y-117190000D02*
X120940000Y-117190000D01*
X109840000Y-114880000D02*
X112150000Y-117190000D01*
X122220000Y-110700000D02*
X120500000Y-110700000D01*
X112380000Y-114330000D02*
X112380000Y-113270000D01*
X112920000Y-114870000D02*
X112380000Y-114330000D01*
X118690000Y-114870000D02*
X112920000Y-114870000D01*
X119160000Y-114400000D02*
X118690000Y-114870000D01*
X119160000Y-112040000D02*
X119160000Y-114400000D01*
X120500000Y-110700000D02*
X119160000Y-112040000D01*
X122010000Y-110700000D02*
X122220000Y-110700000D01*
X58220000Y-58010000D02*
X60520000Y-55710000D01*
X58220000Y-67860000D02*
X58220000Y-58010000D01*
X60300000Y-69940000D02*
X58220000Y-67860000D01*
X61790000Y-69940000D02*
X60300000Y-69940000D01*
X60970000Y-57800000D02*
X63060000Y-55710000D01*
X59020000Y-58750000D02*
X60850000Y-57800000D01*
X60850000Y-57800000D02*
X60970000Y-57800000D01*
X61790000Y-67400000D02*
X61610000Y-67400000D01*
X61610000Y-67400000D02*
X59020000Y-65750000D01*
X59020000Y-65750000D02*
X59020000Y-58750000D01*
X62370000Y-58940000D02*
X65600000Y-55710000D01*
X60350000Y-58940000D02*
X62370000Y-58940000D01*
X59970000Y-59320000D02*
X60350000Y-58940000D01*
X59970000Y-63890000D02*
X59970000Y-59320000D01*
X60940000Y-64860000D02*
X59970000Y-63890000D01*
X61790000Y-64860000D02*
X60940000Y-64860000D01*
X64870000Y-58980000D02*
X68140000Y-55710000D01*
X64270000Y-58980000D02*
X64870000Y-58980000D01*
X61790000Y-61460000D02*
X64270000Y-58980000D01*
X61790000Y-62320000D02*
X61790000Y-61460000D01*
X70680000Y-55710000D02*
X70680000Y-55970000D01*
X70680000Y-55970000D02*
X77030000Y-62320000D01*
X74810000Y-57300000D02*
X73220000Y-55710000D01*
X78260000Y-60660000D02*
X74900000Y-57300000D01*
X74900000Y-57300000D02*
X74810000Y-57300000D01*
X77030000Y-64860000D02*
X77030000Y-64810000D01*
X77030000Y-64810000D02*
X78260000Y-63580000D01*
X78260000Y-63580000D02*
X78260000Y-60660000D01*
X78980000Y-58930000D02*
X75760000Y-55710000D01*
X78980000Y-65760000D02*
X78980000Y-58930000D01*
X77030000Y-67400000D02*
X77340000Y-67400000D01*
X77340000Y-67400000D02*
X78980000Y-65760000D01*
X50830000Y-115750000D02*
X50860000Y-115750000D01*
X50860000Y-115750000D02*
X52160000Y-114450000D01*
X52160000Y-114450000D02*
X52160000Y-110090000D01*
X52160000Y-110090000D02*
X54290000Y-107960000D01*
X54290000Y-107960000D02*
X55810000Y-107960000D01*
X55810000Y-107960000D02*
X56570000Y-107200000D01*
X60790000Y-114290000D02*
X60790000Y-118410000D01*
X59590000Y-113090000D02*
X60790000Y-114290000D01*
X59590000Y-107590000D02*
X59590000Y-113090000D01*
X61680000Y-105500000D02*
X59590000Y-107590000D01*
X61790000Y-105500000D02*
X61680000Y-105500000D01*
X53060000Y-110950000D02*
X55210000Y-108800000D01*
X53060000Y-118130000D02*
X53060000Y-110950000D01*
X52130000Y-119060000D02*
X53060000Y-118130000D01*
X50830000Y-119060000D02*
X52130000Y-119060000D01*
X63330000Y-115130000D02*
X63330000Y-118410000D01*
X60290000Y-112090000D02*
X63330000Y-115130000D01*
X60290000Y-108710000D02*
X60290000Y-112090000D01*
X60960000Y-108040000D02*
X60290000Y-108710000D01*
X61790000Y-108040000D02*
X60960000Y-108040000D01*
X61790000Y-110580000D02*
X65010000Y-110580000D01*
X65870000Y-111440000D02*
X65870000Y-118410000D01*
X65010000Y-110580000D02*
X65870000Y-111440000D01*
X68420000Y-118300000D02*
X68420000Y-119580000D01*
X68420000Y-119580000D02*
X68730000Y-119890000D01*
X68730000Y-119890000D02*
X71420000Y-119890000D01*
X71420000Y-119890000D02*
X72220000Y-119090000D01*
X72220000Y-115390000D02*
X77030000Y-110580000D01*
X72220000Y-119090000D02*
X72220000Y-115390000D01*
X70960000Y-118300000D02*
X70960000Y-113310000D01*
X70960000Y-113310000D02*
X76230000Y-108040000D01*
X76230000Y-108040000D02*
X77030000Y-108040000D01*
X75070000Y-116730000D02*
X73500000Y-118300000D01*
X75580000Y-116730000D02*
X75070000Y-116730000D01*
X78850000Y-113670000D02*
X75580000Y-116730000D01*
X77030000Y-105500000D02*
X77210000Y-105500000D01*
X77210000Y-105500000D02*
X78850000Y-106830000D01*
X78850000Y-106830000D02*
X78850000Y-113670000D01*
X76040000Y-118300000D02*
X76040000Y-118200000D01*
X76040000Y-118200000D02*
X79510000Y-115150000D01*
X79510000Y-115150000D02*
X79510000Y-104760000D01*
X79510000Y-104760000D02*
X77030000Y-102960000D01*
X50670000Y-106600000D02*
X50610000Y-106600000D01*
X32990000Y-113720000D02*
X32990000Y-117400000D01*
X35550000Y-111160000D02*
X32990000Y-113720000D01*
X47020000Y-111160000D02*
X35550000Y-111160000D01*
X48520000Y-109660000D02*
X47020000Y-111160000D01*
X48520000Y-108690000D02*
X48520000Y-109660000D01*
X50610000Y-106600000D02*
X48520000Y-108690000D01*
X50630000Y-106640000D02*
X50670000Y-106600000D01*
X53910000Y-103020000D02*
X54530000Y-103020000D01*
X54530000Y-103020000D02*
X55880000Y-101670000D01*
X55880000Y-101670000D02*
X62310000Y-101670000D01*
X62310000Y-101670000D02*
X63790000Y-100980000D01*
X63790000Y-100980000D02*
X63790000Y-96610000D01*
X63790000Y-96610000D02*
X61790000Y-95340000D01*
X46530000Y-104900000D02*
X46530000Y-104890000D01*
X49390000Y-103950000D02*
X50640000Y-102700000D01*
X47470000Y-103950000D02*
X49390000Y-103950000D01*
X46530000Y-104890000D02*
X47470000Y-103950000D01*
X43710000Y-108200000D02*
X43710000Y-107720000D01*
X43710000Y-107720000D02*
X46530000Y-104900000D01*
X63200000Y-99010000D02*
X61790000Y-100420000D01*
X53910000Y-97940000D02*
X54580000Y-97940000D01*
X54580000Y-97940000D02*
X55960000Y-96560000D01*
X55960000Y-96560000D02*
X62440000Y-96560000D01*
X62440000Y-96560000D02*
X63200000Y-97320000D01*
X63200000Y-97320000D02*
X63200000Y-99010000D01*
X52060000Y-106570000D02*
X52060000Y-106900000D01*
X56700000Y-102960000D02*
X61790000Y-102960000D01*
X55920000Y-103740000D02*
X56700000Y-102960000D01*
X55920000Y-106710000D02*
X55920000Y-103740000D01*
X55280000Y-107350000D02*
X55920000Y-106710000D01*
X52510000Y-107350000D02*
X55280000Y-107350000D01*
X52060000Y-106900000D02*
X52510000Y-107350000D01*
X52060000Y-99990000D02*
X52060000Y-106570000D01*
X48450000Y-103180000D02*
X48900000Y-103180000D01*
X48900000Y-103180000D02*
X52060000Y-99990000D01*
X53910000Y-95400000D02*
X53270000Y-95400000D01*
X53270000Y-95400000D02*
X52060000Y-96580000D01*
X52060000Y-96580000D02*
X52060000Y-99990000D01*
X53910000Y-95400000D02*
X54710000Y-95400000D01*
X41170000Y-108200000D02*
X41170000Y-106860000D01*
X41170000Y-106860000D02*
X44850000Y-103180000D01*
X44850000Y-103180000D02*
X48450000Y-103180000D01*
X48450000Y-103180000D02*
X48680000Y-103180000D01*
X62510000Y-102960000D02*
X61790000Y-102960000D01*
X48720000Y-102110000D02*
X50630000Y-100120000D01*
X43120000Y-102090000D02*
X48720000Y-102110000D01*
X38630000Y-106580000D02*
X38630000Y-108200000D01*
X38630000Y-106580000D02*
X43120000Y-102090000D01*
X61790000Y-92800000D02*
X53970000Y-92800000D01*
X53970000Y-92800000D02*
X53910000Y-92860000D01*
X61790000Y-90260000D02*
X53970000Y-90260000D01*
X53970000Y-90260000D02*
X53910000Y-90320000D01*
X54030000Y-87800000D02*
X61710000Y-87800000D01*
X61710000Y-87800000D02*
X61790000Y-87720000D01*
X53970000Y-87720000D02*
X53910000Y-87780000D01*
X61149315Y-31849245D02*
X59320755Y-31849245D01*
X59320755Y-31849245D02*
X59120000Y-32050000D01*
X50120000Y-65510000D02*
X50120000Y-66040000D01*
X25840000Y-78680000D02*
X22820000Y-81700000D01*
X29110000Y-78680000D02*
X25840000Y-78680000D01*
X29730000Y-78060000D02*
X29110000Y-78680000D01*
X29730000Y-75830000D02*
X29730000Y-78060000D01*
X34240000Y-71320000D02*
X29730000Y-75830000D01*
X44840000Y-71320000D02*
X34240000Y-71320000D01*
X50120000Y-66040000D02*
X44840000Y-71320000D01*
X123630000Y-32470000D02*
X123630000Y-31120000D01*
X120040000Y-27530000D02*
X90580000Y-27530000D01*
X123630000Y-31120000D02*
X120040000Y-27530000D01*
X61145002Y-41414998D02*
X61145002Y-41414945D01*
X61145002Y-41414945D02*
X61149315Y-31849245D01*
X61149315Y-31849245D02*
X61150000Y-30330000D01*
X61150000Y-30330000D02*
X63960000Y-27390000D01*
X63960000Y-27390000D02*
X89812032Y-27409550D01*
X89812032Y-27409550D02*
X90580000Y-27530000D01*
X50120000Y-66120000D02*
X50120000Y-65510000D01*
X50120000Y-65510000D02*
X50120000Y-52440000D01*
X50120000Y-52440000D02*
X61145002Y-41414998D01*
X34250000Y-101450000D02*
X34400000Y-101450000D01*
X36090000Y-103140000D02*
X36090000Y-108200000D01*
X34400000Y-101450000D02*
X36090000Y-103140000D01*
X22820000Y-100240000D02*
X22820000Y-81700000D01*
X34250000Y-101450000D02*
X24030000Y-101450000D01*
X24030000Y-101450000D02*
X22820000Y-100240000D01*
X34450000Y-101450000D02*
X34250000Y-101450000D01*
X36210000Y-99690000D02*
X34450000Y-101450000D01*
X37430000Y-82480000D02*
X37430000Y-82620000D01*
X37430000Y-82620000D02*
X37930000Y-83090000D01*
X32940000Y-56750000D02*
X32940000Y-54700000D01*
X33200000Y-37510000D02*
X33120000Y-37430000D01*
X33200000Y-44540000D02*
X33200000Y-37510000D01*
X31990000Y-45750000D02*
X33200000Y-44540000D01*
X31990000Y-53750000D02*
X31990000Y-45750000D01*
X32940000Y-54700000D02*
X31990000Y-53750000D01*
X37220000Y-69170000D02*
X37220000Y-66440000D01*
X32940000Y-63340000D02*
X32940000Y-56750000D01*
X32940000Y-56750000D02*
X32940000Y-56440000D01*
X34160000Y-64560000D02*
X32940000Y-63340000D01*
X35340000Y-64560000D02*
X34160000Y-64560000D01*
X37220000Y-66440000D02*
X35340000Y-64560000D01*
X46910000Y-86890000D02*
X45910000Y-86890000D01*
X45910000Y-86890000D02*
X42140000Y-83090000D01*
X42140000Y-83090000D02*
X37930000Y-83090000D01*
X37220000Y-69370000D02*
X37220000Y-69170000D01*
X37430000Y-69580000D02*
X37220000Y-69370000D01*
X37430000Y-82480000D02*
X37420000Y-74300000D01*
X21740000Y-81930000D02*
X21740000Y-81410000D01*
X33210000Y-70530000D02*
X33210000Y-70550000D01*
X32620000Y-70530000D02*
X33210000Y-70530000D01*
X21740000Y-81410000D02*
X32620000Y-70530000D01*
X38750000Y-70550000D02*
X39290000Y-70550000D01*
X39290000Y-70550000D02*
X40270000Y-69570000D01*
X33210000Y-70550000D02*
X38750000Y-70550000D01*
X21740000Y-101310000D02*
X21740000Y-81930000D01*
X22910000Y-102480000D02*
X21740000Y-101310000D01*
X29730000Y-102480000D02*
X22910000Y-102480000D01*
X29810000Y-102400000D02*
X29730000Y-102480000D01*
X97480000Y-34340000D02*
X103600000Y-34340000D01*
X95690000Y-30440000D02*
X96570000Y-31360000D01*
X96570000Y-31360000D02*
X96570000Y-33470000D01*
X96570000Y-33470000D02*
X97480000Y-34340000D01*
X74380000Y-33110000D02*
X74380000Y-31230000D01*
X75170000Y-30440000D02*
X95690000Y-30440000D01*
X74380000Y-31230000D02*
X75170000Y-30440000D01*
X103600000Y-34340000D02*
X105490000Y-32450000D01*
X76920000Y-33280000D02*
X80580000Y-36940000D01*
X76770000Y-43230000D02*
X76770000Y-46270000D01*
X80580000Y-39420000D02*
X76770000Y-43230000D01*
X80580000Y-36940000D02*
X80580000Y-39420000D01*
X76920000Y-33110000D02*
X76920000Y-33280000D01*
X201020000Y-70210000D02*
X199080000Y-70210000D01*
X196560000Y-72730000D02*
X194080000Y-72730000D01*
X199080000Y-70210000D02*
X196560000Y-72730000D01*
X194080000Y-72730000D02*
X194880000Y-72730000D01*
X194080000Y-77110000D02*
X194080000Y-76230000D01*
X196250000Y-67670000D02*
X201020000Y-67670000D01*
X192820000Y-71100000D02*
X196250000Y-67670000D01*
X192820000Y-74970000D02*
X192820000Y-71100000D01*
X194080000Y-76230000D02*
X192820000Y-74970000D01*
X194080000Y-77110000D02*
X194800000Y-77110000D01*
X194010000Y-81610000D02*
X194990000Y-81610000D01*
X203030000Y-67140000D02*
X201020000Y-65130000D01*
X203030000Y-70470000D02*
X203030000Y-67140000D01*
X202040000Y-71460000D02*
X203030000Y-70470000D01*
X199880000Y-71460000D02*
X202040000Y-71460000D01*
X198230000Y-73110000D02*
X199880000Y-71460000D01*
X198230000Y-78370000D02*
X198230000Y-73110000D01*
X194990000Y-81610000D02*
X198230000Y-78370000D01*
X194010000Y-81610000D02*
X194070000Y-81610000D01*
X139340000Y-116120000D02*
X139340000Y-119990000D01*
X139340000Y-119990000D02*
X139640000Y-120290000D01*
X139650000Y-116430000D02*
X139340000Y-116120000D01*
X29640000Y-125080000D02*
X29640000Y-127240000D01*
X29640000Y-127240000D02*
X29670000Y-127270000D01*
X19430000Y-103390000D02*
X19430000Y-117030000D01*
X19430000Y-117030000D02*
X29670000Y-127270000D01*
X30540000Y-44960000D02*
X30540000Y-43670000D01*
X30540000Y-43670000D02*
X31360000Y-42850000D01*
X30540000Y-61930000D02*
X30540000Y-44960000D01*
X26870000Y-65600000D02*
X30540000Y-61930000D01*
X23290000Y-65600000D02*
X26870000Y-65600000D01*
X19430000Y-69460000D02*
X23290000Y-65600000D01*
X19430000Y-103390000D02*
X19430000Y-69460000D01*
X45770000Y-71550000D02*
X45770000Y-71560000D01*
X34920000Y-71950000D02*
X30780000Y-76090000D01*
X45380000Y-71950000D02*
X34920000Y-71950000D01*
X45770000Y-71560000D02*
X45380000Y-71950000D01*
X50740000Y-66460000D02*
X50740000Y-53050000D01*
X59930000Y-43980000D02*
X59930000Y-43960000D01*
X50740000Y-53050000D02*
X59930000Y-43980000D01*
X45770000Y-71550000D02*
X50740000Y-66460000D01*
X25380000Y-81880000D02*
X25380000Y-80380000D01*
X25380000Y-80380000D02*
X26400000Y-79360000D01*
X26400000Y-79360000D02*
X29910000Y-79360000D01*
X29910000Y-79360000D02*
X30780000Y-78490000D01*
X30780000Y-78490000D02*
X30780000Y-76090000D01*
X71690000Y-46270000D02*
X71690000Y-45490000D01*
X71690000Y-45490000D02*
X72620000Y-44560000D01*
X85990000Y-47930000D02*
X85650000Y-47930000D01*
X85650000Y-47930000D02*
X84930000Y-48650000D01*
X84930000Y-48650000D02*
X76340000Y-48650000D01*
X76340000Y-48650000D02*
X75490000Y-47800000D01*
X75490000Y-47800000D02*
X75490000Y-45600000D01*
X75490000Y-45600000D02*
X74450000Y-44560000D01*
X74450000Y-44560000D02*
X72620000Y-44560000D01*
X36490000Y-60660000D02*
X36490000Y-42500000D01*
X36490000Y-42500000D02*
X36270000Y-41980000D01*
X40270000Y-61950000D02*
X38370000Y-61950000D01*
X37080000Y-60660000D02*
X36490000Y-60660000D01*
X38370000Y-61950000D02*
X37080000Y-60660000D01*
X43510000Y-61990000D02*
X40310000Y-61990000D01*
X40310000Y-61990000D02*
X40270000Y-61950000D01*
X51500000Y-32050000D02*
X32610000Y-32050000D01*
X31950000Y-32710000D02*
X31950000Y-39520000D01*
X32610000Y-32050000D02*
X31950000Y-32710000D01*
X31950000Y-39520000D02*
X31950000Y-41420000D01*
X31950000Y-41420000D02*
X32340000Y-41810000D01*
X32340000Y-41810000D02*
X32340000Y-43850000D01*
X32340000Y-43850000D02*
X31320000Y-44870000D01*
X31320000Y-44870000D02*
X31320000Y-57600000D01*
X31320000Y-57600000D02*
X32130000Y-58410000D01*
X51560000Y-28720000D02*
X51560000Y-31990000D01*
X51560000Y-31990000D02*
X51500000Y-32050000D01*
X32990000Y-125020000D02*
X32990000Y-127250000D01*
X32990000Y-127250000D02*
X32970000Y-127270000D01*
X20060000Y-102840000D02*
X20060000Y-113780000D01*
X31290000Y-123320000D02*
X32990000Y-125020000D01*
X29600000Y-123320000D02*
X31290000Y-123320000D01*
X20060000Y-113780000D02*
X29600000Y-123320000D01*
X30730000Y-64340000D02*
X30730000Y-63660000D01*
X30730000Y-63660000D02*
X32170000Y-62220000D01*
X20060000Y-102840000D02*
X20060000Y-73670000D01*
X20060000Y-73670000D02*
X23100000Y-70630000D01*
X23100000Y-70630000D02*
X24440000Y-70630000D01*
X24440000Y-70630000D02*
X30730000Y-64340000D01*
X125390000Y-121510000D02*
X125390000Y-121780000D01*
X125390000Y-121510000D02*
X125390000Y-104700000D01*
X125390000Y-104700000D02*
X124850000Y-104160000D01*
X124360000Y-104160000D02*
X124850000Y-104160000D01*
X150290000Y-129450000D02*
X143580000Y-122950000D01*
X157240000Y-129450000D02*
X150290000Y-129450000D01*
X157240000Y-129450000D02*
X158550000Y-128140000D01*
X143580000Y-122950000D02*
X126720000Y-122950000D01*
X126560000Y-122950000D02*
X126720000Y-122950000D01*
X125390000Y-121780000D02*
X126560000Y-122950000D01*
X124360000Y-104160000D02*
X111450000Y-104160000D01*
X111450000Y-104160000D02*
X106220000Y-98640000D01*
X106220000Y-98640000D02*
X100740000Y-98640000D01*
X100740000Y-98640000D02*
X99630000Y-97820000D01*
X158550000Y-127790000D02*
X158550000Y-128140000D01*
X123410000Y-104990000D02*
X123620000Y-104990000D01*
X124630000Y-122070000D02*
X126160000Y-123600000D01*
X124630000Y-106000000D02*
X124630000Y-122070000D01*
X123620000Y-104990000D02*
X124630000Y-106000000D01*
X166170000Y-127790000D02*
X166170000Y-128270000D01*
X166170000Y-128270000D02*
X164320000Y-130120000D01*
X142880000Y-123600000D02*
X126160000Y-123600000D01*
X149400000Y-130120000D02*
X142880000Y-123600000D01*
X164320000Y-130120000D02*
X149400000Y-130120000D01*
X127610000Y-105120000D02*
X131910000Y-105120000D01*
X131910000Y-105120000D02*
X133660000Y-103170000D01*
X127340000Y-104780000D02*
X127340000Y-104850000D01*
X131000000Y-108870000D02*
X132890000Y-110760000D01*
X129030000Y-108870000D02*
X131000000Y-108870000D01*
X128280000Y-108120000D02*
X129030000Y-108870000D01*
X128280000Y-105790000D02*
X128280000Y-108120000D01*
X127340000Y-104850000D02*
X127610000Y-105120000D01*
X127610000Y-105120000D02*
X128280000Y-105790000D01*
X133660000Y-99350000D02*
X134490000Y-98720000D01*
X133660000Y-103170000D02*
X133660000Y-99350000D01*
X134560000Y-120290000D02*
X134560000Y-119760000D01*
X134560000Y-119760000D02*
X132890000Y-118090000D01*
X132890000Y-118090000D02*
X132890000Y-110760000D01*
X127340000Y-104780000D02*
X125810000Y-103250000D01*
X125810000Y-103250000D02*
X111900000Y-103250000D01*
X111900000Y-103250000D02*
X106530000Y-97880000D01*
X106530000Y-97880000D02*
X101020000Y-97880000D01*
X101020000Y-97880000D02*
X100570000Y-97430000D01*
X142180000Y-120290000D02*
X142180000Y-121430000D01*
X129480000Y-121170000D02*
X129480000Y-120290000D01*
X130680000Y-122370000D02*
X129480000Y-121170000D01*
X141240000Y-122370000D02*
X130680000Y-122370000D01*
X142180000Y-121430000D02*
X141240000Y-122370000D01*
X129480000Y-120290000D02*
X129500000Y-120290000D01*
X186800000Y-126140000D02*
X186810000Y-131010000D01*
X179710000Y-133130000D02*
X179710000Y-133080000D01*
X184830000Y-133130000D02*
X179710000Y-133130000D01*
X186810000Y-131010000D02*
X184830000Y-133130000D01*
X187350000Y-88320000D02*
X187350000Y-88520000D01*
X187350000Y-88320000D02*
X187350000Y-57990000D01*
X187350000Y-57990000D02*
X186150000Y-56690000D01*
X186150000Y-56690000D02*
X164330000Y-56730000D01*
X164330000Y-56730000D02*
X159520000Y-51920000D01*
X159520000Y-51920000D02*
X159520000Y-49490000D01*
X129480000Y-130890000D02*
X131670000Y-133080000D01*
X129480000Y-127910000D02*
X129480000Y-130890000D01*
X131670000Y-133080000D02*
X179710000Y-133080000D01*
X186800000Y-126140000D02*
X186800000Y-115550000D01*
X187150000Y-115250000D02*
X189620000Y-112780000D01*
X189620000Y-112780000D02*
X189620000Y-107030000D01*
X189620000Y-107030000D02*
X191190000Y-105460000D01*
X191190000Y-105460000D02*
X191190000Y-99920000D01*
X191190000Y-99920000D02*
X191350000Y-99720000D01*
X191350000Y-99720000D02*
X196480000Y-99720000D01*
X196480000Y-99720000D02*
X197230000Y-99010000D01*
X197230000Y-99010000D02*
X197230000Y-94130000D01*
X197230000Y-94130000D02*
X193350000Y-90250000D01*
X193350000Y-90250000D02*
X189170000Y-90250000D01*
X186800000Y-115550000D02*
X187150000Y-115250000D01*
X187350000Y-88520000D02*
X189080000Y-90250000D01*
X189080000Y-90250000D02*
X189170000Y-90340000D01*
X189170000Y-90340000D02*
X189170000Y-90250000D01*
X186160000Y-124700000D02*
X186160000Y-130870000D01*
X184510000Y-132510000D02*
X179840000Y-132480000D01*
X186160000Y-130870000D02*
X184510000Y-132510000D01*
X142330000Y-132480000D02*
X134400000Y-132500000D01*
X132020000Y-130210000D02*
X132020000Y-127910000D01*
X134400000Y-132500000D02*
X132020000Y-130210000D01*
X132020000Y-127940000D02*
X132020000Y-127910000D01*
X186160000Y-110140000D02*
X187710000Y-108590000D01*
X186160000Y-124700000D02*
X186160000Y-110140000D01*
X142330000Y-132480000D02*
X179840000Y-132480000D01*
X145529970Y-131919985D02*
X139976105Y-131919985D01*
X139960116Y-131935974D02*
X139960116Y-131890182D01*
X139976105Y-131919985D02*
X139960116Y-131935974D01*
X185580000Y-123960000D02*
X185530000Y-130370000D01*
X184270000Y-131910000D02*
X178960000Y-131910000D01*
X185530000Y-130370000D02*
X184270000Y-131910000D01*
X185580000Y-123960000D02*
X185580000Y-105120000D01*
X187710000Y-100970000D02*
X187710000Y-103510000D01*
X187710000Y-103510000D02*
X187090000Y-103510000D01*
X187090000Y-103510000D02*
X185580000Y-105120000D01*
X139960116Y-131890182D02*
X138360000Y-129490000D01*
X138360000Y-129490000D02*
X138360000Y-126730000D01*
X139960000Y-131890000D02*
X139960116Y-131890182D01*
X145480000Y-131920000D02*
X145529970Y-131919985D01*
X145529970Y-131919985D02*
X178960000Y-131910000D01*
X187430000Y-100970000D02*
X187710000Y-100970000D01*
X187710000Y-106050000D02*
X188950000Y-106050000D01*
X188610000Y-95890000D02*
X187710000Y-95890000D01*
X190220000Y-97500000D02*
X188610000Y-95890000D01*
X190220000Y-104780000D02*
X190220000Y-97500000D01*
X188950000Y-106050000D02*
X190220000Y-104780000D01*
X71550000Y-52310000D02*
X71550000Y-52230000D01*
X59630000Y-71210000D02*
X63240000Y-71210000D01*
X63240000Y-71210000D02*
X63790000Y-71810000D01*
X63790000Y-71810000D02*
X63790000Y-73020000D01*
X63790000Y-73020000D02*
X61790000Y-75020000D01*
X55860000Y-71250000D02*
X53580000Y-68970000D01*
X53580000Y-68970000D02*
X53580000Y-55770000D01*
X53580000Y-55770000D02*
X57130000Y-52220000D01*
X59630000Y-71210000D02*
X55860000Y-71250000D01*
X58950000Y-52220000D02*
X57130000Y-52220000D01*
X61550000Y-49620000D02*
X58950000Y-52220000D01*
X68940000Y-49620000D02*
X61550000Y-49620000D01*
X71550000Y-52230000D02*
X68940000Y-49620000D01*
X130160000Y-52310000D02*
X71550000Y-52310000D01*
X130160000Y-52310000D02*
X131430000Y-51130000D01*
X131430000Y-51130000D02*
X135200000Y-47360000D01*
X135200000Y-47360000D02*
X135200000Y-42140000D01*
X135200000Y-42140000D02*
X139060000Y-38280000D01*
X139060000Y-38280000D02*
X152050000Y-38280000D01*
X152050000Y-38280000D02*
X154440000Y-40670000D01*
X154440000Y-40670000D02*
X154440000Y-41870000D01*
X45340000Y-77690000D02*
X45340000Y-74770000D01*
X77900000Y-35820000D02*
X77790000Y-35710000D01*
X77790000Y-35710000D02*
X73100000Y-35710000D01*
X73100000Y-35710000D02*
X70410000Y-33020000D01*
X70410000Y-33020000D02*
X65100000Y-33020000D01*
X65100000Y-33020000D02*
X62700000Y-35420000D01*
X62700000Y-35420000D02*
X62700000Y-43850000D01*
X52020000Y-67570000D02*
X52020000Y-54010000D01*
X52020000Y-54010000D02*
X62700000Y-43850000D01*
X46490000Y-73620000D02*
X52020000Y-67570000D01*
X45340000Y-74770000D02*
X46490000Y-73620000D01*
X69150000Y-46270000D02*
X69150000Y-44030000D01*
X76770000Y-41390000D02*
X76770000Y-38650000D01*
X75860000Y-42300000D02*
X76770000Y-41390000D01*
X70880000Y-42300000D02*
X75860000Y-42300000D01*
X69150000Y-44030000D02*
X70880000Y-42300000D01*
X156980000Y-41870000D02*
X156980000Y-40300000D01*
X72660000Y-51400000D02*
X69150000Y-46270000D01*
X130290000Y-51400000D02*
X72660000Y-51400000D01*
X134230000Y-46780000D02*
X130290000Y-51400000D01*
X134230000Y-40540000D02*
X134230000Y-46780000D01*
X137280000Y-37490000D02*
X134230000Y-40540000D01*
X154170000Y-37490000D02*
X137280000Y-37490000D01*
X156980000Y-40300000D02*
X154170000Y-37490000D01*
X39650000Y-72710000D02*
X45960000Y-72710000D01*
X62080000Y-43230000D02*
X62080000Y-30680000D01*
X62080000Y-30680000D02*
X63760000Y-29000000D01*
X63760000Y-29000000D02*
X94420000Y-29000000D01*
X94420000Y-29000000D02*
X94445000Y-29025000D01*
X95795000Y-29025000D02*
X97870000Y-31100000D01*
X97870000Y-31100000D02*
X97870000Y-32450000D01*
X94445000Y-29025000D02*
X95795000Y-29025000D01*
X46030000Y-72640000D02*
X51430000Y-66915000D01*
X51430000Y-53555000D02*
X62080000Y-43230000D01*
X51430000Y-66915000D02*
X51430000Y-53555000D01*
X45960000Y-72710000D02*
X46030000Y-72640000D01*
X34160000Y-83160000D02*
X34160000Y-83000000D01*
X39840000Y-72710000D02*
X39840000Y-72700000D01*
X36080000Y-72710000D02*
X39650000Y-72710000D01*
X39650000Y-72710000D02*
X39840000Y-72710000D01*
X35060000Y-73730000D02*
X36080000Y-72710000D01*
X35060000Y-82120000D02*
X35060000Y-73730000D01*
X34160000Y-83000000D02*
X35060000Y-82120000D01*
X29170000Y-88880000D02*
X29170000Y-85320000D01*
X31310000Y-83160000D02*
X34160000Y-83160000D01*
X29170000Y-85320000D02*
X31310000Y-83160000D01*
X26360000Y-84420000D02*
X25380000Y-84420000D01*
X27330000Y-85390000D02*
X26360000Y-84420000D01*
X27330000Y-87040000D02*
X27330000Y-85390000D01*
X29170000Y-88880000D02*
X27330000Y-87040000D01*
X121090000Y-40090000D02*
X121090000Y-41140000D01*
X114400000Y-48690000D02*
X114410000Y-48690000D01*
X114400000Y-43060000D02*
X114400000Y-48690000D01*
X115230000Y-42230000D02*
X114400000Y-43060000D01*
X120000000Y-42230000D02*
X115230000Y-42230000D01*
X121090000Y-41140000D02*
X120000000Y-42230000D01*
X111400000Y-50470000D02*
X114040000Y-50470000D01*
X114410000Y-50100000D02*
X114410000Y-48690000D01*
X114040000Y-50470000D02*
X114410000Y-50100000D01*
X111400000Y-50470000D02*
X109790000Y-50470000D01*
X74230000Y-48240000D02*
X74230000Y-46270000D01*
X76460000Y-50470000D02*
X74230000Y-48240000D01*
X109790000Y-50470000D02*
X76460000Y-50470000D01*
X114410000Y-48690000D02*
X114410000Y-48280000D01*
X121090000Y-40090000D02*
X120920000Y-40090000D01*
X92930000Y-42110000D02*
X91810000Y-42110000D01*
X80820000Y-47780000D02*
X79310000Y-46270000D01*
X83100000Y-47780000D02*
X80820000Y-47780000D01*
X84740000Y-46140000D02*
X83100000Y-47780000D01*
X89770000Y-46140000D02*
X84740000Y-46140000D01*
X90680000Y-45230000D02*
X89770000Y-46140000D01*
X90680000Y-43240000D02*
X90680000Y-45230000D01*
X91810000Y-42110000D02*
X90680000Y-43240000D01*
X99180000Y-39030000D02*
X99180000Y-38620000D01*
X118550000Y-35030000D02*
X115590000Y-37990000D01*
X118550000Y-35030000D02*
X118550000Y-32470000D01*
X99810000Y-37990000D02*
X115590000Y-37990000D01*
X99180000Y-38620000D02*
X99810000Y-37990000D01*
X99130000Y-39330000D02*
X99180000Y-39030000D01*
X99180000Y-39030000D02*
X99180000Y-38570000D01*
X97810000Y-42110000D02*
X92930000Y-42110000D01*
X99130000Y-40730000D02*
X97810000Y-42110000D01*
X99130000Y-39330000D02*
X99130000Y-40730000D01*
X118550000Y-40090000D02*
X118550000Y-37750000D01*
X121090000Y-35210000D02*
X121090000Y-32470000D01*
X118550000Y-37750000D02*
X121090000Y-35210000D01*
X117100000Y-35030000D02*
X115170000Y-36960000D01*
X115170000Y-36960000D02*
X98440000Y-36960000D01*
X98440000Y-36960000D02*
X95330000Y-40070000D01*
X116010000Y-40090000D02*
X116010000Y-40600000D01*
X116010000Y-40600000D02*
X117050000Y-41640000D01*
X117050000Y-41640000D02*
X119350000Y-41640000D01*
X119350000Y-41640000D02*
X119830000Y-41160000D01*
X119830000Y-41160000D02*
X119830000Y-38630000D01*
X119830000Y-38630000D02*
X123100000Y-35360000D01*
X123100000Y-35360000D02*
X129670000Y-35360000D01*
X129670000Y-35360000D02*
X131250000Y-33780000D01*
X131250000Y-33780000D02*
X131250000Y-32470000D01*
X80010000Y-57420000D02*
X78300000Y-55710000D01*
X80010000Y-67520000D02*
X80010000Y-57420000D01*
X77030000Y-69940000D02*
X77590000Y-69940000D01*
X77590000Y-69940000D02*
X80010000Y-67520000D01*
X77030000Y-100420000D02*
X78400000Y-100420000D01*
X80240000Y-102260000D02*
X80240000Y-103420000D01*
X78400000Y-100420000D02*
X80240000Y-102260000D01*
X80240000Y-116670000D02*
X80240000Y-103420000D01*
X80240000Y-103420000D02*
X80240000Y-102980000D01*
X78580000Y-118300000D02*
X78580000Y-117920000D01*
X78580000Y-117920000D02*
X80240000Y-116670000D01*
X50600000Y-104480000D02*
X50110000Y-104480000D01*
X29640000Y-113800000D02*
X29640000Y-117460000D01*
X32960000Y-110480000D02*
X29640000Y-113800000D01*
X46760000Y-110480000D02*
X32960000Y-110480000D01*
X47900000Y-109340000D02*
X46760000Y-110480000D01*
X47900000Y-106690000D02*
X47900000Y-109340000D01*
X50110000Y-104480000D02*
X47900000Y-106690000D01*
X53910000Y-100480000D02*
X56760000Y-100480000D01*
X56760000Y-100480000D02*
X59360000Y-97880000D01*
X59360000Y-97880000D02*
X61790000Y-97880000D01*
X61790000Y-85180000D02*
X54110000Y-85180000D01*
X54110000Y-85180000D02*
X54030000Y-85260000D01*
X53970000Y-85180000D02*
X53910000Y-85240000D01*
X111110000Y-113270000D02*
X111110000Y-114480000D01*
X118200000Y-108980000D02*
X116930000Y-107710000D01*
X122620000Y-108980000D02*
X118200000Y-108980000D01*
X123460000Y-109820000D02*
X122620000Y-108980000D01*
X123460000Y-111720000D02*
X123460000Y-109820000D01*
X122950000Y-112230000D02*
X123460000Y-111720000D01*
X120940000Y-112230000D02*
X122950000Y-112230000D01*
X120580000Y-112590000D02*
X120940000Y-112230000D01*
X120580000Y-114840000D02*
X120580000Y-112590000D01*
X119390000Y-116030000D02*
X120580000Y-114840000D01*
X112660000Y-116030000D02*
X119390000Y-116030000D01*
X111110000Y-114480000D02*
X112660000Y-116030000D01*
X124030000Y-127990000D02*
X124030000Y-128780000D01*
X124030000Y-128780000D02*
X123580000Y-129230000D01*
X122990000Y-107210000D02*
X122990000Y-107540000D01*
X122990000Y-107540000D02*
X124030000Y-108580000D01*
X124030000Y-108580000D02*
X124030000Y-127990000D01*
X124030000Y-127990000D02*
X124030000Y-128040000D01*
X48960000Y-128450000D02*
X48960000Y-122450000D01*
X45570000Y-119060000D02*
X43210000Y-119060000D01*
X48960000Y-122450000D02*
X45570000Y-119060000D01*
X40010000Y-115670000D02*
X40010000Y-116780000D01*
X40010000Y-116780000D02*
X42290000Y-119060000D01*
X42290000Y-119060000D02*
X43210000Y-119060000D01*
X66620000Y-131570000D02*
X70610000Y-131570000D01*
X123580000Y-135690000D02*
X123580000Y-136850000D01*
X122840000Y-134950000D02*
X123580000Y-135690000D01*
X73990000Y-134950000D02*
X122840000Y-134950000D01*
X70610000Y-131570000D02*
X73990000Y-134950000D01*
X48960000Y-128450000D02*
X63560000Y-128450000D01*
X66620000Y-131510000D02*
X66620000Y-131570000D01*
X66620000Y-131570000D02*
X66620000Y-134240000D01*
X63560000Y-128450000D02*
X66620000Y-131510000D01*
X46860000Y-131250000D02*
X46860000Y-124390000D01*
X36800000Y-118450000D02*
X36800000Y-115670000D01*
X39360000Y-121010000D02*
X36800000Y-118450000D01*
X43480000Y-121010000D02*
X39360000Y-121010000D01*
X46860000Y-124390000D02*
X43480000Y-121010000D01*
X36800000Y-115670000D02*
X36800000Y-114530000D01*
X36800000Y-114530000D02*
X37750000Y-113580000D01*
X37750000Y-113580000D02*
X42830000Y-113580000D01*
X42830000Y-113580000D02*
X43210000Y-113960000D01*
X43210000Y-113960000D02*
X43210000Y-115750000D01*
X46860000Y-131250000D02*
X46860000Y-131870000D01*
X46860000Y-131870000D02*
X47720000Y-132730000D01*
X61630000Y-131040000D02*
X64080000Y-133490000D01*
X50950000Y-131040000D02*
X61630000Y-131040000D01*
X49260000Y-132730000D02*
X50950000Y-131040000D01*
X47720000Y-132730000D02*
X49260000Y-132730000D01*
X64080000Y-133490000D02*
X64080000Y-134240000D01*
X45560000Y-134900000D02*
X39510000Y-134900000D01*
X39510000Y-134900000D02*
X38710000Y-134100000D01*
X52410000Y-134100000D02*
X51670000Y-134100000D01*
X51670000Y-134100000D02*
X50870000Y-134900000D01*
X50870000Y-134900000D02*
X45560000Y-134900000D01*
M02*
